<svg width="512" height="512" viewBox="0 0 512 512" fill="none" xmlns="http://www.w3.org/2000/svg">
<circle cx="256" cy="256" r="232" stroke="white" stroke-width="6"/>
<path d="M376.677 326.334L370.677 242.301C370.112 233.285 362.321 226.437 353.368 227.002C349.001 227.253 345.012 229.201 342.122 232.5C339.232 235.767 337.787 239.976 338.038 244.343L340.677 287.192C335.933 287.035 331.19 288.951 327.86 292.689L286.393 339.559C282.435 344.02 280.424 349.329 280.424 355.297V375.56H274.173C268.895 375.56 264.592 379.863 264.592 385.141V402.419C264.592 407.696 268.895 412 274.173 412H350.729C356.007 412 360.311 407.696 360.311 402.419V385.141C360.311 379.863 356.007 375.56 350.729 375.56H344.446V371.978C344.446 367.486 346.237 363.779 349.755 360.983L367.787 346.596C374.101 341.601 377.243 334.407 376.677 326.334ZM350.572 402.262H274.299V385.298H350.572V402.262ZM361.724 339.025L343.692 353.413C337.818 358.093 334.739 364.502 334.739 372.01V375.591H290.131V355.329C290.131 351.685 291.262 348.732 293.65 345.999L335.116 299.129C336.687 297.37 339.043 296.584 341.274 296.993C341.399 297.024 341.494 297.056 341.619 297.087C342.122 297.213 342.624 297.37 343.096 297.621C343.127 297.621 343.158 297.653 343.19 297.653C343.661 297.904 344.101 298.187 344.478 298.532C347.211 300.951 347.462 305.161 345.043 307.894L317.022 339.559C315.231 341.57 315.42 344.648 317.43 346.407C318.341 347.224 319.504 347.632 320.635 347.632C321.985 347.632 323.305 347.067 324.279 345.999L352.3 314.302C358.269 307.548 357.64 297.213 350.886 291.244C350.792 291.15 350.666 291.056 350.572 290.993L347.651 243.714C347.431 240.039 350.227 236.898 353.902 236.678C357.546 236.458 360.688 239.254 360.939 242.929L366.939 327.025C367.316 331.863 365.525 336.009 361.724 339.025ZM237.576 375.56H231.481L231.293 368.272V355.297C231.293 349.297 229.282 344.02 225.324 339.559L183.857 292.658C180.527 288.919 175.784 287.035 171.072 287.16L173.711 244.28C174.245 235.264 167.365 227.505 158.38 226.971C149.396 226.405 141.637 233.285 141.071 242.238L135.071 326.334C134.474 334.376 137.647 341.601 143.93 346.596L161.962 360.983C165.354 363.685 167.082 367.329 167.271 372.135L167.396 375.56H160.988C155.71 375.56 151.407 379.863 151.407 385.141V402.419C151.407 407.696 155.71 412 160.988 412H237.544C242.822 412 247.125 407.696 247.125 402.419V385.141C247.125 379.863 242.853 375.56 237.576 375.56ZM176.978 371.821C176.695 364.219 173.585 357.873 168.025 353.413L149.962 339.025C146.192 336.009 144.37 331.894 144.715 327.056L150.715 242.929C150.935 239.285 154.108 236.489 157.752 236.709C161.396 236.929 164.192 240.07 163.972 243.746L161.051 291.024C160.956 291.118 160.831 291.181 160.737 291.275C157.469 294.166 155.522 298.155 155.27 302.522C155.019 306.888 156.464 311.098 159.323 314.333L187.344 345.999C188.318 347.098 189.638 347.632 190.988 347.632C192.119 347.632 193.282 347.224 194.193 346.407C196.203 344.617 196.392 341.57 194.601 339.559L166.642 307.894C165.48 306.574 164.883 304.878 165.009 303.087C165.103 301.297 165.888 299.694 167.208 298.532C167.993 297.841 168.936 297.338 169.972 297.087C170.004 297.087 170.067 297.056 170.098 297.056C172.423 296.522 174.936 297.276 176.569 299.129L218.036 345.999C220.423 348.701 221.554 351.653 221.554 355.329V368.366C221.554 368.397 221.554 368.46 221.554 368.491L221.743 375.591H177.103L176.978 371.821ZM237.418 402.262H161.145V385.298H237.418V402.262ZM267.168 286.846L270.906 280.94C271.943 279.307 274.016 278.773 275.712 279.652L281.869 282.888C286.016 285.055 290.728 284.961 294.781 282.637C298.833 280.312 301.283 276.26 301.472 271.61L301.755 264.668C301.849 262.751 303.357 261.212 305.273 261.149L312.184 260.867C316.865 260.678 320.886 258.259 323.242 254.207C325.598 250.154 325.692 245.442 323.525 241.327L320.289 235.138C319.409 233.442 319.943 231.369 321.577 230.363L327.42 226.657C331.378 224.175 333.671 220.028 333.671 215.347C333.671 210.635 331.41 206.52 327.451 204.038L321.546 200.3C319.912 199.263 319.347 197.19 320.258 195.494L323.493 189.337C325.661 185.19 325.567 180.478 323.242 176.425C320.917 172.373 316.865 169.923 312.216 169.734L305.179 169.483C303.263 169.389 301.723 167.881 301.66 165.964L301.378 159.053C301.189 154.373 298.77 150.32 294.718 147.996C290.665 145.671 285.985 145.577 281.838 147.713L275.649 150.948C273.953 151.828 271.88 151.294 270.875 149.661L267.168 143.817C264.686 139.859 260.539 137.566 255.859 137.566C251.146 137.566 247.031 139.828 244.549 143.786L240.811 149.692C239.775 151.325 237.701 151.859 236.005 150.98L229.848 147.744C225.732 145.577 221.02 145.671 216.936 147.996C212.884 150.352 210.465 154.373 210.277 159.022L209.994 165.996C209.9 167.912 208.392 169.451 206.476 169.514L199.564 169.797C194.884 169.985 190.863 172.404 188.507 176.457C186.182 180.509 186.088 185.19 188.224 189.337L191.46 195.525C192.339 197.222 191.805 199.295 190.172 200.3L184.329 204.007C180.37 206.489 178.077 210.635 178.077 215.316C178.077 220.028 180.339 224.143 184.297 226.625L190.203 230.363C191.837 231.4 192.371 233.473 191.491 235.17L188.255 241.327C186.088 245.505 186.182 250.186 188.507 254.207C190.831 258.259 194.852 260.709 199.564 260.929L206.507 261.212C208.423 261.306 209.963 262.814 210.025 264.731L210.308 271.642C210.497 276.322 212.915 280.343 216.968 282.699C221.02 285.024 225.701 285.118 229.848 282.951L236.036 279.715C237.733 278.835 239.806 279.369 240.843 281.003L244.549 286.846C247.031 290.804 251.178 293.097 255.859 293.097C260.539 293.066 264.655 290.804 267.168 286.846ZM262.707 275.757L258.969 281.663C258.246 282.794 257.209 283.359 255.89 283.359C254.539 283.359 253.503 282.794 252.811 281.631L249.105 275.788C246.56 271.767 242.288 269.537 237.827 269.537C235.722 269.537 233.586 270.039 231.575 271.076L225.387 274.312C224.193 274.94 222.999 274.909 221.868 274.249C220.706 273.558 220.109 272.584 220.046 271.202L219.764 264.291C219.481 257.285 213.984 251.756 206.947 251.442L200.004 251.16C198.622 251.097 197.648 250.5 196.957 249.306C196.297 248.175 196.266 246.982 196.894 245.819L200.13 239.662C203.397 233.442 201.386 225.934 195.449 222.164L189.543 218.426C188.412 217.735 187.847 216.698 187.847 215.347C187.847 213.997 188.412 212.96 189.575 212.269L195.418 208.562C201.355 204.824 203.397 197.284 200.13 191.064L196.894 184.876C196.266 183.682 196.297 182.488 196.957 181.357C197.648 180.195 198.622 179.598 200.004 179.535L206.915 179.253C213.952 178.97 219.45 173.472 219.764 166.436L220.046 159.462C220.109 158.142 220.706 157.106 221.868 156.446C223.031 155.786 224.225 155.755 225.418 156.383L231.575 159.619C237.795 162.886 245.303 160.875 249.073 154.938L252.811 149.032C253.503 147.901 254.539 147.336 255.89 147.336C257.241 147.336 258.277 147.901 258.969 149.032L262.675 154.875C266.414 160.813 273.953 162.854 280.173 159.587L286.362 156.352C287.555 155.723 288.749 155.755 289.912 156.415C291.042 157.074 291.671 158.079 291.734 159.43L292.016 166.341C292.299 173.347 297.796 178.876 304.833 179.19L311.807 179.473C313.127 179.535 314.163 180.132 314.823 181.295C315.483 182.457 315.514 183.651 314.886 184.813L311.65 190.97C308.383 197.19 310.394 204.698 316.331 208.499L322.237 212.237C323.368 212.929 323.933 213.965 323.933 215.316C323.933 216.667 323.368 217.704 322.205 218.395L316.362 222.07C310.488 225.746 308.414 233.442 311.65 239.568L314.886 245.788C315.514 246.95 315.483 248.144 314.823 249.306C314.132 250.468 313.158 251.065 311.776 251.128L304.865 251.411C297.859 251.694 292.33 257.191 292.016 264.228L291.734 271.202C291.671 272.521 291.074 273.558 289.912 274.218C288.749 274.877 287.555 274.909 286.393 274.28L280.236 271.045C274.016 267.809 266.477 269.82 262.707 275.757ZM250.989 121.828V105.869C250.989 103.199 253.157 101 255.859 101C258.529 101 260.728 103.168 260.728 105.869V121.828C260.728 124.498 258.56 126.697 255.859 126.697C253.157 126.697 250.989 124.498 250.989 121.828ZM298.393 131.943L306.373 118.121C307.723 115.796 310.676 115.011 313.001 116.33C315.326 117.681 316.111 120.634 314.792 122.958L306.812 136.781C305.901 138.351 304.268 139.2 302.603 139.2C301.786 139.2 300.938 138.98 300.184 138.54C297.859 137.221 297.074 134.268 298.393 131.943ZM332.603 170.991C331.253 168.666 332.069 165.713 334.394 164.362L348.216 156.383C350.541 155.032 353.494 155.849 354.845 158.174C356.195 160.498 355.379 163.451 353.054 164.802L339.232 172.781C338.478 173.221 337.63 173.441 336.813 173.441C335.148 173.441 333.514 172.561 332.603 170.991ZM196.926 122.958C195.575 120.634 196.392 117.681 198.716 116.33C201.041 114.979 203.994 115.796 205.345 118.121L213.324 131.943C214.675 134.268 213.858 137.221 211.533 138.571C210.779 139.011 209.931 139.231 209.114 139.231C207.449 139.231 205.816 138.351 204.905 136.812L196.926 122.958ZM156.873 158.174C158.223 155.849 161.176 155.064 163.501 156.383L177.323 164.362C179.648 165.713 180.433 168.666 179.114 170.991C178.203 172.561 176.569 173.41 174.904 173.41C174.088 173.41 173.239 173.19 172.485 172.75L158.663 164.771C156.307 163.483 155.522 160.498 156.873 158.174ZM280.644 252.667C283.534 250.563 284.728 246.856 283.629 243.463L277.817 225.683L292.959 214.719C295.88 212.614 297.074 208.908 295.943 205.515C294.812 202.091 291.639 199.829 288.089 199.86L269.398 199.892L263.681 182.111C262.581 178.719 259.408 176.425 255.859 176.425C252.277 176.425 249.136 178.719 248.036 182.143L242.288 199.923L223.659 199.892C220.078 199.892 216.905 202.122 215.774 205.546C214.643 208.939 215.868 212.646 218.79 214.782L233.932 225.714L228.12 243.463C226.989 246.856 228.183 250.563 231.104 252.667C233.994 254.772 237.89 254.772 240.811 252.667L255.89 241.641L270.969 252.667C272.414 253.736 274.11 254.238 275.807 254.238C277.503 254.238 279.199 253.704 280.644 252.667ZM260.696 233.159C259.251 232.091 257.555 231.589 255.859 231.589C254.162 231.589 252.466 232.123 251.021 233.191L238.769 242.144L243.481 227.725C244.612 224.332 243.419 220.625 240.497 218.489L228.214 209.599L243.387 209.63C247 209.63 250.141 207.337 251.209 203.913L255.89 189.462L260.539 203.913C261.67 207.305 264.812 209.599 268.393 209.599L283.534 209.567L271.252 218.457C268.361 220.562 267.168 224.269 268.267 227.662L272.979 242.112L260.696 233.159Z" fill="white"/>
</svg>
