<svg width="512" height="512" viewBox="0 0 512 512" fill="none" xmlns="http://www.w3.org/2000/svg">
<circle cx="256" cy="256" r="232" stroke="white" stroke-width="6"/>
<g clip-path="url(#clip0_42_77)">
<path d="M266.116 148.858C264.805 146.423 262.277 144.134 259.766 142.96C254.333 140.414 248.772 143.105 245.533 149.209C228.343 181.564 211.196 213.945 193.972 246.282C191.222 251.435 190.948 256.51 192.91 262.005C203.218 290.974 213.399 319.985 223.622 348.988C224.059 350.231 224.427 351.5 224.941 353.129C221.428 353.129 218.437 353.009 215.464 353.154C209.637 353.429 206.149 356.995 206.003 362.731C205.926 365.508 205.986 368.294 205.986 371.072C205.986 379.379 209.14 382.569 217.323 382.586C220.708 382.586 224.093 382.586 227.7 382.586C227.7 389.727 227.683 396.448 227.7 403.17C227.718 409.317 230.348 411.983 236.458 411.991C249.398 412.009 262.337 412.009 275.276 411.991C281.609 411.991 284.231 409.368 284.248 403.058C284.265 396.346 284.248 389.641 284.248 382.577C288.49 382.577 292.414 382.646 296.339 382.56C302.312 382.44 305.817 378.891 305.954 372.881C306.022 369.889 305.979 366.888 305.962 363.896C305.928 356.601 302.475 353.163 295.088 353.112C289.312 353.077 283.537 353.112 277.77 353.112C262.808 353.112 247.838 353.112 232.859 353.112C232.208 350.9 231.762 349.056 231.137 347.273C220.888 318.168 210.656 289.062 200.331 259.991C198.985 256.201 199.191 252.867 201.11 249.274C217.555 218.463 233.887 187.583 250.263 156.728C250.674 155.948 251.18 155.211 252.14 153.633V157.74C252.14 174.963 252.14 192.178 252.14 209.401C252.14 214.528 252.5 214.948 257.53 215.737C264.214 216.782 268.927 222.921 267.915 229.265C266.938 235.377 261.968 239.758 255.987 239.758C249.663 239.758 244.83 235.189 243.922 228.322C243.502 225.141 242.028 223.572 239.629 223.958C236.835 224.404 236.098 226.384 236.252 228.913C236.784 237.529 243.228 245.125 251.565 246.951C260.16 248.837 268.867 244.971 273.168 237.349C277.47 229.728 276.399 220.04 270.015 214.031C267.238 211.416 263.588 209.718 260.1 207.455V153.83C260.923 155.331 261.403 156.162 261.848 157.011C278.121 187.677 294.343 218.369 310.701 248.983C312.732 252.781 312.955 256.253 311.507 260.291C302.886 284.424 294.42 308.6 285.919 332.776C284.694 336.248 285.371 338.443 287.95 339.129C290.923 339.918 292.226 338.023 293.083 335.597C301.849 310.726 310.632 285.864 319.382 260.985C321.061 256.201 320.718 251.563 318.319 247.045C300.941 214.305 283.631 181.53 266.107 148.875L266.116 148.858ZM235.61 382.826H276.45V404.07H235.61V382.826Z" fill="white"/>
<path d="M399.82 249.832C397.772 249.069 397.095 248.177 397.026 246.017C396.906 242.184 396.521 238.327 395.904 234.537C387.429 182.344 358.834 145.566 310.821 123.739C308.173 122.53 305.431 121.527 302.732 120.43C302.775 120.267 302.817 120.095 302.86 119.932H354.892C358.611 128.934 364.952 132.963 373.196 131.617C380.291 130.46 385.835 124.433 386.281 117.395C386.778 109.568 382.227 102.829 374.995 100.746C367.129 98.4825 358.388 101.929 354.609 112.182C328.088 112.182 301.566 112.157 275.053 112.225C272.723 112.225 271.369 111.882 270.289 109.353C267.058 101.757 258.472 98.2425 250.76 100.96C245.43 102.838 242.165 106.738 240.426 112.122H157.125C153.209 103.069 146.542 98.8169 138.77 100.283C131.306 101.697 125.891 107.844 125.642 115.191C125.385 122.839 130.047 129.526 137.228 131.3C146.825 133.675 154.22 128.548 157.228 119.932H209.525C151.649 143.688 119.738 186.279 114.262 248.94C113.688 249.163 112.677 249.497 111.726 249.943C105.882 252.626 102.523 257.179 102.051 263.591C101.46 271.624 107.133 278.783 115.008 280.266C122.609 281.706 130.244 277.283 132.857 269.918C135.565 262.297 132.309 253.921 124.948 250.415C122.943 249.463 122.257 248.469 122.523 246.36C123.089 241.91 123.183 237.375 124.023 232.986C133.757 181.719 163.098 146.732 211.71 127.991C221.077 124.382 230.897 122.273 240.871 121.373C247.649 136.281 265.585 134.069 270.52 122.59C270.795 121.956 272.397 121.467 273.288 121.587C298.13 124.879 320.47 134.224 339.827 150.152C370.034 175.006 386.495 207.103 389.417 246.145C389.58 248.288 389.1 249.437 386.915 250.466C379.811 253.81 376.52 261.988 378.903 269.404C381.182 276.52 387.823 280.935 395.45 280.42C402.673 279.932 408.775 274.111 409.846 266.686C410.865 259.596 406.744 252.404 399.82 249.823V249.832Z" fill="white"/>
</g>
<defs>
<clipPath id="clip0_42_77">
<rect width="308" height="312" fill="white" transform="translate(102 100)"/>
</clipPath>
</defs>
</svg>
