<svg width="512" height="512" viewBox="0 0 512 512" fill="none" xmlns="http://www.w3.org/2000/svg">
<circle cx="256" cy="256" r="232" stroke="white" stroke-width="6"/>
<path d="M105.143 405.11H287.429C288.405 405.11 289.341 404.722 290.032 404.032C290.722 403.341 291.11 402.405 291.11 401.429C291.11 400.452 290.722 399.516 290.032 398.825C289.341 398.135 288.405 397.747 287.429 397.747C285.071 397.747 282.81 396.811 281.142 395.143C279.475 393.476 278.538 391.215 278.538 388.857V306.357C278.538 303.999 279.475 301.738 281.142 300.071C282.81 298.404 285.071 297.467 287.429 297.467H340.857C341.833 297.467 342.77 297.079 343.46 296.389C344.151 295.698 344.538 294.762 344.538 293.786V120.143C344.538 119.167 344.151 118.23 343.46 117.54C342.77 116.849 341.833 116.462 340.857 116.462H161.337C160.361 116.462 159.424 116.849 158.734 117.54C158.044 118.23 157.656 119.167 157.656 120.143V172.656H105.143C104.167 172.656 103.23 173.044 102.54 173.734C101.849 174.424 101.462 175.361 101.462 176.337V401.429C101.462 402.405 101.849 403.341 102.54 404.032C103.23 404.722 104.167 405.11 105.143 405.11ZM271.176 388.857C271.176 392.022 272.1 395.11 273.823 397.747H108.824V180.018H161.337C162.313 180.018 163.25 179.631 163.94 178.94C164.631 178.25 165.018 177.313 165.018 176.337V123.824H337.176V290.104H287.429C283.118 290.104 278.984 291.817 275.936 294.865C272.888 297.913 271.176 302.047 271.176 306.357V388.857Z" fill="white" stroke="white" stroke-width="1.07692"/>
<path d="M105.14 180.018H105.143H161.337C161.82 180.018 162.299 179.923 162.746 179.738C163.192 179.553 163.598 179.282 163.94 178.94C164.282 178.598 164.553 178.192 164.738 177.746C164.923 177.299 165.018 176.82 165.018 176.337L165.018 120.143L165.018 120.14C165.014 119.413 164.796 118.704 164.39 118.101C163.984 117.499 163.409 117.03 162.738 116.754C162.068 116.473 161.33 116.396 160.616 116.533C159.902 116.671 159.245 117.017 158.727 117.528L158.725 117.53L102.53 173.725L102.528 173.727C102.017 174.245 101.671 174.902 101.533 175.616C101.396 176.33 101.473 177.068 101.754 177.738C102.03 178.409 102.499 178.984 103.101 179.39C103.704 179.796 104.413 180.014 105.14 180.018ZM157.655 129.017V172.655H114.017L157.655 129.017Z" fill="white" stroke="white" stroke-width="1.07692"/>
<path d="M185.789 245.358H281.143C282.119 245.358 283.056 244.97 283.746 244.28C284.436 243.59 284.824 242.653 284.824 241.677V146.323C284.824 145.346 284.436 144.41 283.746 143.72C283.056 143.029 282.119 142.641 281.143 142.641H185.789C184.812 142.641 183.876 143.029 183.186 143.72C182.495 144.41 182.107 145.346 182.107 146.323V241.677C182.107 242.653 182.495 243.59 183.186 244.28C183.876 244.97 184.812 245.358 185.789 245.358ZM277.462 150.004V237.996H189.47V150.004H277.462Z" fill="white" stroke="white" stroke-width="1.07692"/>
<path d="M136.194 271.538H309.806C310.782 271.538 311.718 271.151 312.409 270.46C313.099 269.77 313.487 268.833 313.487 267.857C313.487 266.881 313.099 265.944 312.409 265.254C311.718 264.564 310.782 264.176 309.806 264.176H136.194C135.218 264.176 134.282 264.564 133.591 265.254C132.901 265.944 132.513 266.881 132.513 267.857C132.513 268.833 132.901 269.77 133.591 270.46C134.282 271.151 135.218 271.538 136.194 271.538Z" fill="white" stroke="white" stroke-width="1.07692"/>
<path d="M136.194 297.467H309.806C310.782 297.467 311.718 297.079 312.409 296.389C313.099 295.698 313.487 294.762 313.487 293.786C313.487 292.809 313.099 291.873 312.409 291.183C311.718 290.492 310.782 290.104 309.806 290.104H136.194C135.218 290.104 134.282 290.492 133.591 291.183C132.901 291.873 132.513 292.809 132.513 293.786C132.513 294.762 132.901 295.698 133.591 296.389C134.282 297.079 135.218 297.467 136.194 297.467Z" fill="white" stroke="white" stroke-width="1.07692"/>
<path d="M136.194 323.396H274.857C275.834 323.396 276.77 323.008 277.46 322.317C278.151 321.627 278.538 320.691 278.538 319.714C278.538 318.738 278.151 317.802 277.46 317.111C276.77 316.421 275.834 316.033 274.857 316.033H136.194C135.218 316.033 134.282 316.421 133.591 317.111C132.901 317.802 132.513 318.738 132.513 319.714C132.513 320.691 132.901 321.627 133.591 322.317C134.282 323.008 135.218 323.396 136.194 323.396Z" fill="white" stroke="white" stroke-width="1.07692"/>
<path d="M136.194 349.324H274.857C275.834 349.324 276.77 348.936 277.46 348.246C278.151 347.555 278.538 346.619 278.538 345.643C278.538 344.666 278.151 343.73 277.46 343.04C276.77 342.349 275.834 341.961 274.857 341.961H136.194C135.218 341.961 134.282 342.349 133.591 343.04C132.901 343.73 132.513 344.666 132.513 345.643C132.513 346.619 132.901 347.555 133.591 348.246C134.282 348.936 135.218 349.324 136.194 349.324Z" fill="white" stroke="white" stroke-width="1.07692"/>
<path d="M136.194 375.253H274.857C275.834 375.253 276.77 374.865 277.46 374.174C278.151 373.484 278.538 372.548 278.538 371.571C278.538 370.595 278.151 369.659 277.46 368.968C276.77 368.278 275.834 367.89 274.857 367.89H136.194C135.218 367.89 134.282 368.278 133.591 368.968C132.901 369.659 132.513 370.595 132.513 371.571C132.513 372.548 132.901 373.484 133.591 374.174C134.282 374.865 135.218 375.253 136.194 375.253Z" fill="white" stroke="white" stroke-width="1.07692"/>
<path d="M284.824 241.643L284.824 200.792C284.824 200.791 284.824 200.791 284.824 200.79C284.827 200.298 284.731 199.809 284.541 199.354C284.351 198.899 284.072 198.487 283.72 198.141L262.32 177.118C262.319 177.118 262.319 177.117 262.319 177.117C261.629 176.432 260.696 176.048 259.724 176.048C258.752 176.048 257.819 176.433 257.129 177.118L257.128 177.119L233.183 201.064L218.227 186.108L218.225 186.107C217.536 185.421 216.603 185.036 215.63 185.036C214.657 185.036 213.724 185.421 213.035 186.107L213.034 186.108L183.212 215.93C183.211 215.93 183.21 215.931 183.21 215.932C182.863 216.272 182.587 216.678 182.398 217.126C182.208 217.575 182.109 218.057 182.107 218.544V218.546V241.677C182.107 242.654 182.495 243.59 183.186 244.28C183.876 244.971 184.812 245.359 185.789 245.359H281.143C281.629 245.359 282.111 245.262 282.56 245.075C283.009 244.888 283.417 244.613 283.759 244.267C284.101 243.922 284.372 243.511 284.555 243.061C284.737 242.61 284.829 242.129 284.824 241.643ZM284.824 241.643V241.646H284.286M284.824 241.643C284.824 241.642 284.824 241.641 284.824 241.64L284.286 241.646M284.286 241.646C284.29 242.061 284.212 242.473 284.056 242.858C283.9 243.243 283.669 243.593 283.376 243.888C283.084 244.184 282.736 244.418 282.353 244.578C281.97 244.738 281.558 244.82 281.143 244.82H185.789C184.955 244.82 184.156 244.489 183.566 243.9C182.977 243.31 182.646 242.511 182.646 241.677V218.546M284.286 241.646V200.789C284.288 200.368 284.206 199.95 284.044 199.562C283.882 199.173 283.644 198.821 283.343 198.526L182.646 218.546M182.646 218.546C182.647 218.13 182.732 217.719 182.894 217.336C183.055 216.953 183.292 216.605 183.589 216.314L213.414 186.489C214.003 185.903 214.8 185.575 215.63 185.575C216.46 185.575 217.257 185.903 217.846 186.489L232.802 201.445L182.646 218.546ZM257.509 177.5C258.097 176.915 258.894 176.586 259.724 176.586C260.555 176.586 261.351 176.915 261.94 177.5H257.509ZM257.509 177.5L233.564 201.445L257.509 177.5ZM235.794 208.871L235.795 208.87L259.775 184.921L277.462 202.303V237.996H189.47V220.151L215.615 193.913L230.603 208.87L230.603 208.871C231.293 209.556 232.226 209.941 233.199 209.941C234.171 209.941 235.104 209.556 235.794 208.871Z" fill="white" stroke="white" stroke-width="1.07692"/>
<path d="M233.464 163.487L234.004 163.489V163.349C234.804 163.408 235.591 163.596 236.332 163.908C237.239 164.29 238.061 164.85 238.749 165.554C239.436 166.258 239.976 167.092 240.337 168.008C240.697 168.924 240.871 169.903 240.847 170.887L240.847 170.887V170.9C240.847 172.367 240.412 173.802 239.596 175.022C238.78 176.241 237.621 177.191 236.264 177.752C234.908 178.312 233.416 178.457 231.977 178.168C230.539 177.88 229.218 177.171 228.182 176.131C227.147 175.092 226.443 173.768 226.16 172.328C225.878 170.888 226.029 169.397 226.594 168.043C227.16 166.689 228.114 165.533 229.337 164.722C230.56 163.911 231.996 163.481 233.464 163.487ZM225.246 183.011C227.681 184.632 230.542 185.494 233.467 185.487C237.374 185.478 241.119 183.922 243.882 181.159C246.645 178.396 248.201 174.652 248.21 170.744C248.216 167.819 247.355 164.958 245.733 162.523C244.112 160.088 241.805 158.189 239.104 157.067C236.403 155.945 233.429 155.649 230.56 156.218C227.691 156.787 225.055 158.195 222.986 160.264C220.918 162.332 219.51 164.968 218.941 167.837C218.372 170.706 218.667 173.68 219.79 176.381C220.912 179.082 222.811 181.389 225.246 183.011Z" fill="white" stroke="white" stroke-width="1.07692"/>
<path d="M223.317 219.839C224.283 219.835 225.208 219.451 225.894 218.771L225.895 218.77L235.655 209.041C236.033 208.714 236.34 208.313 236.558 207.862C236.779 207.405 236.903 206.908 236.923 206.401C236.943 205.894 236.857 205.388 236.672 204.916C236.487 204.444 236.206 204.015 235.847 203.656C235.489 203.297 235.06 203.016 234.587 202.831C234.115 202.646 233.609 202.561 233.102 202.58C232.595 202.6 232.098 202.724 231.641 202.945C231.191 203.163 230.79 203.47 230.463 203.848L220.703 213.576L220.701 213.578C220.015 214.268 219.631 215.201 219.631 216.173C219.631 217.146 220.015 218.079 220.701 218.769L220.704 218.771C221.048 219.112 221.456 219.382 221.904 219.566C222.353 219.749 222.833 219.842 223.317 219.839ZM223.317 219.839C223.317 219.839 223.317 219.839 223.317 219.839L223.314 219.3L223.318 219.839C223.317 219.839 223.317 219.839 223.317 219.839Z" fill="white" stroke="white" stroke-width="1.07692"/>
<path d="M287.429 405.11H394.286C398.596 405.11 402.73 403.398 405.778 400.35C408.826 397.302 410.539 393.168 410.539 388.857V306.357C410.539 302.047 408.826 297.913 405.778 294.865C402.73 291.817 398.596 290.104 394.286 290.104H287.429C283.118 290.104 278.984 291.817 275.936 294.865C272.888 297.913 271.176 302.047 271.176 306.357V388.857C271.176 393.168 272.888 397.302 275.936 400.35C278.984 403.398 283.118 405.11 287.429 405.11ZM281.142 300.071C282.81 298.404 285.071 297.467 287.429 297.467H394.286C396.644 297.467 398.905 298.404 400.572 300.071C402.239 301.738 403.176 303.999 403.176 306.357V388.857C403.176 391.215 402.239 393.476 400.572 395.143C398.905 396.811 396.644 397.747 394.286 397.747H287.429C285.071 397.747 282.81 396.811 281.142 395.143C279.475 393.476 278.539 391.215 278.539 388.857V306.357C278.539 303.999 279.475 301.738 281.142 300.071Z" fill="white" stroke="white" stroke-width="1.07692"/>
<path d="M274.857 382.324H406.857C407.834 382.324 408.77 381.936 409.46 381.246C410.151 380.556 410.539 379.619 410.539 378.643C410.539 377.667 410.151 376.73 409.46 376.04C408.77 375.349 407.834 374.962 406.857 374.962H274.857C273.881 374.962 272.945 375.349 272.254 376.04C271.564 376.73 271.176 377.667 271.176 378.643C271.176 379.619 271.564 380.556 272.254 381.246C272.945 381.936 273.881 382.324 274.857 382.324Z" fill="white" stroke="white" stroke-width="1.07692"/>
<path d="M327.747 352.557L327.747 352.559C327.756 354.699 328.61 356.749 330.124 358.262C331.637 359.775 333.686 360.629 335.826 360.638C337.513 360.647 339.16 360.129 340.539 359.157L340.54 359.156L360.026 345.328L360.028 345.326C361.077 344.576 361.932 343.585 362.522 342.438C363.112 341.29 363.42 340.019 363.42 338.729C363.42 337.438 363.112 336.167 362.522 335.019C361.932 333.872 361.077 332.881 360.028 332.131L360.027 332.13L340.51 318.207L340.509 318.207C339.29 317.34 337.854 316.829 336.362 316.73C334.869 316.631 333.379 316.949 332.056 317.647C330.733 318.345 329.63 319.396 328.869 320.684C328.109 321.971 327.721 323.442 327.747 324.936L327.747 352.557ZM335.722 324.171L335.773 324.181L335.824 324.181C335.968 324.183 336.108 324.231 336.221 324.319L336.231 324.327L336.24 324.334L355.722 338.128C355.723 338.128 355.723 338.129 355.724 338.129C355.819 338.198 355.896 338.288 355.95 338.393C356.004 338.498 356.032 338.614 356.033 338.732L356.033 338.739L356.033 338.747C356.037 338.859 356.012 338.971 355.961 339.07C355.91 339.17 355.834 339.255 355.74 339.317L355.733 339.322L355.726 339.327L336.242 353.154C336.242 353.154 336.242 353.154 336.242 353.154C336.134 353.23 336.007 353.274 335.875 353.283C335.744 353.292 335.612 353.264 335.495 353.202C335.378 353.141 335.281 353.049 335.213 352.936C335.145 352.823 335.109 352.693 335.11 352.561V352.557V324.774V324.76L335.109 324.746C335.103 324.619 335.133 324.492 335.198 324.381C335.251 324.291 335.324 324.215 335.412 324.159C335.515 324.146 335.62 324.15 335.722 324.171ZM334.572 324.774V352.557L335.232 323.643C335.023 323.747 334.85 323.909 334.733 324.11C334.615 324.311 334.559 324.542 334.572 324.774Z" fill="white" stroke="white" stroke-width="1.07692"/>
</svg>
