<svg width="157" height="65" viewBox="0 0 157 65" fill="none" xmlns="http://www.w3.org/2000/svg">
<g clip-path="url(#clip0_86_200)">
<path d="M96.0182 23.8407C95.8121 25.214 95.8192 25.2264 96.9847 25.596C98.0951 25.9513 98.4185 26.4026 98.2621 27.5503C98.1758 28.1032 98.036 28.6465 97.8446 29.1724C97.0131 31.5939 96.1604 34.0084 95.3147 36.4246C95.034 37.2312 94.7568 38.0395 94.4104 39.0398C94.2327 38.6169 94.1154 38.4144 94.0426 38.2012C92.4703 33.6655 90.8909 29.1404 89.3416 24.5904C89.1409 23.9988 88.8371 23.7607 88.2099 23.7518C87.5828 23.743 87.3216 23.9668 87.1315 24.5318C86.3089 26.9569 85.4455 29.3678 84.5909 31.7822C83.7488 34.1629 82.9031 36.543 82.0539 38.9225L81.83 38.9137C81.3343 37.5385 80.8298 36.167 80.3465 34.7883C79.476 32.3152 78.593 29.8457 77.7686 27.3584C77.4133 26.3137 77.6976 25.8785 78.6569 25.6262C79.8224 25.3188 79.9397 25.1216 79.7016 23.8496H71.1738C71.0565 25.0399 71.0494 25.2336 71.6517 25.4112C72.961 25.7985 73.3395 26.8467 73.7339 27.95C75.6527 33.3297 77.6158 38.6933 79.4955 44.0872C79.8508 45.1212 80.5775 44.8227 81.2615 44.9062C81.9455 44.9897 82.2457 44.6877 82.4696 44.0606C83.9442 39.8961 85.4579 35.7459 86.9645 31.5921C87.0602 31.3899 87.1719 31.1957 87.2985 31.0112C87.501 31.5442 87.6538 31.919 87.7889 32.3046C89.1036 36.055 90.3916 39.8162 91.7365 43.556C92.3264 45.1923 91.8911 44.8405 93.7068 44.9098C94.2771 44.9311 94.5525 44.7321 94.7231 44.1991C95.0446 43.1918 95.4337 42.204 95.789 41.2091C97.4828 36.5282 99.1753 31.8497 100.867 27.1736C101.154 26.3724 101.615 25.7719 102.455 25.5302C103.295 25.2886 103.571 24.7432 103.315 23.8531L96.0182 23.8407Z" fill="black"/>
<path d="M155.692 39.9299C155.059 40.4629 154.523 40.8928 154.034 41.3618C153.073 42.2821 151.966 42.9608 150.659 43.2095C144.073 44.4639 140.987 38.5406 141.578 33.4842H156.603C156.55 32.7967 156.502 32.2193 156.459 31.6401C156.028 25.8412 150.661 22.0658 144.988 23.4676C139.67 24.7823 136.119 29.6698 137.21 36.151C138.185 41.9393 142.612 45.3895 148.482 45.3131C152.036 45.2687 154.766 43.6573 156.884 40.7791L155.692 39.9299ZM149.014 25.4805C150.771 26.1023 151.501 27.529 151.822 29.2114C151.959 29.9221 151.965 30.6505 152.037 31.4642H141.781C141.767 27.2021 144.981 24.0556 149.014 25.4805Z" fill="black"/>
<path d="M129.748 32.7665C127.939 32.0558 126.075 31.4873 124.263 30.7873C122.416 30.0767 121.62 28.4404 122.264 26.8539C122.943 25.1785 125.429 24.1729 127.323 24.8054C128.333 25.143 128.566 25.4539 128.373 26.5092C128.222 27.3247 128.508 27.8807 129.144 28.3285C130.329 29.1582 132.016 28.9236 132.793 27.8203C133.53 26.7721 133.098 25.2122 131.839 24.3914C130.297 23.3859 128.559 23.1265 126.496 23.0945C124.568 23.0917 122.68 23.6383 121.051 24.6704C117.782 26.7384 117.215 30.6718 119.843 33.1467C121.104 34.337 122.71 34.854 124.304 35.4119C125.747 35.9165 127.214 36.4033 128.568 37.0926C130.139 37.8903 130.59 39.706 129.812 41.2926C128.499 43.9753 123.903 44.0748 122.431 42.9857C121.918 42.6037 121.744 42.0867 121.989 41.4187C122.131 41.0314 122.225 40.5304 122.097 40.1573C121.684 38.9776 119.832 38.4002 118.61 38.9972C117.247 39.6634 116.769 40.9977 117.636 42.2253C118.165 42.9594 118.856 43.5609 119.656 43.9824C121.872 45.1248 124.29 45.3362 126.736 45.091C128.911 44.8743 130.849 44.057 132.445 42.5273C134.31 40.7347 134.797 38.4109 133.724 36.071C132.942 34.3548 131.423 33.4221 129.748 32.7665Z" fill="black"/>
<path d="M113.326 42.8453C112.338 42.6517 112.024 42.0707 112.029 41.0811C112.058 35.6535 112.029 30.2277 112.019 24.8C112.019 24.4447 111.983 24.1036 111.965 23.7678H105.76C105.665 24.848 105.806 25.2158 106.353 25.4396C107.952 26.097 107.973 26.1254 107.973 27.799C107.973 31.8107 107.973 35.8217 107.973 39.8322C107.973 40.3918 107.929 40.9514 107.904 41.5111C107.872 42.1862 107.536 42.6268 106.863 42.7547C105.848 42.9324 105.601 43.5826 105.736 44.5562H114.199C114.266 43.7532 114.294 43.0319 113.326 42.8453Z" fill="black"/>
<path d="M109.293 20.4118C109.978 20.3875 110.628 20.1048 111.113 19.6206C111.597 19.1363 111.88 18.4865 111.905 17.8019C111.921 16.4072 110.661 15.1831 109.24 15.1938C108.894 15.1933 108.552 15.2611 108.233 15.3934C107.913 15.5256 107.623 15.7196 107.379 15.9643C107.135 16.2089 106.941 16.4994 106.81 16.819C106.678 17.1387 106.611 17.4811 106.612 17.8268C106.605 19.2232 107.865 20.4349 109.293 20.4118Z" fill="black"/>
<path d="M51.9275 0H13.0725C5.85275 0 0 5.85275 0 13.0725V51.9275C0 59.1473 5.85275 65 13.0725 65H51.9275C59.1472 65 65 59.1473 65 51.9275V13.0725C65 5.85275 59.1472 0 51.9275 0Z" fill="#EA7B22"/>
<path d="M31.9564 19.7491C30.3184 18.7719 28.325 18.4948 26.344 18.5054C22.677 18.5232 19.0118 18.4504 15.3466 18.4628C14.9913 18.4628 14.4175 18.7382 14.3428 18.9958C14.2992 19.1233 14.2834 19.2587 14.2964 19.3929C14.3094 19.527 14.351 19.6568 14.4183 19.7736C14.4856 19.8904 14.5771 19.9914 14.6866 20.0699C14.7962 20.1484 14.9213 20.2026 15.0535 20.2288C16.2776 20.5219 16.5192 21.3427 16.5121 22.4798C16.4748 28.9467 16.4606 35.4119 16.5121 41.8789C16.5228 43.1829 16.3202 44.1885 14.9647 44.67C14.8314 44.7162 14.652 44.8139 14.6093 44.9258C14.4739 45.296 14.4018 45.6864 14.3961 46.0806C14.3961 46.1765 14.9291 46.3098 15.2116 46.3133C17.1926 46.3347 19.1735 46.324 21.1545 46.324V46.3364C22.8991 46.3364 24.6455 46.3809 26.3884 46.324C28.0887 46.2689 29.764 46.0913 31.3239 45.258C34.4632 43.5755 36.5952 41.0119 37.9277 37.7962C39.2939 34.4916 39.2424 31.0734 38.3505 27.6569C37.416 24.0628 34.9945 21.5648 31.9564 19.7491ZM33.9835 33.8254C33.844 35.7629 33.391 37.6649 32.6422 39.4573C31.4341 42.3355 28.9237 44.1459 25.8004 44.2063C24.2156 44.2382 22.6308 44.2063 20.9626 44.2063V30.0323C20.9626 27.2572 20.9928 24.482 20.943 21.7087C20.9306 20.9288 21.2149 20.6037 21.9415 20.625C23.7697 20.6765 25.628 20.5646 27.4189 20.8595C30.0838 21.2983 31.7503 23.1567 32.795 25.5285C33.9533 28.1668 34.2003 30.9703 33.9782 33.8254H33.9835Z" fill="white"/>
<path d="M49.6889 44.5385C49.0191 44.4408 48.6123 44.0961 48.5608 43.3944C48.5323 43.0142 48.4826 42.6322 48.4826 42.2502C48.4826 35.7288 48.4861 29.2073 48.4932 22.6859C48.4932 21.5631 48.3706 20.3976 50.0194 20.1986C50.2894 20.1666 50.5044 19.3831 50.643 18.9159C50.6643 18.8413 50.1402 18.4682 49.8684 18.4664C47.4468 18.4557 45.0252 18.5179 42.6037 18.509C41.8291 18.509 41.7154 18.9603 41.9108 19.4702C42.0808 19.8303 42.3783 20.1146 42.7458 20.2679C44.0161 20.8009 44.0836 20.8382 44.0854 22.2524C44.0854 29.0699 44.0854 35.8863 44.0854 42.7015C44.0854 42.9076 44.0854 43.1154 44.0712 43.3215C44.0286 43.9398 43.8011 44.3875 43.0923 44.4568C42.8116 44.4888 42.41 44.59 42.3017 44.789C42.1013 45.2255 41.9677 45.6897 41.9055 46.1659C41.9185 46.244 41.951 46.3176 42.0001 46.3797C42.0492 46.4418 42.1132 46.4905 42.1862 46.5212C42.8862 46.5532 43.5897 46.5372 44.2915 46.5372V46.4253L43.5258 46.3844L43.5773 46.3169C45.6755 46.3169 47.7737 46.3294 49.8719 46.3027C50.1384 46.3027 50.5595 46.1588 50.6394 45.9687C50.8952 45.3682 50.3694 44.6416 49.6889 44.5385Z" fill="white"/>
</g>
<defs>
<clipPath id="clip0_86_200">
<rect width="157" height="65" fill="white"/>
</clipPath>
</defs>
</svg>
