<svg width="512" height="512" viewBox="0 0 512 512" fill="none" xmlns="http://www.w3.org/2000/svg">
<circle cx="256" cy="256" r="232" stroke="white" stroke-width="6"/>
<path fill-rule="evenodd" clip-rule="evenodd" d="M281.785 152.585L256.148 131.523L256.134 152.585H281.785ZM306.488 210.208L318.373 200.164L306.488 190.08V210.208ZM180.008 264.067L116.456 210.18V331.462L180.008 264.067ZM140.335 218.074V120.466H240.826C244.075 120.479 246.7 123.105 246.714 126.354V157.162C246.714 159.76 248.826 161.872 251.425 161.872H291.139C294.388 161.872 297.027 164.512 297.027 167.76V218.075L250.909 257.208L238.334 243.861C233.123 238.636 226.057 235.699 218.68 235.699C211.303 235.699 204.237 238.636 199.025 243.861L186.451 257.208L140.335 218.074ZM118.989 199.989L130.873 210.033V189.905L118.989 199.989ZM167.054 189.594H270.307C272.92 189.594 275.031 187.482 275.031 184.883C275.031 182.284 272.92 180.173 270.307 180.173H167.054C164.442 180.173 162.33 182.284 162.33 184.883C162.33 187.482 164.442 189.594 167.054 189.594ZM167.054 217.315C164.591 217.112 162.709 215.055 162.709 212.591C162.709 210.128 164.591 208.07 167.054 207.854H270.307C272.771 208.07 274.652 210.128 274.652 212.591C274.652 215.055 272.771 217.112 270.307 217.315H167.054ZM167.054 161.872H227.938C229.251 161.98 230.564 161.534 231.552 160.64C232.527 159.747 233.082 158.475 233.082 157.148C233.082 155.808 232.527 154.549 231.552 153.642C230.564 152.749 229.251 152.302 227.938 152.411H167.054C164.591 152.627 162.709 154.685 162.709 157.148C162.709 159.612 164.591 161.669 167.054 161.872ZM269.171 299.167L239.094 307.234C237.848 307.573 236.793 308.385 236.143 309.495C235.507 310.618 235.331 311.945 235.656 313.204L244.982 348.019C245.334 349.264 246.146 350.32 247.269 350.969C248.393 351.619 249.719 351.795 250.978 351.457L281.028 343.416L269.171 299.167ZM284.25 352.323L259.723 358.902C260.278 359.727 263.188 364.343 263.675 364.763L272.392 368.742C274.477 369.676 276.236 371.219 277.414 373.182L301.67 412.477C301.968 412.964 302.455 413.303 303.024 413.411C303.579 413.519 304.161 413.384 304.621 413.032L312.77 406.927H312.756C313.474 406.061 313.352 404.775 312.486 404.058C309.887 402.325 307.721 400.024 306.137 397.33L284.209 352.283L284.25 352.323ZM236.672 298.124C233.004 299.099 229.891 301.495 228.009 304.784C226.101 308.06 225.587 311.958 226.548 315.626L232.747 338.746L122.633 338.732L205.798 250.3C212.878 243.302 224.275 243.302 231.368 250.3L268.442 289.595L236.672 298.124ZM277.281 285.197L320.908 260.007V210.181L257.398 264.068L277.282 285.211L277.281 285.197ZM305.003 351.455L305.179 363.34C305.125 364.003 304.759 364.599 304.204 364.964L301.294 365.722L294.364 351.442L305.003 351.455ZM290.411 342.034L278.012 295.659L327.634 266.936L328.392 266.489L336.365 261.887L357.819 341.964L290.411 342.034ZM408.201 280.797C410.637 280.35 412.992 281.866 413.628 284.249C414.265 286.645 412.952 289.121 410.623 289.947L401.852 292.275V292.262C400.621 292.587 399.321 292.411 398.225 291.747C397.142 291.098 396.357 290.042 396.072 288.797C395.748 287.578 395.937 286.279 396.6 285.182C397.25 284.1 398.306 283.314 399.538 283.017L408.201 280.797ZM414.644 306.434C415.727 307.057 416.512 308.085 416.837 309.29C417.161 310.481 416.999 311.767 416.376 312.85C415.754 313.933 414.725 314.731 413.507 315.056C412.302 315.381 411.016 315.205 409.933 314.582L402.069 310.048C400.986 309.412 400.201 308.383 399.876 307.178C399.565 305.96 399.741 304.674 400.364 303.591C401.677 301.344 404.56 300.586 406.807 301.899L414.644 306.434ZM395.274 259.733C395.856 258.569 396.885 257.703 398.13 257.324C399.375 256.958 400.715 257.107 401.839 257.757C402.962 258.407 403.774 259.503 404.072 260.762C404.37 262.021 404.126 263.361 403.409 264.444L398.874 272.308C398.292 273.472 397.25 274.339 396.018 274.704C394.773 275.083 393.419 274.921 392.296 274.271C391.173 273.621 390.374 272.538 390.076 271.266C389.778 270.007 390.008 268.681 390.726 267.598L395.26 259.733H395.274ZM384.283 311.497C386.624 309.155 387.558 305.744 386.746 302.522L381.196 281.731C380.344 278.523 377.853 276.019 374.659 275.153L384.391 311.468L384.283 311.497ZM376.73 319.74L358.402 251.344C357.887 249.462 356.642 247.865 354.936 246.904C351.485 245.023 347.153 246.214 345.164 249.611C344.203 251.29 343.932 253.28 344.433 255.161L368.242 344.037C369.027 346.879 371.437 348.977 374.347 349.357C377.271 349.736 380.141 348.314 381.616 345.769C382.591 344.104 382.848 342.115 382.347 340.26L376.879 319.78L376.73 319.74ZM371.911 265.406C380.452 265.351 387.951 271.037 390.211 279.266L395.761 300.058C397.94 308.355 394.232 317.086 386.746 321.268L391.186 337.769C392.891 344.293 390.522 351.21 385.162 355.325C379.802 359.426 372.506 359.927 366.645 356.584C364.452 355.298 362.57 353.538 361.136 351.453H314.425L314.601 363.23C314.641 368.211 311.406 372.637 306.628 374.085L305.491 374.397L314.98 393.726C316.902 395.31 318.716 397.015 320.421 398.816C324.171 403.905 323.101 411.066 318.039 414.829L310.283 420.582H310.269C307.697 422.504 304.449 423.262 301.295 422.666C298.141 422.071 295.38 420.162 293.701 417.428L269.445 378.091L268.538 377.333L260.268 373.624C258.278 372.744 256.599 371.296 255.422 369.469L249.872 361.049C247.3 361.076 244.769 360.413 242.562 359.114C239.26 357.219 236.85 354.092 235.876 350.41L235.28 348.163H111.711C109.112 348.163 107 346.051 107 343.439V199.986C106.987 198.484 107.691 197.063 108.909 196.169L130.877 177.53V115.711C130.877 114.452 131.378 113.247 132.272 112.367C133.165 111.488 134.37 110.987 135.629 111H240.791C244.635 110.987 248.344 112.408 251.186 114.98L300.323 155.453C304.221 158.35 306.509 162.911 306.495 167.758V177.53L328.667 196.318C329.763 197.212 330.386 198.565 330.372 199.987V254.536L334.771 252.072C334.975 249.528 335.746 247.064 337.018 244.858C339.238 241.014 342.893 238.212 347.17 237.061C351.461 235.924 356.023 236.533 359.854 238.767C363.698 240.973 366.5 244.601 367.651 248.878L371.911 265.406Z" fill="white"/>
</svg>
