<svg width="512" height="512" viewBox="0 0 512 512" fill="none" xmlns="http://www.w3.org/2000/svg">
<circle cx="256" cy="256" r="232" stroke="white" stroke-width="6"/>
<path fill-rule="evenodd" clip-rule="evenodd" d="M124 211.996C124 150.71 173.699 101.007 234.984 101C296.268 101.007 345.967 150.71 345.967 211.996C345.967 213.919 345.916 215.816 345.815 217.713C345.765 218.649 345.714 219.585 345.638 220.495C345.562 221.533 345.486 222.57 345.36 223.581C345.259 224.644 345.132 225.706 344.98 226.743C344.879 227.578 344.753 228.413 344.626 229.222C344.555 229.777 344.458 230.332 344.362 230.878C344.323 231.104 344.284 231.328 344.247 231.549C344.07 232.511 343.893 233.447 343.716 234.357C343.488 235.496 343.235 236.634 342.957 237.772C342.679 238.936 342.4 240.049 342.097 241.187L342.021 241.415C341.768 242.401 341.49 243.362 341.186 244.324C341.171 244.377 341.154 244.43 341.136 244.484C341.095 244.609 341.052 244.739 341.034 244.88C339.997 246.499 338.201 247.511 336.254 247.511C335.773 247.511 335.292 247.435 334.786 247.309C334.078 247.106 333.395 246.777 332.813 246.322L323.884 240.226C326.743 231.322 328.26 221.836 328.26 211.996C328.26 160.571 286.422 118.707 234.971 118.707C183.52 118.707 141.681 160.571 141.681 211.996C141.681 258.641 176.083 297.419 220.856 304.223C220.907 304.324 220.907 304.577 220.907 304.577L221.792 316.112C221.969 318.616 220.502 320.817 218.326 321.753C218.289 321.753 218.251 321.74 218.213 321.728C218.175 321.715 218.137 321.702 218.099 321.702C217.188 321.576 216.252 321.424 215.342 321.247C214.431 321.095 213.52 320.918 212.635 320.741C209.928 320.185 207.247 319.527 204.616 318.793C204.174 318.667 203.738 318.534 203.301 318.401C202.865 318.268 202.428 318.136 201.986 318.009C201.543 317.87 201.1 317.725 200.658 317.579C200.215 317.434 199.772 317.288 199.33 317.149C198.912 316.997 198.495 316.852 198.078 316.706C197.66 316.561 197.243 316.415 196.825 316.264C196.408 316.099 195.984 315.941 195.561 315.783C195.137 315.625 194.713 315.467 194.296 315.303C187.011 312.444 180.08 308.827 173.655 304.527C173.402 304.35 173.174 304.198 172.947 304.046L170.746 302.528C169.304 301.491 167.862 300.429 166.471 299.316C165.08 298.228 163.688 297.09 162.348 295.926C159.009 293.017 155.822 289.906 152.837 286.643C151.041 284.67 149.321 282.646 147.676 280.547C143.3 274.956 139.43 268.911 136.142 262.536C135.737 261.727 135.332 260.917 134.953 260.108C134.548 259.299 134.169 258.489 133.815 257.68C133.435 256.845 133.081 256.035 132.727 255.201L132.727 255.2C132.373 254.366 132.019 253.531 131.69 252.696C131.525 252.279 131.367 251.855 131.209 251.432C131.051 251.008 130.893 250.584 130.729 250.167C130.589 249.787 130.457 249.414 130.324 249.041C130.191 248.668 130.058 248.295 129.919 247.916C129.236 245.816 128.578 243.691 127.971 241.516C127.794 240.934 127.643 240.327 127.491 239.72L127.491 239.72C126.808 237.064 126.226 234.383 125.745 231.625C125.417 229.804 125.138 227.983 124.885 226.136C124.852 225.824 124.815 225.512 124.779 225.2C124.705 224.576 124.632 223.952 124.582 223.328C124.481 222.418 124.405 221.482 124.329 220.521C124.202 218.877 124.101 217.232 124.051 215.563C124 214.374 124 213.185 124 211.996ZM234.984 101C234.988 101 234.992 101 234.996 101H234.971C234.975 101 234.979 101 234.984 101ZM380.065 315.176C382.443 316.719 384.441 318.793 385.883 321.247C387.173 323.574 387.426 326.306 386.617 328.836C385.807 331.163 384.289 333.212 382.291 334.679C379.053 337.057 375.31 338.65 371.363 339.384H371.212L340.149 346.036L362.282 384.587C363.421 386.585 363.699 388.937 363.092 391.138C362.51 393.339 361.144 395.236 359.247 396.475C359.171 396.551 358.994 396.627 358.994 396.627L336.026 409.907L335.52 410.135H335.469C333.522 411.046 331.346 411.248 329.272 410.691C327.046 410.135 325.124 408.693 323.96 406.695L301.675 368.296L280.477 392.099C277.872 395.135 274.609 397.563 270.941 399.207C268.664 400.194 266.135 400.472 263.681 400.042C261.05 399.486 258.774 397.841 257.382 395.539C255.966 393.086 255.156 390.303 255.03 387.47L246.227 272.477C211.952 278.649 179.169 255.858 172.997 221.583C166.825 187.308 189.591 154.525 223.866 148.353C258.167 142.181 290.949 164.972 297.122 199.247C300.334 217.106 295.68 235.496 284.373 249.712L380.065 315.176ZM252.273 227.806C252.526 227.932 252.779 228.084 253.006 228.261L255.308 229.829C255.991 227.249 256.32 224.593 256.27 221.937V219.256C256.32 216.372 255.662 213.489 254.372 210.908C253.108 208.455 251.135 206.456 248.731 205.116C245.848 203.598 242.61 202.839 239.347 202.966H233.959C232.568 203.067 231.176 202.713 230.013 201.929C229.102 201.144 228.622 200.006 228.723 198.817V198.058C228.647 197.021 229.001 195.984 229.709 195.225C230.468 194.542 231.429 194.087 232.441 193.961C233.782 193.758 235.123 193.708 236.463 193.758C238.993 193.758 241.801 193.758 244.887 193.961C246.179 194.045 247.419 194.112 248.605 194.176C250.25 194.265 251.794 194.349 253.234 194.466V182.072C251.666 181.692 249.92 181.338 247.947 180.984C245.974 180.63 243.9 180.326 241.674 180.099C240.637 179.972 239.575 179.896 238.487 179.846V173.522H229.785V179.846C225.94 180.175 222.272 181.616 219.212 183.969C215.493 187.333 213.52 192.215 213.9 197.224V199.753C213.9 206.204 215.519 210.782 218.731 213.539C222.829 216.549 227.863 218.016 232.922 217.662H237.197C238.234 217.637 239.271 217.941 240.131 218.548C240.94 219.129 241.421 220.065 241.396 221.077V222.038C241.472 222.974 241.143 223.885 240.51 224.568C239.752 225.226 238.816 225.681 237.829 225.858C236.362 226.136 234.895 226.263 233.402 226.263H227.332C225.501 226.263 223.688 226.173 221.893 226.084C221.555 226.068 221.218 226.051 220.881 226.035C218.756 225.934 216.783 225.782 214.962 225.63V238.025C216.353 238.405 217.795 238.733 219.313 239.012C220.831 239.29 222.374 239.518 224.018 239.72C225.662 239.922 227.332 240.099 229.077 240.201H229.836V247.081H238.537V240.302C240.258 240.175 242.003 239.922 243.698 239.593L243.217 233.573V233.219C243.192 232.258 243.369 231.322 243.774 230.462C244.229 229.45 244.937 228.59 245.822 227.932C246.202 227.654 246.607 227.452 247.062 227.325C247.922 227.022 248.833 226.92 249.743 227.022C250.629 227.123 251.489 227.376 252.273 227.806ZM372.982 327.292C373.691 326.812 374.247 326.129 374.601 325.319C374.778 324.814 374.728 324.232 374.424 323.776C373.64 322.537 372.578 321.475 371.313 320.716L255.688 243.185L257.509 269.366L265.325 382.108C265.351 383.6 265.705 385.042 266.413 386.357C266.641 386.787 267.045 387.116 267.526 387.243C268.386 387.369 269.271 387.217 270.055 386.838C272.509 385.7 274.659 384.055 276.379 381.981L297.906 355.016C298.184 354.713 298.513 354.46 298.867 354.232C300.713 353.144 303.117 353.777 304.204 355.649L329.651 397.082C329.753 397.209 329.879 397.285 330.031 397.31C330.233 397.386 330.461 397.386 330.663 397.31H330.891L351.481 385.775C351.684 385.624 351.81 385.396 351.886 385.168C351.937 385.017 351.937 384.84 351.886 384.688L328.108 341.964C327.906 341.61 327.754 341.205 327.653 340.8C327.223 338.675 328.589 336.627 330.714 336.196L365.596 330.353C368.252 329.898 370.782 328.836 372.982 327.292Z" fill="white"/>
</svg>
