<svg width="512" height="512" viewBox="0 0 512 512" fill="none" xmlns="http://www.w3.org/2000/svg">
<circle cx="256" cy="256" r="232" stroke="white" stroke-width="6"/>
<path d="M408.855 127.596C408.855 117.343 400.513 109 390.259 109H122.596C112.343 109 104 117.343 104 127.596C104 136.657 110.517 144.221 119.107 145.86V398.04C119.107 400.225 120.879 402 123.067 402H389.788C391.973 402 393.748 400.228 393.748 398.04V145.86C402.338 144.221 408.855 136.657 408.855 127.596ZM385.829 394.084H127.027V146.192H385.832L385.829 394.084ZM390.259 138.276H389.788H123.067H122.596C116.709 138.276 111.916 133.487 111.916 127.596C111.916 121.709 116.706 116.916 122.596 116.916H390.259C396.146 116.916 400.939 121.706 400.939 127.596C400.936 133.483 396.146 138.276 390.259 138.276ZM183.798 259.578C195.192 259.578 206.13 255.385 214.595 247.77C216.221 246.307 216.353 243.807 214.889 242.181L187.754 212.004V171.417C187.754 169.233 185.982 167.458 183.794 167.458C158.396 167.458 137.734 188.12 137.734 213.518C137.734 238.916 158.4 259.578 183.798 259.578ZM179.841 175.58V213.518C179.841 214.497 180.204 215.439 180.857 216.167L206.221 244.38C199.735 249.101 191.907 251.662 183.801 251.662C162.769 251.662 145.66 234.553 145.66 213.521C145.657 193.824 160.662 177.565 179.841 175.58ZM193.939 207.336H236.04C238.224 207.336 239.999 205.565 239.999 203.376C239.999 177.979 219.337 157.316 193.939 157.316C191.754 157.316 189.979 159.088 189.979 161.276V203.376C189.979 205.565 191.754 207.336 193.939 207.336ZM197.899 165.439C215.777 167.292 230.024 181.539 231.877 199.417H197.899V165.439ZM198.078 211.906C197.442 213.335 197.706 215.002 198.752 216.163L226.901 247.469C227.602 248.251 228.588 248.719 229.634 248.776C229.705 248.78 229.773 248.783 229.844 248.783C230.82 248.783 231.765 248.424 232.493 247.767C242.194 239.041 247.756 226.556 247.756 213.518C247.756 211.333 245.985 209.558 243.797 209.558H201.693C200.131 209.558 198.715 210.48 198.078 211.906ZM239.627 217.478C238.787 225.502 235.406 233.083 230 239.078L210.577 217.478H239.627ZM271.064 332.771H242.015C239.83 332.771 238.055 334.542 238.055 336.73V378.546C238.055 380.731 239.827 382.506 242.015 382.506H271.064C273.249 382.506 275.024 380.735 275.024 378.546V336.73C275.024 334.546 273.249 332.771 271.064 332.771ZM267.104 374.587H245.971V340.69H267.104V374.587ZM319.482 294.952H290.433C288.248 294.952 286.473 296.723 286.473 298.911V378.546C286.473 380.731 288.245 382.506 290.433 382.506H319.482C321.667 382.506 323.442 380.735 323.442 378.546V298.911C323.442 296.727 321.667 294.952 319.482 294.952ZM315.522 374.587H294.389V302.871H315.522V374.587ZM334.891 262.024V378.546C334.891 380.731 336.662 382.506 338.851 382.506H367.9C370.085 382.506 371.86 380.735 371.86 378.546V262.024C371.86 259.839 370.088 258.064 367.9 258.064H338.851C336.662 258.064 334.891 259.836 334.891 262.024ZM342.807 265.984H363.94V374.587H342.807V265.984ZM347.027 205.087C347.027 205.101 347.031 205.114 347.031 205.128L346.316 244.271C346.275 246.432 344.511 248.16 342.36 248.16C342.336 248.16 342.312 248.16 342.285 248.16C340.1 248.119 338.359 246.314 338.4 244.129L338.83 220.533C325.749 241.91 310.062 259.704 292.038 273.534C271.061 289.634 246.323 300.849 218.521 306.868C218.24 306.929 217.955 306.96 217.681 306.96C215.858 306.96 214.215 305.693 213.816 303.837C213.352 301.699 214.71 299.592 216.847 299.128C267.447 288.174 305.486 260.683 332.777 215.276L310.736 227.47C308.822 228.527 306.414 227.836 305.354 225.922C304.297 224.008 304.988 221.6 306.902 220.54L341.161 201.588C341.164 201.588 341.167 201.585 341.167 201.585C341.31 201.507 341.455 201.439 341.604 201.378C341.638 201.364 341.672 201.354 341.703 201.341C341.818 201.297 341.936 201.259 342.058 201.229C342.099 201.219 342.136 201.209 342.177 201.198C342.482 201.127 342.793 201.093 343.108 201.093C343.142 201.093 343.173 201.097 343.207 201.097C343.335 201.1 343.464 201.11 343.593 201.131C343.627 201.134 343.66 201.137 343.691 201.144C343.999 201.192 344.304 201.28 344.602 201.405C344.646 201.422 344.687 201.446 344.727 201.463C344.788 201.49 344.849 201.517 344.91 201.547C344.954 201.571 344.995 201.598 345.036 201.622C345.059 201.635 345.087 201.646 345.114 201.663C345.134 201.673 345.151 201.69 345.168 201.7C345.283 201.771 345.395 201.849 345.5 201.93C345.517 201.944 345.537 201.957 345.554 201.971C345.679 202.072 345.798 202.181 345.91 202.296C345.93 202.316 345.947 202.337 345.967 202.357C346.055 202.452 346.14 202.553 346.218 202.655C346.242 202.685 346.265 202.719 346.289 202.75C346.367 202.858 346.441 202.973 346.506 203.089C346.516 203.109 346.529 203.126 346.54 203.146C346.614 203.282 346.679 203.421 346.736 203.563C346.75 203.6 346.763 203.637 346.777 203.675C346.817 203.783 346.855 203.895 346.885 204.01C346.899 204.054 346.909 204.101 346.919 204.145C346.953 204.284 346.977 204.427 346.997 204.569C346.997 204.579 347 204.593 347.004 204.603C347.021 204.765 347.027 204.924 347.027 205.087ZM254.737 165.795C254.737 163.61 256.509 161.835 258.697 161.835H342.224C344.409 161.835 346.184 163.606 346.184 165.795C346.184 167.979 344.412 169.754 342.224 169.754H258.697C256.512 169.754 254.737 167.979 254.737 165.795ZM254.737 189.306C254.737 187.121 256.509 185.346 258.697 185.346H300.462C302.647 185.346 304.422 187.118 304.422 189.306C304.422 191.491 302.651 193.265 300.462 193.265H258.697C256.512 193.265 254.737 191.491 254.737 189.306ZM224.157 325.776C224.157 327.961 222.386 329.736 220.197 329.736H145.474C143.289 329.736 141.514 327.964 141.514 325.776C141.514 323.591 143.286 321.816 145.474 321.816H220.197C222.386 321.816 224.157 323.588 224.157 325.776ZM224.157 349.287C224.157 351.472 222.386 353.247 220.197 353.247H145.474C143.289 353.247 141.514 351.475 141.514 349.287C141.514 347.102 143.286 345.327 145.474 345.327H220.197C222.386 345.327 224.157 347.099 224.157 349.287ZM191.819 372.798C191.819 374.983 190.047 376.758 187.859 376.758H145.477C143.292 376.758 141.518 374.986 141.518 372.798C141.518 370.613 143.289 368.839 145.477 368.839H187.859C190.044 368.839 191.819 370.61 191.819 372.798Z" fill="white"/>
</svg>
