<svg width="512" height="512" viewBox="0 0 512 512" fill="none" xmlns="http://www.w3.org/2000/svg">
<circle cx="256" cy="256" r="232" stroke="white" stroke-width="6"/>
<mask id="path-2-outside-1_44_117" maskUnits="userSpaceOnUse" x="152" y="99" width="208" height="318" fill="black">
<rect fill="white" x="152" y="99" width="208" height="318"/>
<path fill-rule="evenodd" clip-rule="evenodd" d="M310.222 415.536L305.888 412.776L305.498 412.528C299.492 408.703 293.286 404.753 287.135 400.934C286.15 400.326 285.002 400.232 284.413 400.232C283.698 400.232 282.656 400.351 281.747 400.915C275.565 404.76 269.329 408.737 263.292 412.587L263.291 412.588L262.937 412.814L258.684 415.523H256.232C254.231 414.476 253.46 412.901 253.497 410.06C253.592 403.349 253.573 396.531 253.554 389.939C253.548 387.249 253.541 384.552 253.541 381.861V375.47H159.266C153.822 375.47 153 374.654 153 369.229V106.354C153 100.872 153.815 100.05 159.209 100.05H210.829C238.012 100.05 267.214 100.05 296.599 100C299.108 100 300.833 100.709 302.57 102.459C320.515 120.51 338.691 138.68 356.585 156.455C358.304 158.161 359 159.892 359 162.439C358.95 218.774 358.95 276.051 358.95 331.446V369.31C358.95 374.673 358.122 375.476 352.628 375.482H315.277V381.516C315.277 384.232 315.271 386.954 315.259 389.67C315.234 396.343 315.208 403.242 315.334 410.041C315.384 412.857 314.619 414.444 312.637 415.536H310.222ZM267.014 341.513C265.866 341.513 264.624 341.663 263.219 341.97L261.25 342.403V404.804L265.088 402.408C266.548 401.498 267.988 400.624 269.406 399.763L269.412 399.759L269.811 399.517C273.38 397.353 276.748 395.308 280.028 392.994C281.647 391.852 283.089 391.294 284.431 391.294C285.774 391.294 287.216 391.852 288.834 392.994C292.115 395.308 295.483 397.353 299.052 399.517C300.594 400.451 302.162 401.405 303.756 402.402L307.594 404.798V342.152L305.38 341.889C303.699 341.688 302.489 341.544 301.41 341.544C298.33 341.544 296.806 342.704 293.131 345.508C289.832 348.023 287.059 349.19 284.413 349.19C282.23 349.19 279.934 348.368 277.394 346.681L277.162 346.524C276.171 345.872 275.236 345.251 274.515 344.542C272.439 342.51 269.987 341.519 267.02 341.519L267.014 341.513ZM253.535 367.843H160.715V107.721H294.856V126.236C294.856 129.757 294.855 133.278 294.854 136.798C294.853 143.84 294.851 150.881 294.856 157.923C294.856 163.379 295.671 164.207 301.059 164.207H319.831H351.348V367.749H315.773L315.535 365.503C315.523 365.382 315.506 365.259 315.489 365.133L315.474 365.02C315.469 364.98 315.464 364.941 315.459 364.901L315.441 364.76L315.441 364.76C315.369 364.218 315.29 363.615 315.29 362.963C315.284 361.628 315.32 360.282 315.355 358.973L315.365 358.585C315.447 355.631 315.522 352.84 315.202 350.112C314.344 342.85 316.558 336.458 318.701 330.274L318.701 330.274L318.708 330.254C318.789 330.02 318.87 329.786 318.951 329.552C319.142 329.001 319.333 328.45 319.517 327.896C319.95 326.616 320.903 325.362 322.346 324.158C323.161 323.475 324.017 322.938 324.847 322.418L324.943 322.358C325.457 322.038 325.94 321.73 326.385 321.417C331.917 317.49 333.354 313.326 331.196 307.493C329.139 301.929 329.12 297.037 331.139 291.631C333.46 285.428 331.936 281.194 326.053 277.462C321.719 274.715 319.254 271.353 318.068 266.574C316.469 260.132 313.088 257.385 306.76 257.385C306.365 257.385 305.963 257.398 305.549 257.417C305.135 257.435 304.728 257.448 304.326 257.448C299.873 257.448 296.298 256.162 292.717 253.283C289.719 250.862 287.022 249.689 284.413 249.689C281.803 249.689 279.069 250.881 276.046 253.333C272.59 256.137 268.989 257.442 264.718 257.442C264.317 257.442 263.909 257.435 263.495 257.41C263.05 257.385 262.611 257.373 262.184 257.373C255.712 257.373 252.375 260.157 250.662 266.981C249.521 271.504 247.225 274.64 243.199 277.161C236.789 281.175 235.34 285.509 238.012 292.634C239.768 297.307 239.755 301.685 237.987 306.42C235.453 313.207 236.657 317.541 242.026 320.921C247.257 324.214 250.198 328.379 251.271 334.011C251.39 334.632 251.735 335.372 252.105 336.15L252.116 336.173C252.709 337.428 253.379 338.844 253.428 340.49C253.61 346.518 253.585 352.658 253.554 358.598C253.552 359.341 253.549 360.085 253.546 360.83C253.541 362.328 253.535 363.83 253.535 365.334V367.843ZM267.183 333.936C271.981 333.936 276.052 335.598 279.614 339.016C281.164 340.503 282.725 341.23 284.381 341.23C285.987 341.23 287.549 340.54 289.142 339.123C293.137 335.573 296.474 333.992 299.967 333.992C300.507 333.992 301.052 334.03 301.598 334.112L301.774 334.137H301.949C302.382 334.137 302.79 334.124 303.185 334.112L303.292 334.109C303.361 334.108 303.429 334.106 303.496 334.104L303.515 334.103L303.517 334.103C303.717 334.098 303.912 334.093 304.107 334.093C304.464 334.093 304.747 334.105 304.991 334.137C305.324 334.174 305.65 334.199 305.957 334.199C308.704 334.199 310.561 332.569 311.063 329.721C312.173 323.361 315.522 318.783 321.299 315.709C324.259 314.135 325.118 311.45 323.669 308.333C320.897 302.4 320.91 296.579 323.707 290.533C325.112 287.491 324.215 284.826 321.236 283.22C315.509 280.121 312.204 275.618 311.132 269.459C310.611 266.467 308.711 264.749 305.919 264.749C305.574 264.749 305.211 264.774 304.834 264.83C303.787 264.981 302.752 265.056 301.755 265.056C296.875 265.056 292.654 263.293 288.859 259.674C287.442 258.326 285.943 257.642 284.4 257.642C282.857 257.642 281.377 258.32 279.997 259.649C276.221 263.287 272.006 265.062 267.12 265.062C266.129 265.062 265.095 264.987 264.047 264.836C263.664 264.78 263.288 264.755 262.931 264.755C260.127 264.755 258.227 266.455 257.712 269.415C256.627 275.656 253.341 280.165 247.658 283.189C245.864 284.142 243.155 286.406 245.218 290.815C247.947 296.655 247.934 302.381 245.174 308.314C243.694 311.501 244.616 314.185 247.784 315.879C253.378 318.877 256.608 323.298 257.65 329.414C258.176 332.506 260.133 334.212 263.163 334.212C263.564 334.212 263.984 334.187 264.449 334.124C265.377 334.005 266.299 333.948 267.183 333.948V333.936ZM302.658 156.53H344.7L302.658 114.482V156.524V156.53ZM231.852 195.806C217.91 195.806 203.967 195.806 190.018 195.8H189.541C188.5 195.8 187.578 195.787 186.769 195.63C184.906 195.26 183.633 193.755 183.677 191.968C183.721 190.149 185.044 188.725 186.963 188.418C187.496 188.33 188.092 188.317 188.82 188.317H189.667H244.854C270.896 188.317 296.932 188.317 322.973 188.33C324.196 188.33 325.375 188.355 326.366 188.612C328.047 189.051 329.019 190.362 328.957 192.118C328.894 193.962 328.085 195.003 326.335 195.499C325.338 195.781 324.09 195.806 322.998 195.806C308.999 195.819 294.993 195.825 281 195.825H231.859L231.852 195.806ZM183.67 223.704C183.689 224.977 183.733 227.354 189.961 227.354H213.482H244.083H297.584C300.35 227.348 302.282 226.865 303.185 225.95C303.517 225.611 303.95 225.002 303.925 223.56L303.925 223.555C303.9 222.355 303.847 219.853 297.665 219.853H243.851H190.043C187.321 219.853 185.383 220.361 184.442 221.321C183.902 221.873 183.652 222.65 183.67 223.704ZM227.355 164.207H189.867C183.691 164.207 183.677 161.593 183.67 160.467L183.67 160.463C183.67 159.422 183.921 158.656 184.461 158.117C185.376 157.195 187.233 156.706 189.823 156.706C192.467 156.706 195.112 156.704 197.757 156.703C200.403 156.701 203.048 156.7 205.692 156.7H249.508C254.833 156.7 260.158 156.7 265.483 156.706C271.68 156.706 271.693 159.222 271.699 160.434L271.699 160.438C271.699 161.46 271.442 162.225 270.902 162.771C269.98 163.699 268.074 164.207 265.534 164.207C259.175 164.207 252.815 164.209 246.455 164.21H246.452C240.089 164.212 233.725 164.213 227.362 164.213L227.355 164.207ZM321.637 223.667C321.656 225.617 323.356 227.26 325.344 227.26H325.35H325.375C326.354 227.254 327.269 226.872 327.941 226.188C328.612 225.498 328.975 224.582 328.969 223.598C328.95 221.609 327.326 219.991 325.3 219.991C323.331 220.016 321.618 221.735 321.637 223.667Z"/>
</mask>
<path fill-rule="evenodd" clip-rule="evenodd" d="M310.222 415.536L305.888 412.776L305.498 412.528C299.492 408.703 293.286 404.753 287.135 400.934C286.15 400.326 285.002 400.232 284.413 400.232C283.698 400.232 282.656 400.351 281.747 400.915C275.565 404.76 269.329 408.737 263.292 412.587L263.291 412.588L262.937 412.814L258.684 415.523H256.232C254.231 414.476 253.46 412.901 253.497 410.06C253.592 403.349 253.573 396.531 253.554 389.939C253.548 387.249 253.541 384.552 253.541 381.861V375.47H159.266C153.822 375.47 153 374.654 153 369.229V106.354C153 100.872 153.815 100.05 159.209 100.05H210.829C238.012 100.05 267.214 100.05 296.599 100C299.108 100 300.833 100.709 302.57 102.459C320.515 120.51 338.691 138.68 356.585 156.455C358.304 158.161 359 159.892 359 162.439C358.95 218.774 358.95 276.051 358.95 331.446V369.31C358.95 374.673 358.122 375.476 352.628 375.482H315.277V381.516C315.277 384.232 315.271 386.954 315.259 389.67C315.234 396.343 315.208 403.242 315.334 410.041C315.384 412.857 314.619 414.444 312.637 415.536H310.222ZM267.014 341.513C265.866 341.513 264.624 341.663 263.219 341.97L261.25 342.403V404.804L265.088 402.408C266.548 401.498 267.988 400.624 269.406 399.763L269.412 399.759L269.811 399.517C273.38 397.353 276.748 395.308 280.028 392.994C281.647 391.852 283.089 391.294 284.431 391.294C285.774 391.294 287.216 391.852 288.834 392.994C292.115 395.308 295.483 397.353 299.052 399.517C300.594 400.451 302.162 401.405 303.756 402.402L307.594 404.798V342.152L305.38 341.889C303.699 341.688 302.489 341.544 301.41 341.544C298.33 341.544 296.806 342.704 293.131 345.508C289.832 348.023 287.059 349.19 284.413 349.19C282.23 349.19 279.934 348.368 277.394 346.681L277.162 346.524C276.171 345.872 275.236 345.251 274.515 344.542C272.439 342.51 269.987 341.519 267.02 341.519L267.014 341.513ZM253.535 367.843H160.715V107.721H294.856V126.236C294.856 129.757 294.855 133.278 294.854 136.798C294.853 143.84 294.851 150.881 294.856 157.923C294.856 163.379 295.671 164.207 301.059 164.207H319.831H351.348V367.749H315.773L315.535 365.503C315.523 365.382 315.506 365.259 315.489 365.133L315.474 365.02C315.469 364.98 315.464 364.941 315.459 364.901L315.441 364.76L315.441 364.76C315.369 364.218 315.29 363.615 315.29 362.963C315.284 361.628 315.32 360.282 315.355 358.973L315.365 358.585C315.447 355.631 315.522 352.84 315.202 350.112C314.344 342.85 316.558 336.458 318.701 330.274L318.701 330.274L318.708 330.254C318.789 330.02 318.87 329.786 318.951 329.552C319.142 329.001 319.333 328.45 319.517 327.896C319.95 326.616 320.903 325.362 322.346 324.158C323.161 323.475 324.017 322.938 324.847 322.418L324.943 322.358C325.457 322.038 325.94 321.73 326.385 321.417C331.917 317.49 333.354 313.326 331.196 307.493C329.139 301.929 329.12 297.037 331.139 291.631C333.46 285.428 331.936 281.194 326.053 277.462C321.719 274.715 319.254 271.353 318.068 266.574C316.469 260.132 313.088 257.385 306.76 257.385C306.365 257.385 305.963 257.398 305.549 257.417C305.135 257.435 304.728 257.448 304.326 257.448C299.873 257.448 296.298 256.162 292.717 253.283C289.719 250.862 287.022 249.689 284.413 249.689C281.803 249.689 279.069 250.881 276.046 253.333C272.59 256.137 268.989 257.442 264.718 257.442C264.317 257.442 263.909 257.435 263.495 257.41C263.05 257.385 262.611 257.373 262.184 257.373C255.712 257.373 252.375 260.157 250.662 266.981C249.521 271.504 247.225 274.64 243.199 277.161C236.789 281.175 235.34 285.509 238.012 292.634C239.768 297.307 239.755 301.685 237.987 306.42C235.453 313.207 236.657 317.541 242.026 320.921C247.257 324.214 250.198 328.379 251.271 334.011C251.39 334.632 251.735 335.372 252.105 336.15L252.116 336.173C252.709 337.428 253.379 338.844 253.428 340.49C253.61 346.518 253.585 352.658 253.554 358.598C253.552 359.341 253.549 360.085 253.546 360.83C253.541 362.328 253.535 363.83 253.535 365.334V367.843ZM267.183 333.936C271.981 333.936 276.052 335.598 279.614 339.016C281.164 340.503 282.725 341.23 284.381 341.23C285.987 341.23 287.549 340.54 289.142 339.123C293.137 335.573 296.474 333.992 299.967 333.992C300.507 333.992 301.052 334.03 301.598 334.112L301.774 334.137H301.949C302.382 334.137 302.79 334.124 303.185 334.112L303.292 334.109C303.361 334.108 303.429 334.106 303.496 334.104L303.515 334.103L303.517 334.103C303.717 334.098 303.912 334.093 304.107 334.093C304.464 334.093 304.747 334.105 304.991 334.137C305.324 334.174 305.65 334.199 305.957 334.199C308.704 334.199 310.561 332.569 311.063 329.721C312.173 323.361 315.522 318.783 321.299 315.709C324.259 314.135 325.118 311.45 323.669 308.333C320.897 302.4 320.91 296.579 323.707 290.533C325.112 287.491 324.215 284.826 321.236 283.22C315.509 280.121 312.204 275.618 311.132 269.459C310.611 266.467 308.711 264.749 305.919 264.749C305.574 264.749 305.211 264.774 304.834 264.83C303.787 264.981 302.752 265.056 301.755 265.056C296.875 265.056 292.654 263.293 288.859 259.674C287.442 258.326 285.943 257.642 284.4 257.642C282.857 257.642 281.377 258.32 279.997 259.649C276.221 263.287 272.006 265.062 267.12 265.062C266.129 265.062 265.095 264.987 264.047 264.836C263.664 264.78 263.288 264.755 262.931 264.755C260.127 264.755 258.227 266.455 257.712 269.415C256.627 275.656 253.341 280.165 247.658 283.189C245.864 284.142 243.155 286.406 245.218 290.815C247.947 296.655 247.934 302.381 245.174 308.314C243.694 311.501 244.616 314.185 247.784 315.879C253.378 318.877 256.608 323.298 257.65 329.414C258.176 332.506 260.133 334.212 263.163 334.212C263.564 334.212 263.984 334.187 264.449 334.124C265.377 334.005 266.299 333.948 267.183 333.948V333.936ZM302.658 156.53H344.7L302.658 114.482V156.524V156.53ZM231.852 195.806C217.91 195.806 203.967 195.806 190.018 195.8H189.541C188.5 195.8 187.578 195.787 186.769 195.63C184.906 195.26 183.633 193.755 183.677 191.968C183.721 190.149 185.044 188.725 186.963 188.418C187.496 188.33 188.092 188.317 188.82 188.317H189.667H244.854C270.896 188.317 296.932 188.317 322.973 188.33C324.196 188.33 325.375 188.355 326.366 188.612C328.047 189.051 329.019 190.362 328.957 192.118C328.894 193.962 328.085 195.003 326.335 195.499C325.338 195.781 324.09 195.806 322.998 195.806C308.999 195.819 294.993 195.825 281 195.825H231.859L231.852 195.806ZM183.67 223.704C183.689 224.977 183.733 227.354 189.961 227.354H213.482H244.083H297.584C300.35 227.348 302.282 226.865 303.185 225.95C303.517 225.611 303.95 225.002 303.925 223.56L303.925 223.555C303.9 222.355 303.847 219.853 297.665 219.853H243.851H190.043C187.321 219.853 185.383 220.361 184.442 221.321C183.902 221.873 183.652 222.65 183.67 223.704ZM227.355 164.207H189.867C183.691 164.207 183.677 161.593 183.67 160.467L183.67 160.463C183.67 159.422 183.921 158.656 184.461 158.117C185.376 157.195 187.233 156.706 189.823 156.706C192.467 156.706 195.112 156.704 197.757 156.703C200.403 156.701 203.048 156.7 205.692 156.7H249.508C254.833 156.7 260.158 156.7 265.483 156.706C271.68 156.706 271.693 159.222 271.699 160.434L271.699 160.438C271.699 161.46 271.442 162.225 270.902 162.771C269.98 163.699 268.074 164.207 265.534 164.207C259.175 164.207 252.815 164.209 246.455 164.21H246.452C240.089 164.212 233.725 164.213 227.362 164.213L227.355 164.207ZM321.637 223.667C321.656 225.617 323.356 227.26 325.344 227.26H325.35H325.375C326.354 227.254 327.269 226.872 327.941 226.188C328.612 225.498 328.975 224.582 328.969 223.598C328.95 221.609 327.326 219.991 325.3 219.991C323.331 220.016 321.618 221.735 321.637 223.667Z" fill="white"/>
<path d="M305.888 412.776L306.165 412.341L306.165 412.341L305.888 412.776ZM310.222 415.536L309.945 415.97L310.072 416.051H310.222V415.536ZM305.498 412.528L305.222 412.962L305.222 412.962L305.498 412.528ZM287.135 400.934L287.406 400.497L287.405 400.496L287.135 400.934ZM281.747 400.915L281.475 400.478L281.475 400.478L281.747 400.915ZM263.292 412.587L263.561 413.026L263.569 413.021L263.292 412.587ZM263.291 412.588L263.022 412.148L263.014 412.154L263.291 412.588ZM262.937 412.814L263.214 413.248L263.214 413.248L262.937 412.814ZM258.684 415.523V416.038H258.835L258.961 415.957L258.684 415.523ZM256.232 415.523L255.993 415.979L256.105 416.038H256.232V415.523ZM253.497 410.06L252.983 410.053L252.983 410.053L253.497 410.06ZM253.554 389.939L253.039 389.94L253.039 389.941L253.554 389.939ZM253.541 375.47H254.056V374.955H253.541V375.47ZM296.599 100L296.599 99.485L296.598 99.485L296.599 100ZM302.57 102.459L302.205 102.822L302.205 102.822L302.57 102.459ZM356.585 156.455L356.222 156.82L356.222 156.82L356.585 156.455ZM359 162.439L359.515 162.439V162.439H359ZM352.628 375.482L352.628 375.997L352.628 375.997L352.628 375.482ZM315.277 375.482V374.967H314.762V375.482H315.277ZM315.259 389.67L314.744 389.667L314.744 389.668L315.259 389.67ZM315.334 410.041L315.849 410.032L315.849 410.032L315.334 410.041ZM312.637 415.536V416.051H312.769L312.885 415.987L312.637 415.536ZM263.219 341.97L263.109 341.467L263.109 341.467L263.219 341.97ZM267.014 341.513L267.378 341.149L267.227 340.998H267.014V341.513ZM261.25 342.403L261.139 341.9L260.735 341.989V342.403H261.25ZM261.25 404.804H260.735V405.733L261.522 405.241L261.25 404.804ZM265.088 402.408L264.816 401.971L264.816 401.971L265.088 402.408ZM269.406 399.763L269.673 400.203L269.674 400.203L269.406 399.763ZM269.412 399.759L269.145 399.319L269.145 399.319L269.412 399.759ZM269.811 399.517L269.544 399.076L269.544 399.077L269.811 399.517ZM280.028 392.994L279.731 392.573L279.731 392.573L280.028 392.994ZM288.834 392.994L289.131 392.573L289.131 392.573L288.834 392.994ZM299.052 399.517L298.785 399.957L298.785 399.957L299.052 399.517ZM303.756 402.402L303.482 402.838L303.483 402.839L303.756 402.402ZM307.594 404.798L307.321 405.235L308.109 405.726V404.798H307.594ZM307.594 342.152H308.109V341.695L307.655 341.641L307.594 342.152ZM305.38 341.889L305.319 342.4L305.319 342.4L305.38 341.889ZM293.131 345.508L293.443 345.917L293.443 345.917L293.131 345.508ZM277.394 346.681L277.106 347.107L277.109 347.11L277.394 346.681ZM277.162 346.524L277.45 346.097L277.445 346.094L277.162 346.524ZM274.515 344.542L274.876 344.175L274.875 344.174L274.515 344.542ZM267.02 341.519L266.655 341.883L266.806 342.034H267.02V341.519ZM160.715 367.843H160.2V368.358H160.715V367.843ZM253.535 367.843V368.358H254.05V367.843H253.535ZM160.715 107.721V107.206H160.2V107.721H160.715ZM294.856 107.721H295.371V107.206H294.856V107.721ZM294.854 136.798L294.339 136.798L294.339 136.798L294.854 136.798ZM294.856 157.923L295.371 157.923L295.371 157.922L294.856 157.923ZM351.348 164.207H351.863V163.692H351.348V164.207ZM351.348 367.749V368.264H351.863V367.749H351.348ZM315.773 367.749L315.261 367.803L315.31 368.264H315.773V367.749ZM315.535 365.503L315.022 365.553L315.022 365.558L315.535 365.503ZM315.489 365.133L314.979 365.201L314.979 365.202L315.489 365.133ZM315.474 365.02L314.964 365.087L314.964 365.088L315.474 365.02ZM315.459 364.901L315.971 364.839L315.97 364.834L315.459 364.901ZM315.441 364.76L314.93 364.824L314.93 364.827L315.441 364.76ZM315.441 364.76L315.952 364.696L315.951 364.693L315.441 364.76ZM315.29 362.963H315.805L315.805 362.961L315.29 362.963ZM315.355 358.973L315.87 358.987L315.87 358.986L315.355 358.973ZM315.365 358.585L314.85 358.571L314.85 358.571L315.365 358.585ZM315.202 350.112L315.714 350.052L315.714 350.051L315.202 350.112ZM318.701 330.274L319.188 330.442L319.19 330.437L318.701 330.274ZM318.701 330.274L318.215 330.105L318.213 330.111L318.701 330.274ZM318.708 330.254L319.195 330.423L319.195 330.422L318.708 330.254ZM318.951 329.552L319.438 329.72L319.438 329.72L318.951 329.552ZM319.517 327.896L319.029 327.731L319.029 327.733L319.517 327.896ZM322.346 324.158L322.676 324.553L322.677 324.553L322.346 324.158ZM324.847 322.418L325.12 322.854L325.12 322.854L324.847 322.418ZM324.943 322.358L324.671 321.92L324.669 321.921L324.943 322.358ZM326.385 321.417L326.682 321.838L326.683 321.837L326.385 321.417ZM331.196 307.493L330.713 307.671L330.713 307.671L331.196 307.493ZM331.139 291.631L330.657 291.45L330.657 291.451L331.139 291.631ZM326.053 277.462L326.329 277.027L326.329 277.027L326.053 277.462ZM318.068 266.574L318.568 266.45L318.568 266.45L318.068 266.574ZM292.717 253.283L292.393 253.684L292.394 253.685L292.717 253.283ZM276.046 253.333L275.721 252.933L275.721 252.933L276.046 253.333ZM263.495 257.41L263.526 256.896L263.524 256.896L263.495 257.41ZM250.662 266.981L251.162 267.108L251.162 267.107L250.662 266.981ZM243.199 277.161L242.925 276.725L242.925 276.725L243.199 277.161ZM238.012 292.634L237.529 292.815L237.53 292.815L238.012 292.634ZM237.987 306.42L237.504 306.24L237.504 306.24L237.987 306.42ZM242.026 320.921L241.751 321.357L241.751 321.357L242.026 320.921ZM251.271 334.011L250.765 334.107L250.765 334.108L251.271 334.011ZM252.105 336.15L252.571 335.93L252.57 335.929L252.105 336.15ZM252.116 336.173L251.65 336.393L251.65 336.393L252.116 336.173ZM253.428 340.49L253.943 340.475L253.943 340.475L253.428 340.49ZM253.554 358.598L253.039 358.595L253.039 358.596L253.554 358.598ZM253.546 360.83L254.061 360.832L254.061 360.832L253.546 360.83ZM279.614 339.016L279.971 338.645L279.971 338.645L279.614 339.016ZM267.183 333.936V333.421H266.668V333.936H267.183ZM289.142 339.123L288.8 338.738L288.799 338.738L289.142 339.123ZM301.598 334.112L301.522 334.621L301.525 334.621L301.598 334.112ZM301.774 334.137L301.701 334.646L301.737 334.652H301.774V334.137ZM303.185 334.112L303.174 333.597L303.169 333.597L303.185 334.112ZM303.292 334.109L303.303 334.624L303.304 334.624L303.292 334.109ZM303.496 334.104L303.483 333.589L303.482 333.589L303.496 334.104ZM303.515 334.103L303.503 333.589L303.502 333.589L303.515 334.103ZM303.517 334.103L303.53 334.618L303.531 334.618L303.517 334.103ZM304.991 334.137L304.926 334.647L304.933 334.648L304.991 334.137ZM311.063 329.721L311.57 329.81L311.57 329.81L311.063 329.721ZM321.299 315.709L321.057 315.255L321.057 315.255L321.299 315.709ZM323.669 308.333L324.136 308.116L324.136 308.115L323.669 308.333ZM323.707 290.533L324.174 290.749L324.175 290.749L323.707 290.533ZM321.236 283.22L320.991 283.673L320.992 283.673L321.236 283.22ZM311.132 269.459L310.624 269.547L310.624 269.547L311.132 269.459ZM304.834 264.83L304.908 265.34L304.911 265.339L304.834 264.83ZM288.859 259.674L289.215 259.302L289.214 259.301L288.859 259.674ZM279.997 259.649L280.354 260.02L280.354 260.02L279.997 259.649ZM264.047 264.836L263.972 265.346L263.974 265.346L264.047 264.836ZM257.712 269.415L258.22 269.503L258.22 269.503L257.712 269.415ZM247.658 283.189L247.9 283.643L247.9 283.643L247.658 283.189ZM245.218 290.815L245.685 290.597L245.685 290.597L245.218 290.815ZM245.174 308.314L244.707 308.097L244.707 308.097L245.174 308.314ZM247.784 315.879L248.027 315.425L248.026 315.424L247.784 315.879ZM257.65 329.414L257.142 329.5L257.142 329.5L257.65 329.414ZM264.449 334.124L264.383 333.613L264.38 333.614L264.449 334.124ZM267.183 333.948V334.463H267.698V333.948H267.183ZM344.7 156.53V157.045H345.943L345.064 156.166L344.7 156.53ZM302.658 156.53H302.143V157.045H302.658V156.53ZM302.658 114.482L303.022 114.118L302.143 113.239V114.482H302.658ZM190.018 195.8L190.018 195.285H190.018V195.8ZM231.852 195.806L232.341 195.643L232.224 195.291H231.852V195.806ZM186.769 195.63L186.668 196.136L186.671 196.136L186.769 195.63ZM183.677 191.968L184.192 191.98L184.192 191.98L183.677 191.968ZM186.963 188.418L187.045 188.926L187.047 188.926L186.963 188.418ZM322.973 188.33L322.973 188.845H322.973V188.33ZM326.366 188.612L326.497 188.114L326.496 188.114L326.366 188.612ZM328.957 192.118L328.442 192.1L328.442 192.101L328.957 192.118ZM326.335 195.499L326.475 195.994L326.475 195.994L326.335 195.499ZM322.998 195.806V195.291L322.998 195.291L322.998 195.806ZM231.859 195.825L231.37 195.988L231.488 196.34H231.859V195.825ZM183.67 223.704L184.185 223.696L184.185 223.695L183.67 223.704ZM297.584 227.354L297.584 227.869L297.585 227.869L297.584 227.354ZM303.185 225.95L303.551 226.311L303.552 226.31L303.185 225.95ZM303.925 223.56L304.44 223.551L304.44 223.55L303.925 223.56ZM303.925 223.555L304.44 223.545L304.44 223.544L303.925 223.555ZM184.442 221.321L184.074 220.96L184.074 220.961L184.442 221.321ZM227.355 164.207L227.72 163.843L227.569 163.692H227.355V164.207ZM183.67 160.467L183.155 160.47L183.155 160.47L183.67 160.467ZM183.67 160.463H183.155L183.155 160.465L183.67 160.463ZM184.461 158.117L184.825 158.481L184.826 158.48L184.461 158.117ZM197.757 156.703L197.757 156.188L197.757 156.188L197.757 156.703ZM265.483 156.706L265.483 157.221H265.483V156.706ZM271.699 160.434L271.184 160.436L271.184 160.437L271.699 160.434ZM271.699 160.438H272.214L272.214 160.435L271.699 160.438ZM270.902 162.771L271.268 163.134L271.269 163.133L270.902 162.771ZM246.455 164.21L246.455 164.725L246.455 164.725L246.455 164.21ZM246.452 164.21L246.452 163.695L246.452 163.695L246.452 164.21ZM227.362 164.213L226.997 164.577L227.148 164.728H227.362V164.213ZM321.637 223.667L322.152 223.662L322.152 223.662L321.637 223.667ZM325.375 227.26V227.775L325.379 227.775L325.375 227.26ZM327.941 226.188L328.308 226.549L328.31 226.547L327.941 226.188ZM328.969 223.598L329.484 223.594L329.484 223.593L328.969 223.598ZM325.3 219.991V219.476L325.293 219.476L325.3 219.991ZM305.611 413.21L309.945 415.97L310.499 415.101L306.165 412.341L305.611 413.21ZM305.222 412.962L305.612 413.21L306.165 412.341L305.775 412.093L305.222 412.962ZM286.863 401.372C293.012 405.188 299.215 409.138 305.222 412.962L305.775 412.093C299.769 408.269 293.561 404.317 287.406 400.497L286.863 401.372ZM284.413 400.747C284.966 400.747 285.999 400.838 286.864 401.372L287.405 400.496C286.3 399.813 285.038 399.717 284.413 399.717V400.747ZM282.018 401.353C282.812 400.861 283.742 400.747 284.413 400.747V399.717C283.653 399.717 282.501 399.841 281.475 400.478L282.018 401.353ZM263.569 413.021C269.606 409.171 275.84 405.195 282.019 401.353L281.475 400.478C275.29 404.324 269.051 408.303 263.015 412.153L263.569 413.021ZM263.559 413.027L263.561 413.026L263.024 412.147L263.022 412.148L263.559 413.027ZM263.214 413.248L263.568 413.022L263.014 412.154L262.66 412.379L263.214 413.248ZM258.961 415.957L263.214 413.248L262.66 412.379L258.408 415.089L258.961 415.957ZM256.232 416.038H258.684V415.008H256.232V416.038ZM252.983 410.053C252.963 411.515 253.15 412.712 253.639 413.694C254.135 414.689 254.917 415.416 255.993 415.979L256.471 415.067C255.547 414.583 254.942 413.999 254.561 413.235C254.174 412.458 253.994 411.446 254.012 410.067L252.983 410.053ZM253.039 389.941C253.058 396.533 253.077 403.347 252.983 410.053L254.012 410.067C254.107 403.351 254.088 396.529 254.069 389.938L253.039 389.941ZM253.026 381.861C253.026 384.552 253.033 387.25 253.039 389.94L254.069 389.938C254.063 387.247 254.056 384.551 254.056 381.861H253.026ZM253.026 375.47V381.861H254.056V375.47H253.026ZM159.266 375.985H253.541V374.955H159.266V375.985ZM152.485 369.229C152.485 370.59 152.536 371.7 152.708 372.59C152.881 373.486 153.185 374.208 153.728 374.749C154.271 375.289 154.995 375.591 155.893 375.763C156.787 375.934 157.9 375.985 159.266 375.985V374.955C157.91 374.955 156.879 374.903 156.087 374.752C155.3 374.601 154.798 374.361 154.455 374.019C154.112 373.677 153.87 373.178 153.719 372.395C153.567 371.607 153.515 370.58 153.515 369.229H152.485ZM152.485 106.354V369.229H153.515V106.354H152.485ZM159.209 99.5352C157.856 99.5352 156.752 99.586 155.865 99.7587C154.973 99.9326 154.253 100.239 153.715 100.785C153.178 101.33 152.877 102.057 152.706 102.96C152.535 103.858 152.485 104.978 152.485 106.354H153.515C153.515 104.988 153.566 103.95 153.718 103.152C153.868 102.359 154.108 101.853 154.449 101.508C154.788 101.163 155.284 100.921 156.062 100.77C156.845 100.617 157.866 100.565 159.209 100.565V99.5352ZM210.829 99.5352H159.209V100.565H210.829V99.5352ZM296.598 99.485C267.214 99.5352 238.012 99.5352 210.829 99.5352V100.565C238.012 100.565 267.215 100.565 296.6 100.515L296.598 99.485ZM302.936 102.096C302.03 101.184 301.109 100.525 300.07 100.097C299.031 99.6694 297.903 99.485 296.599 99.485V100.515C297.804 100.515 298.793 100.685 299.678 101.049C300.563 101.414 301.373 101.984 302.205 102.822L302.936 102.096ZM356.948 156.09C339.055 138.315 320.879 120.146 302.935 102.096L302.205 102.822C320.15 120.874 338.327 139.044 356.222 156.82L356.948 156.09ZM359.515 162.439C359.515 161.118 359.334 159.98 358.915 158.939C358.495 157.897 357.846 156.981 356.948 156.089L356.222 156.82C357.043 157.635 357.602 158.438 357.959 159.324C358.318 160.212 358.485 161.213 358.485 162.439H359.515ZM359.465 331.446C359.465 276.051 359.465 218.774 359.515 162.439L358.485 162.438C358.435 218.774 358.435 276.051 358.435 331.446H359.465ZM359.465 369.31V331.446H358.435V369.31H359.465ZM352.628 375.997C354.006 375.996 355.129 375.945 356.029 375.775C356.933 375.605 357.662 375.307 358.209 374.774C358.757 374.239 359.065 373.524 359.24 372.636C359.414 371.754 359.465 370.656 359.465 369.31H358.435C358.435 370.646 358.383 371.659 358.229 372.437C358.077 373.208 357.835 373.699 357.489 374.036C357.143 374.375 356.634 374.613 355.838 374.763C355.038 374.914 353.996 374.966 352.627 374.967L352.628 375.997ZM315.277 375.997H352.628V374.967H315.277V375.997ZM315.792 381.516V375.482H314.762V381.516H315.792ZM315.774 389.672C315.786 386.955 315.792 384.232 315.792 381.516H314.762C314.762 384.231 314.756 386.952 314.744 389.667L315.774 389.672ZM315.849 410.032C315.723 403.239 315.748 396.346 315.774 389.671L314.744 389.668C314.719 396.34 314.693 403.245 314.819 410.051L315.849 410.032ZM312.885 415.987C313.95 415.401 314.722 414.66 315.21 413.661C315.693 412.675 315.875 411.483 315.849 410.032L314.819 410.05C314.843 411.416 314.668 412.425 314.285 413.209C313.907 413.981 313.306 414.579 312.388 415.084L312.885 415.987ZM310.222 416.051H312.637V415.021H310.222V416.051ZM263.329 342.474C264.707 342.172 265.911 342.028 267.014 342.028V340.998C265.821 340.998 264.541 341.154 263.109 341.467L263.329 342.474ZM261.36 342.906L263.33 342.473L263.109 341.467L261.139 341.9L261.36 342.906ZM261.765 404.804V342.403H260.735V404.804H261.765ZM264.816 401.971L260.977 404.367L261.522 405.241L265.361 402.845L264.816 401.971ZM269.139 399.322C267.721 400.183 266.279 401.059 264.816 401.971L265.361 402.845C266.818 401.937 268.255 401.064 269.673 400.203L269.139 399.322ZM269.145 399.319L269.139 399.323L269.674 400.203L269.68 400.199L269.145 399.319ZM269.544 399.077L269.145 399.319L269.679 400.199L270.078 399.957L269.544 399.077ZM279.731 392.573C276.468 394.875 273.115 396.911 269.544 399.076L270.078 399.957C273.645 397.795 277.028 395.741 280.325 393.415L279.731 392.573ZM284.431 390.779C282.943 390.779 281.397 391.398 279.731 392.573L280.325 393.415C281.896 392.306 283.235 391.809 284.431 391.809V390.779ZM289.131 392.573C287.466 391.398 285.92 390.779 284.431 390.779V391.809C285.627 391.809 286.966 392.306 288.537 393.415L289.131 392.573ZM299.319 399.076C295.747 396.911 292.395 394.875 289.131 392.573L288.537 393.415C291.835 395.741 295.218 397.795 298.785 399.957L299.319 399.076ZM304.029 401.965C302.432 400.966 300.862 400.011 299.318 399.076L298.785 399.957C300.327 400.892 301.893 401.843 303.482 402.838L304.029 401.965ZM307.867 404.361L304.028 401.965L303.483 402.839L307.321 405.235L307.867 404.361ZM307.079 342.152V404.798H308.109V342.152H307.079ZM305.319 342.4L307.533 342.664L307.655 341.641L305.441 341.377L305.319 342.4ZM301.41 342.059C302.451 342.059 303.628 342.198 305.319 342.4L305.441 341.378C303.771 341.178 302.526 341.029 301.41 341.029V342.059ZM293.443 345.917C297.139 343.098 298.53 342.059 301.41 342.059V341.029C298.131 341.029 296.473 342.31 292.818 345.098L293.443 345.917ZM284.413 349.705C287.22 349.705 290.101 348.465 293.443 345.917L292.818 345.098C289.562 347.581 286.899 348.675 284.413 348.675V349.705ZM277.109 347.11C279.701 348.831 282.095 349.705 284.413 349.705V348.675C282.364 348.675 280.167 347.904 277.679 346.252L277.109 347.11ZM276.874 346.951L277.106 347.107L277.682 346.254L277.45 346.097L276.874 346.951ZM274.154 344.909C274.918 345.66 275.897 346.308 276.879 346.954L277.445 346.094C276.445 345.435 275.555 344.842 274.876 344.175L274.154 344.909ZM267.02 342.034C269.855 342.034 272.177 342.974 274.155 344.91L274.875 344.174C272.701 342.046 270.119 341.004 267.02 341.004V342.034ZM266.649 341.876L266.655 341.883L267.385 341.155L267.378 341.149L266.649 341.876ZM160.715 368.358H253.535V367.328H160.715V368.358ZM160.2 107.721V367.843H161.23V107.721H160.2ZM294.856 107.206H160.715V108.236H294.856V107.206ZM295.371 126.236V107.721H294.341V126.236H295.371ZM295.369 136.798C295.37 133.278 295.371 129.757 295.371 126.236H294.341C294.341 129.757 294.34 133.277 294.339 136.798L295.369 136.798ZM295.371 157.922C295.366 150.881 295.368 143.84 295.369 136.798L294.339 136.798C294.338 143.84 294.336 150.881 294.341 157.923L295.371 157.922ZM301.059 163.692C299.717 163.692 298.697 163.64 297.915 163.487C297.138 163.336 296.643 163.094 296.303 162.749C295.963 162.405 295.723 161.9 295.573 161.11C295.422 160.316 295.371 159.282 295.371 157.923H294.341C294.341 159.292 294.391 160.407 294.561 161.303C294.732 162.203 295.033 162.929 295.57 163.473C296.108 164.018 296.826 164.324 297.718 164.498C298.604 164.671 299.707 164.722 301.059 164.722V163.692ZM319.831 163.692H301.059V164.722H319.831V163.692ZM351.348 163.692H319.831V164.722H351.348V163.692ZM351.863 367.749V164.207H350.833V367.749H351.863ZM315.773 368.264H351.348V367.234H315.773V368.264ZM315.022 365.558L315.261 367.803L316.285 367.694L316.047 365.449L315.022 365.558ZM314.979 365.202C314.996 365.329 315.011 365.443 315.022 365.553L316.047 365.454C316.034 365.322 316.017 365.189 316 365.065L314.979 365.202ZM314.964 365.088L314.979 365.201L316 365.065L315.985 364.952L314.964 365.088ZM314.948 364.963C314.953 365.005 314.958 365.046 314.964 365.087L315.985 364.953C315.98 364.915 315.975 364.877 315.971 364.839L314.948 364.963ZM314.93 364.827L314.949 364.968L315.97 364.834L315.951 364.693L314.93 364.827ZM314.93 364.824L314.93 364.824L315.952 364.696L315.952 364.696L314.93 364.824ZM314.775 362.963C314.775 363.653 314.859 364.289 314.93 364.827L315.951 364.693C315.88 364.148 315.805 363.576 315.805 362.963H314.775ZM314.84 358.959C314.805 360.267 314.769 361.621 314.775 362.965L315.805 362.961C315.799 361.635 315.835 360.297 315.87 358.987L314.84 358.959ZM314.85 358.571L314.84 358.959L315.87 358.986L315.88 358.599L314.85 358.571ZM314.691 350.172C315.005 352.857 314.932 355.61 314.85 358.571L315.88 358.599C315.961 355.652 316.039 352.823 315.714 350.052L314.691 350.172ZM318.215 330.105C316.077 336.276 313.816 342.776 314.691 350.172L315.714 350.051C314.871 342.924 317.04 336.641 319.188 330.442L318.215 330.105ZM318.213 330.111L318.213 330.111L319.19 330.437L319.19 330.437L318.213 330.111ZM318.222 330.086L318.215 330.105L319.188 330.442L319.195 330.423L318.222 330.086ZM318.464 329.383C318.383 329.617 318.302 329.852 318.221 330.087L319.195 330.422C319.276 330.188 319.356 329.955 319.438 329.72L318.464 329.383ZM319.029 327.733C318.845 328.284 318.655 328.832 318.464 329.383L319.438 329.72C319.628 329.17 319.82 328.616 320.006 328.059L319.029 327.733ZM322.016 323.762C320.529 325.004 319.503 326.332 319.029 327.731L320.005 328.061C320.398 326.901 321.278 325.72 322.676 324.553L322.016 323.762ZM324.573 321.982C323.747 322.5 322.862 323.054 322.015 323.763L322.677 324.553C323.461 323.896 324.287 323.377 325.12 322.854L324.573 321.982ZM324.669 321.921L324.573 321.982L325.12 322.854L325.216 322.794L324.669 321.921ZM326.089 320.996C325.656 321.3 325.183 321.601 324.671 321.92L325.215 322.795C325.731 322.474 326.224 322.16 326.682 321.838L326.089 320.996ZM330.713 307.671C331.765 310.516 331.918 312.887 331.187 315.002C330.455 317.123 328.805 319.068 326.087 320.997L326.683 321.837C329.497 319.84 331.332 317.739 332.161 315.338C332.993 312.93 332.784 310.303 331.679 307.314L330.713 307.671ZM330.657 291.451C328.593 296.976 328.614 301.996 330.713 307.671L331.679 307.314C329.663 301.863 329.647 297.098 331.622 291.811L330.657 291.451ZM325.777 277.897C328.667 279.73 330.415 281.642 331.188 283.794C331.959 285.94 331.792 288.417 330.657 291.45L331.622 291.811C332.808 288.642 333.039 285.9 332.157 283.446C331.277 280.996 329.322 278.926 326.329 277.027L325.777 277.897ZM317.569 266.698C318.787 271.612 321.336 275.082 325.777 277.897L326.329 277.027C322.101 274.348 319.72 271.095 318.568 266.45L317.569 266.698ZM306.76 257.9C309.852 257.9 312.149 258.571 313.863 259.964C315.58 261.359 316.784 263.538 317.569 266.698L318.568 266.45C317.754 263.169 316.467 260.753 314.512 259.164C312.554 257.573 309.997 256.87 306.76 256.87V257.9ZM305.573 257.931C305.982 257.912 306.375 257.9 306.76 257.9V256.87C306.354 256.87 305.944 256.883 305.526 256.902L305.573 257.931ZM304.326 257.963C304.738 257.963 305.154 257.95 305.573 257.931L305.526 256.902C305.117 256.921 304.717 256.933 304.326 256.933V257.963ZM292.394 253.685C296.063 256.634 299.751 257.963 304.326 257.963V256.933C299.995 256.933 296.533 255.69 293.039 252.882L292.394 253.685ZM284.413 250.204C286.859 250.204 289.444 251.302 292.393 253.684L293.04 252.883C289.994 250.422 287.185 249.174 284.413 249.174V250.204ZM276.37 253.733C279.345 251.32 281.967 250.204 284.413 250.204V249.174C281.639 249.174 278.793 250.442 275.721 252.933L276.37 253.733ZM264.718 257.957C269.113 257.957 272.826 256.608 276.37 253.733L275.721 252.933C272.353 255.666 268.866 256.927 264.718 256.927V257.957ZM263.464 257.924C263.893 257.95 264.312 257.957 264.718 257.957V256.927C264.322 256.927 263.926 256.92 263.526 256.896L263.464 257.924ZM262.184 257.888C262.601 257.888 263.03 257.9 263.466 257.924L263.524 256.896C263.07 256.87 262.621 256.858 262.184 256.858V257.888ZM251.162 267.107C252.005 263.748 253.228 261.465 254.968 260.014C256.701 258.568 259.02 257.888 262.184 257.888V256.858C258.876 256.858 256.29 257.57 254.308 259.223C252.333 260.87 251.032 263.391 250.163 266.856L251.162 267.107ZM243.472 277.598C247.609 275.007 249.987 271.761 251.162 267.108L250.163 266.855C249.055 271.247 246.842 274.272 242.925 276.725L243.472 277.598ZM238.494 292.453C237.178 288.943 236.912 286.211 237.688 283.895C238.464 281.579 240.316 279.574 243.472 277.598L242.925 276.725C239.671 278.762 237.594 280.931 236.711 283.567C235.828 286.203 236.174 289.2 237.529 292.815L238.494 292.453ZM238.469 306.6C240.281 301.751 240.295 297.244 238.494 292.453L237.53 292.815C239.241 297.37 239.23 301.619 237.504 306.24L238.469 306.6ZM242.3 320.486C239.686 318.839 238.149 317.003 237.539 314.81C236.925 312.603 237.221 309.944 238.469 306.6L237.504 306.24C236.219 309.683 235.85 312.584 236.547 315.086C237.247 317.602 238.997 319.623 241.751 321.357L242.3 320.486ZM251.777 333.915C250.675 328.13 247.641 323.848 242.3 320.485L241.751 321.357C246.872 324.581 249.721 328.627 250.765 334.107L251.777 333.915ZM252.57 335.929C252.191 335.133 251.881 334.457 251.777 333.914L250.765 334.108C250.899 334.807 251.279 335.611 251.64 336.371L252.57 335.929ZM252.581 335.953L252.571 335.93L251.639 336.37L251.65 336.393L252.581 335.953ZM253.943 340.475C253.89 338.706 253.169 337.196 252.581 335.953L251.65 336.393C252.249 337.659 252.868 338.983 252.914 340.506L253.943 340.475ZM254.069 358.6C254.1 352.662 254.125 346.513 253.943 340.475L252.914 340.506C253.095 346.523 253.07 352.654 253.039 358.595L254.069 358.6ZM254.061 360.832C254.064 360.087 254.067 359.343 254.069 358.599L253.039 358.596C253.037 359.339 253.034 360.083 253.031 360.828L254.061 360.832ZM254.05 365.334C254.05 363.831 254.056 362.33 254.061 360.832L253.031 360.828C253.026 362.326 253.02 363.829 253.02 365.334H254.05ZM254.05 367.843V365.334H253.02V367.843H254.05ZM279.971 338.645C276.315 335.137 272.118 333.421 267.183 333.421V334.451C271.844 334.451 275.788 336.059 279.258 339.388L279.971 338.645ZM284.381 340.715C282.895 340.715 281.454 340.068 279.971 338.645L279.258 339.388C280.873 340.938 282.556 341.745 284.381 341.745V340.715ZM288.799 338.738C287.269 340.099 285.824 340.715 284.381 340.715V341.745C286.149 341.745 287.828 340.981 289.484 339.508L288.799 338.738ZM299.967 333.477C296.296 333.477 292.841 335.147 288.8 338.738L289.484 339.508C293.433 335.999 296.652 334.507 299.967 334.507V333.477ZM301.674 333.602C301.102 333.517 300.531 333.477 299.967 333.477V334.507C300.483 334.507 301.003 334.543 301.522 334.621L301.674 333.602ZM301.846 333.627L301.671 333.602L301.525 334.621L301.701 334.646L301.846 333.627ZM301.949 333.622H301.774V334.652H301.949V333.622ZM303.169 333.597C302.773 333.609 302.373 333.622 301.949 333.622V334.652C302.391 334.652 302.806 334.639 303.201 334.626L303.169 333.597ZM303.281 333.594L303.174 333.597L303.196 334.626L303.303 334.624L303.281 333.594ZM303.482 333.589C303.415 333.591 303.348 333.593 303.28 333.594L303.304 334.624C303.374 334.622 303.443 334.621 303.51 334.619L303.482 333.589ZM303.502 333.589L303.483 333.589L303.51 334.619L303.529 334.618L303.502 333.589ZM303.505 333.589L303.503 333.589L303.528 334.618L303.53 334.618L303.505 333.589ZM304.107 333.578C303.904 333.578 303.702 333.583 303.503 333.589L303.531 334.618C303.732 334.613 303.92 334.608 304.107 334.608V333.578ZM305.057 333.626C304.781 333.59 304.474 333.578 304.107 333.578V334.608C304.454 334.608 304.712 334.62 304.926 334.647L305.057 333.626ZM305.957 333.684C305.676 333.684 305.371 333.661 305.049 333.625L304.933 334.648C305.276 334.687 305.623 334.714 305.957 334.714V333.684ZM310.555 329.632C310.32 330.965 309.777 331.97 309.012 332.641C308.25 333.31 307.225 333.684 305.957 333.684V334.714C307.436 334.714 308.714 334.273 309.692 333.415C310.667 332.559 311.303 331.325 311.57 329.81L310.555 329.632ZM321.057 315.255C315.142 318.401 311.693 323.113 310.555 329.632L311.57 329.81C312.652 323.609 315.902 319.164 321.54 316.164L321.057 315.255ZM323.202 308.55C323.887 310.023 324.002 311.338 323.647 312.442C323.293 313.545 322.447 314.515 321.057 315.255L321.54 316.164C323.111 315.329 324.174 314.17 324.628 312.757C325.081 311.347 324.901 309.76 324.136 308.116L323.202 308.55ZM323.24 290.317C320.38 296.498 320.365 302.478 323.203 308.551L324.136 308.115C321.429 302.322 321.44 296.661 324.174 290.749L323.24 290.317ZM320.992 283.673C322.395 284.43 323.258 285.407 323.628 286.503C323.997 287.598 323.9 288.887 323.24 290.317L324.175 290.749C324.919 289.138 325.076 287.573 324.604 286.173C324.131 284.774 323.056 283.616 321.48 282.767L320.992 283.673ZM310.624 269.547C311.725 275.869 315.132 280.503 320.991 283.673L321.481 282.767C315.887 279.74 312.683 275.367 311.639 269.371L310.624 269.547ZM305.919 265.264C307.205 265.264 308.249 265.657 309.032 266.364C309.818 267.074 310.379 268.138 310.624 269.547L311.639 269.371C311.363 267.788 310.714 266.497 309.722 265.6C308.727 264.7 307.425 264.234 305.919 264.234V265.264ZM304.911 265.339C305.261 265.287 305.599 265.264 305.919 265.264V264.234C305.55 264.234 305.16 264.26 304.758 264.321L304.911 265.339ZM301.755 265.571C302.778 265.571 303.837 265.494 304.908 265.34L304.761 264.32C303.737 264.468 302.726 264.541 301.755 264.541V265.571ZM288.504 260.047C292.386 263.75 296.732 265.571 301.755 265.571V264.541C297.018 264.541 292.922 262.837 289.215 259.302L288.504 260.047ZM284.4 258.157C285.778 258.157 287.156 258.765 288.504 260.048L289.214 259.301C287.728 257.887 286.108 257.127 284.4 257.127V258.157ZM280.354 260.02C281.663 258.759 283.022 258.157 284.4 258.157V257.127C282.693 257.127 281.09 257.881 279.64 259.279L280.354 260.02ZM267.12 265.577C272.15 265.577 276.491 263.743 280.354 260.02L279.64 259.279C275.952 262.832 271.862 264.547 267.12 264.547V265.577ZM263.974 265.346C265.044 265.5 266.104 265.577 267.12 265.577V264.547C266.155 264.547 265.145 264.474 264.12 264.327L263.974 265.346ZM262.931 265.27C263.264 265.27 263.616 265.293 263.972 265.346L264.122 264.327C263.713 264.267 263.312 264.24 262.931 264.24V265.27ZM258.22 269.503C258.461 268.112 259.02 267.061 259.806 266.359C260.589 265.66 261.637 265.27 262.931 265.27V264.24C261.421 264.24 260.117 264.7 259.12 265.591C258.126 266.479 257.477 267.758 257.205 269.327L258.22 269.503ZM247.9 283.643C253.721 280.547 257.107 275.903 258.22 269.503L257.205 269.327C256.148 275.408 252.961 279.784 247.416 282.734L247.9 283.643ZM245.685 290.597C244.711 288.516 244.889 287.018 245.449 285.944C246.023 284.84 247.045 284.097 247.9 283.643L247.416 282.734C246.477 283.233 245.247 284.1 244.535 285.468C243.807 286.867 243.662 288.706 244.752 291.034L245.685 290.597ZM245.641 308.532C248.464 302.463 248.479 296.577 245.685 290.597L244.752 291.033C247.415 296.733 247.404 302.3 244.707 308.097L245.641 308.532ZM248.026 315.424C246.523 314.62 245.611 313.614 245.223 312.489C244.836 311.365 244.942 310.038 245.641 308.531L244.707 308.097C243.927 309.778 243.754 311.386 244.249 312.824C244.744 314.261 245.877 315.443 247.541 316.333L248.026 315.424ZM258.157 329.327C257.089 323.05 253.757 318.495 248.027 315.425L247.54 316.333C252.999 319.258 256.128 323.546 257.142 329.5L258.157 329.327ZM263.163 333.697C261.747 333.697 260.628 333.3 259.806 332.584C258.982 331.866 258.406 330.785 258.157 329.327L257.142 329.5C257.42 331.135 258.086 332.452 259.13 333.361C260.174 334.271 261.549 334.727 263.163 334.727V333.697ZM264.38 333.614C263.939 333.673 263.542 333.697 263.163 333.697V334.727C263.586 334.727 264.03 334.7 264.517 334.634L264.38 333.614ZM267.183 333.433C266.277 333.433 265.333 333.491 264.383 333.613L264.514 334.635C265.42 334.519 266.32 334.463 267.183 334.463V333.433ZM266.668 333.936V333.948H267.698V333.936H266.668ZM344.7 156.015H302.658V157.045H344.7V156.015ZM302.294 114.846L344.336 156.894L345.064 156.166L303.022 114.118L302.294 114.846ZM303.173 156.524V114.482H302.143V156.524H303.173ZM303.173 156.53V156.524H302.143V156.53H303.173ZM190.018 196.315C203.967 196.321 217.91 196.321 231.852 196.321V195.291C217.91 195.291 203.967 195.291 190.018 195.285L190.018 196.315ZM189.541 196.315H190.018V195.285H189.541V196.315ZM186.671 196.136C187.536 196.304 188.507 196.315 189.541 196.315V195.285C188.493 195.285 187.62 195.271 186.867 195.125L186.671 196.136ZM183.162 191.955C183.111 194.016 184.583 195.721 186.668 196.136L186.869 195.125C185.229 194.799 184.154 193.494 184.192 191.98L183.162 191.955ZM186.882 187.909C184.744 188.251 183.212 189.862 183.162 191.955L184.192 191.98C184.229 190.435 185.344 189.198 187.045 188.926L186.882 187.909ZM188.82 187.802C188.094 187.802 187.459 187.814 186.88 187.909L187.047 188.926C187.533 188.846 188.09 188.832 188.82 188.832V187.802ZM189.667 187.802H188.82V188.832H189.667V187.802ZM244.854 187.802H189.667V188.832H244.854V187.802ZM322.973 187.815C296.932 187.802 270.896 187.802 244.854 187.802V188.832C270.896 188.832 296.931 188.832 322.973 188.845L322.973 187.815ZM326.496 188.114C325.432 187.837 324.189 187.815 322.973 187.815V188.845C324.204 188.845 325.319 188.872 326.237 189.11L326.496 188.114ZM329.471 192.136C329.506 191.157 329.252 190.272 328.729 189.565C328.206 188.858 327.437 188.359 326.497 188.114L326.236 189.11C326.976 189.304 327.534 189.68 327.901 190.177C328.269 190.674 328.47 191.323 328.442 192.1L329.471 192.136ZM326.475 195.994C327.42 195.727 328.17 195.295 328.685 194.63C329.201 193.966 329.438 193.128 329.471 192.136L328.442 192.101C328.413 192.952 328.214 193.557 327.872 193.998C327.53 194.439 326.999 194.775 326.195 195.003L326.475 195.994ZM322.998 196.321C324.081 196.321 325.399 196.299 326.475 195.994L326.195 195.003C325.276 195.263 324.098 195.291 322.998 195.291V196.321ZM281 196.34C294.994 196.34 308.999 196.334 322.999 196.321L322.998 195.291C308.999 195.304 294.993 195.31 281 195.31V196.34ZM231.859 196.34H281V195.31H231.859V196.34ZM231.364 195.969L231.37 195.988L232.347 195.662L232.341 195.643L231.364 195.969ZM189.961 226.839C186.886 226.839 185.487 226.247 184.842 225.634C184.22 225.042 184.195 224.335 184.185 223.696L183.155 223.712C183.165 224.346 183.171 225.465 184.132 226.38C185.071 227.273 186.809 227.869 189.961 227.869V226.839ZM213.482 226.839H189.961V227.869H213.482V226.839ZM244.083 226.839H213.482V227.869H244.083V226.839ZM297.584 226.839H244.083V227.869H297.584V226.839ZM302.818 225.588C302.459 225.952 301.853 226.269 300.958 226.493C300.069 226.716 298.939 226.836 297.583 226.839L297.585 227.869C298.994 227.866 300.213 227.742 301.208 227.493C302.196 227.245 303.007 226.863 303.551 226.311L302.818 225.588ZM303.41 223.569C303.422 224.237 303.327 224.681 303.209 224.981C303.094 225.276 302.948 225.456 302.817 225.589L303.552 226.31C303.754 226.105 303.991 225.811 304.169 225.356C304.344 224.907 304.453 224.325 304.44 223.551L303.41 223.569ZM303.41 223.564L303.41 223.569L304.44 223.55L304.44 223.545L303.41 223.564ZM297.665 220.368C300.71 220.368 302.099 220.989 302.743 221.621C303.371 222.238 303.397 222.966 303.41 223.566L304.44 223.544C304.427 222.944 304.415 221.821 303.465 220.887C302.531 219.968 300.802 219.338 297.665 219.338V220.368ZM243.851 220.368H297.665V219.338H243.851V220.368ZM190.043 220.368H243.851V219.338H190.043V220.368ZM184.81 221.681C185.191 221.292 185.813 220.959 186.705 220.725C187.592 220.493 188.711 220.368 190.043 220.368V219.338C188.653 219.338 187.441 219.467 186.444 219.729C185.451 219.989 184.633 220.39 184.074 220.96L184.81 221.681ZM184.185 223.695C184.168 222.727 184.398 222.102 184.81 221.681L184.074 220.961C183.407 221.643 183.135 222.574 183.155 223.713L184.185 223.695ZM189.867 164.722H227.355V163.692H189.867V164.722ZM183.155 160.47C183.159 161.035 183.154 162.165 184.087 163.119C185.008 164.062 186.729 164.722 189.867 164.722V163.692C186.83 163.692 185.455 163.046 184.823 162.399C184.203 161.765 184.189 161.024 184.185 160.464L183.155 160.47ZM183.155 160.465L183.155 160.47L184.185 160.465L184.185 160.46L183.155 160.465ZM184.097 157.753C183.427 158.422 183.155 159.341 183.155 160.463H184.185C184.185 159.502 184.416 158.89 184.825 158.481L184.097 157.753ZM189.823 156.191C188.499 156.191 187.34 156.316 186.383 156.568C185.43 156.819 184.641 157.205 184.095 157.754L184.826 158.48C185.196 158.107 185.794 157.788 186.645 157.564C187.492 157.341 188.557 157.221 189.823 157.221V156.191ZM197.757 156.188C195.112 156.189 192.467 156.191 189.823 156.191V157.221C192.467 157.221 195.113 157.219 197.758 157.218L197.757 156.188ZM205.692 156.185C203.048 156.185 200.402 156.186 197.757 156.188L197.758 157.218C200.403 157.216 203.048 157.215 205.692 157.215V156.185ZM249.508 156.185H205.692V157.215H249.508V156.185ZM265.484 156.191C260.159 156.185 254.833 156.185 249.508 156.185V157.215C254.833 157.215 260.158 157.215 265.483 157.221L265.484 156.191ZM272.214 160.431C272.211 159.827 272.217 158.694 271.277 157.752C270.352 156.824 268.627 156.191 265.483 156.191V157.221C268.536 157.221 269.916 157.845 270.548 158.479C271.165 159.097 271.181 159.829 271.184 160.436L272.214 160.431ZM272.214 160.435L272.214 160.431L271.184 160.437L271.184 160.441L272.214 160.435ZM271.269 163.133C271.933 162.461 272.214 161.546 272.214 160.438H271.184C271.184 161.374 270.95 161.99 270.536 162.409L271.269 163.133ZM265.534 164.722C266.835 164.722 267.994 164.592 268.958 164.335C269.916 164.079 270.719 163.686 271.268 163.134L270.537 162.408C270.164 162.784 269.552 163.11 268.692 163.34C267.837 163.568 266.772 163.692 265.534 163.692V164.722ZM246.455 164.725C252.815 164.724 259.175 164.722 265.534 164.722V163.692C259.175 163.692 252.815 163.694 246.455 163.695L246.455 164.725ZM246.452 164.725H246.455V163.695H246.452V164.725ZM227.362 164.728C233.726 164.728 240.089 164.727 246.452 164.725L246.452 163.695C240.089 163.697 233.725 163.698 227.362 163.698V164.728ZM226.991 164.571L226.997 164.577L227.726 163.85L227.72 163.843L226.991 164.571ZM325.344 226.745C323.627 226.745 322.168 225.319 322.152 223.662L321.122 223.672C321.144 225.915 323.084 227.775 325.344 227.775V226.745ZM325.35 226.745H325.344V227.775H325.35V226.745ZM325.375 226.745H325.35V227.775H325.375V226.745ZM327.573 225.827C327 226.411 326.217 226.74 325.372 226.745L325.379 227.775C326.491 227.768 327.539 227.333 328.308 226.549L327.573 225.827ZM328.454 223.601C328.46 224.454 328.146 225.238 327.571 225.829L328.31 226.547C329.078 225.758 329.491 224.711 329.484 223.594L328.454 223.601ZM325.3 220.506C327.045 220.506 328.438 221.898 328.454 223.602L329.484 223.593C329.463 221.32 327.607 219.476 325.3 219.476V220.506ZM322.152 223.662C322.136 222.023 323.612 220.528 325.307 220.506L325.293 219.476C323.049 219.505 321.1 221.447 321.122 223.672L322.152 223.662Z" fill="white" mask="url(#path-2-outside-1_44_117)"/>
</svg>
