<svg width="512" height="512" viewBox="0 0 512 512" fill="none" xmlns="http://www.w3.org/2000/svg">
<circle cx="256" cy="256" r="232" stroke="white" stroke-width="6"/>
<path fill-rule="evenodd" clip-rule="evenodd" d="M272.103 260.612C270.121 259.106 268.408 258.368 265.868 258.597C263.753 258.785 261.704 259.781 260.231 261.542L260.224 261.539L232.133 295.289C229.172 298.843 229.667 304.188 233.229 307.153L233.225 307.16C236.765 310.098 242.022 309.596 244.975 306.067L244.982 306.071L273.051 272.35C275.953 268.858 275.547 263.609 272.103 260.612ZM293.369 172.212L296.414 181.647L306.336 181.628C309.577 181.624 310.917 185.799 308.304 187.697L308.308 187.704L300.271 193.518L303.354 202.946C304.347 205.987 300.81 208.771 297.983 206.541L290.172 200.842L282.151 206.692C279.533 208.601 276.001 206.017 276.994 202.949L276.986 202.946L280.069 193.518L272.033 187.704C269.434 185.822 270.671 181.499 274.247 181.632L283.93 181.65L286.975 172.215C287.979 169.107 292.376 169.133 293.369 172.212ZM290.777 186.032L290.172 184.16L289.567 186.032C288.729 188.649 286.303 188.358 284.395 188.358C287.647 190.709 287.983 190.93 286.599 195.157C290.069 192.625 290.379 192.71 293.734 195.157C292.354 190.938 292.678 190.716 295.938 188.358C294.044 188.361 291.619 188.657 290.777 186.032ZM387.705 274.078C395.903 268.873 406.479 276.175 404.338 285.761C403.696 288.633 402.005 291.099 399.34 292.76L368.488 312.904L368.491 312.911C363.224 316.255 356.203 314.524 353.076 309.138L352.917 308.858L341.718 291.103L341.711 291.106C338.473 286.245 339.854 279.253 345.025 275.931L345.022 275.924C349.891 272.683 356.871 274.067 360.193 279.239L360.201 279.235L365.963 288.386L387.712 274.089L387.705 274.078ZM394.549 279.183C393.482 278.943 392.315 279.117 391.308 279.755L391.3 279.744L366.937 295.761C365.261 296.927 363.128 296.473 362.105 294.849L354.7 283.107L354.601 282.967L354.608 282.963C353.25 280.811 350.463 280.346 348.757 281.527L348.754 281.523C346.616 282.845 346.129 285.658 347.314 287.374L347.307 287.378L358.61 305.299C359.352 306.433 359.879 307.411 361.651 307.806C362.718 308.046 363.885 307.872 364.892 307.234L364.896 307.241L395.674 287.145C399.698 284.418 397.675 279.881 394.549 279.183ZM368.927 353.239V365.764H331.12V355.823C331.12 347.96 324.701 341.537 316.835 341.537H310.696V336.333C310.696 331.364 306.643 327.311 301.674 327.311H248.969C244.001 327.311 239.947 331.364 239.947 336.333V341.537H233.805C225.942 341.537 219.519 347.96 219.519 355.823V365.764H211.417V284.776C211.417 284.196 211.273 283.653 211.015 283.177C215.677 287.518 220.306 292.132 224.141 296.274C221.074 306.447 229.15 316.68 239.896 315.716C243.764 315.369 247.463 313.564 250.128 310.375L250.121 310.371L278.201 276.636C283.513 270.254 282.649 260.682 276.292 255.359L276.289 255.367C270.992 250.93 263.421 250.738 257.924 254.614C242.17 244.614 224.946 230.708 211.417 217.608V151.127H232.148V153.825C232.148 157.358 235.034 160.255 238.578 160.255H341.766C343.53 160.255 345.14 159.528 346.31 158.358C348.499 156.169 348.196 153.939 348.196 151.127H368.927V234.894C365.25 240.856 358.717 245.872 351.526 249.184C343.778 252.749 335.417 254.281 329.175 252.823C327.192 252.314 325.325 253.536 324.974 255.448C321.607 273.709 325.62 294.403 333.922 312.354C342.25 330.342 354.948 345.694 368.927 353.239ZM375.66 234.894C378.454 239.427 382.899 243.414 388.03 246.518V136.631H348.2V144.394H372.297C374.154 144.394 375.664 145.9 375.664 147.76L375.66 234.894ZM394.759 249.929C402.064 252.978 409.735 254.193 415.534 252.794C417.372 252.354 419.192 253.488 419.605 255.448C422.972 273.709 418.963 294.403 410.661 312.354C406.379 321.608 400.938 330.164 394.759 337.318V387.31C394.759 389.171 393.253 390.677 391.392 390.677H188.951C187.095 390.677 185.585 389.171 185.585 387.31V313.21L125.324 385.287C120.868 390.548 115.678 394.213 110.473 395.937C98.2402 399.986 89.4585 392.035 91.2266 379.422C91.9797 374.047 94.6153 368.093 98.9785 362.87L184.26 260.867C178.619 256.662 172.495 252.443 167.058 249.054C161.606 252.653 154.164 252.384 149.096 248.072L149.092 248.08C142.725 242.742 141.824 233.182 147.154 226.777L175.234 193.042L175.227 193.038C177.918 189.812 181.668 188.014 185.589 187.686V133.264C185.589 131.407 187.098 129.898 188.955 129.898H232.151C232.151 126.959 231.79 124.545 234.038 122.297C235.2 121.134 236.81 120.411 238.582 120.411H262.129C266.112 98.4141 293.07 89.2374 309.611 104.671C314.007 108.772 317.104 114.246 318.219 120.411H341.766C345.31 120.411 348.2 123.312 348.2 126.845V129.898H391.396C393.257 129.898 394.763 131.404 394.763 133.264L394.759 249.929ZM388.03 344.284V383.947H192.314V305.159L204.684 290.364V369.13C204.684 370.991 206.19 372.497 208.05 372.497H372.293C374.15 372.497 375.66 370.991 375.66 369.13V353.239C379.931 350.936 384.084 347.898 388.03 344.284ZM340.027 309.545C347.816 326.377 359.543 340.637 372.297 347.425C386.483 339.873 397.83 324.103 404.567 309.545C411.846 293.812 415.622 275.938 413.526 259.911C399.417 261.31 381.418 253.178 372.297 241.742C363.172 253.181 345.177 261.313 331.068 259.911C328.972 275.938 332.748 293.812 340.027 309.545ZM196.463 191.137C201.159 195.072 202.927 201.421 201.218 207.117C202.329 208.339 203.488 209.579 204.684 210.834V147.76C204.684 145.9 206.19 144.394 208.05 144.394H232.144V136.631H192.314V188.679C193.721 189.232 195.212 190.085 196.426 191.119L196.434 191.111L196.463 191.137ZM197.7 213.219L208.6 224.201C221.779 236.733 237.902 249.689 253.151 259.512C244.576 269.656 236.134 279.988 227.64 290.198C219.785 281.867 210.804 273.609 201.642 266.012C198.375 263.303 195.098 260.69 191.845 258.194C190.967 257.312 191.605 257.777 190.421 257.109C188.523 255.673 186.641 254.274 184.769 252.923C180.339 249.723 176.028 246.795 171.916 244.193L197.7 213.219ZM195.116 201.975C194.92 199.819 193.909 197.756 192.122 196.264L192.126 196.257C188.63 193.356 183.348 193.791 180.376 197.35L180.369 197.346L152.3 231.066C147.582 236.733 152.012 245.489 159.483 244.817C161.621 244.625 163.658 243.621 165.142 241.841L165.15 241.845L193.219 208.125C194.64 206.419 195.315 204.179 195.116 201.975ZM189.605 264.953L104.132 367.185C100.588 371.423 98.4654 376.148 97.8784 380.345C95.9109 394.398 110.495 392.43 119.942 381.253L186.246 301.948C186.327 301.841 186.412 301.734 186.504 301.638L205.858 278.489C200.723 273.927 195.035 269.191 189.605 264.953ZM290.172 111.072C283.384 111.072 277.88 116.576 277.88 123.364C277.88 134.279 291.139 139.783 298.865 132.057C306.591 124.331 301.087 111.072 290.172 111.072ZM294.107 119.433C290.615 115.941 284.613 118.425 284.613 123.368C284.613 128.31 290.615 130.795 294.107 127.303C296.277 125.128 296.277 121.603 294.107 119.433ZM311.892 123.836C310.515 105.708 288.629 97.1664 275.311 109.591C271.435 113.209 268.88 118.226 268.452 123.836C268.423 125.667 266.927 127.144 265.086 127.144H238.873V153.526H341.467V127.144H315.255C313.416 127.144 311.921 125.667 311.892 123.836ZM259.15 239.449H320.363C324.797 239.449 324.797 232.716 320.363 232.716H259.15C254.72 232.72 254.72 239.449 259.15 239.449ZM259.15 224.042H320.363C324.797 224.042 324.797 217.312 320.363 217.312H259.15C254.72 217.309 254.72 224.042 259.15 224.042ZM246.677 341.537H303.963V336.333C303.963 335.078 302.926 334.044 301.674 334.044H248.969C247.718 334.044 246.68 335.081 246.68 336.333L246.677 341.537ZM316.835 348.27C289.157 348.27 261.483 348.27 233.805 348.27C229.656 348.27 226.253 351.674 226.253 355.823V365.764H324.387V355.823C324.387 351.674 320.984 348.27 316.835 348.27Z" fill="white"/>
</svg>
