<svg width="512" height="512" viewBox="0 0 512 512" fill="none" xmlns="http://www.w3.org/2000/svg">
<circle cx="256" cy="256" r="232" stroke="white" stroke-width="6"/>
<path d="M206.028 121.986C205.588 121.546 205.099 121.252 204.512 121.008C203.338 120.518 202.066 120.518 200.892 121.008C200.354 121.252 199.816 121.595 199.375 121.986C198.935 122.475 198.593 122.964 198.348 123.551C198.103 124.138 197.957 124.726 197.957 125.313C197.957 125.9 198.103 126.536 198.348 127.074C198.593 127.661 198.935 128.15 199.375 128.639C199.816 129.079 200.305 129.373 200.892 129.617C201.479 129.862 202.066 130.009 202.702 130.009C203.338 130.009 203.974 129.862 204.512 129.617C205.099 129.373 205.588 129.079 206.028 128.639C206.518 128.15 206.811 127.661 207.056 127.074C207.3 126.536 207.447 125.9 207.447 125.313C207.447 124.726 207.3 124.09 207.056 123.551C206.811 122.964 206.518 122.426 206.028 121.986Z" fill="white"/>
<path d="M410.902 333.023V186.608C410.902 173.645 400.385 163.127 387.421 163.127H372.109V144.929C372.109 144.88 372.109 144.831 372.06 144.783V119.785C372.06 109.414 363.646 101 353.276 101H158.676C148.305 101 139.891 109.414 139.891 119.785V144.929C139.891 144.978 139.891 145.027 139.94 145.076V163.176H124.481C111.518 163.176 101 173.694 101 186.657V333.17C101 333.219 101 333.219 101 333.268V348.237C101 361.2 111.518 371.718 124.481 371.718H220.02L203.29 401.559H178.683C176.091 401.559 173.987 403.662 173.987 406.255C173.987 408.848 176.091 410.951 178.683 410.951H206.127H305.873H333.317C335.909 410.951 338.013 408.848 338.013 406.255C338.013 403.662 335.909 401.559 333.317 401.559H308.661L291.931 371.718H387.519C400.482 371.718 411 361.2 411 348.237V333.219C410.951 333.072 410.902 333.072 410.902 333.023ZM401.51 186.608V328.425H372.012V257.247V172.52H387.372C395.199 172.52 401.51 178.879 401.51 186.608ZM149.283 149.626H362.717V167.187C362.668 167.383 362.668 167.628 362.668 167.872L362.619 328.474H149.234L149.283 149.626ZM149.283 119.785C149.283 114.599 153.49 110.392 158.676 110.392H353.324C358.51 110.392 362.717 114.599 362.717 119.785V140.282H149.283V119.785ZM124.481 172.52H139.891L139.842 328.425H110.392V186.608C110.392 178.879 116.752 172.52 124.481 172.52ZM297.85 401.461H214.101L230.831 371.62H281.12L297.85 401.461ZM401.559 348.139C401.559 355.917 395.248 362.228 387.47 362.228H283.859H228.092H124.53C116.752 362.228 110.441 355.917 110.441 348.139V337.817H144.538H367.315H401.51V348.139H401.559Z" fill="white"/>
<path d="M168.459 121.986C168.018 121.546 167.529 121.252 166.942 121.008C165.768 120.518 164.496 120.518 163.322 121.008C162.784 121.252 162.246 121.595 161.806 121.986C161.365 122.475 161.023 122.964 160.778 123.551C160.534 124.138 160.387 124.726 160.387 125.313C160.387 125.9 160.534 126.536 160.778 127.074C161.023 127.661 161.365 128.15 161.806 128.639C162.246 129.079 162.735 129.373 163.322 129.617C163.909 129.862 164.496 130.009 165.132 130.009C165.719 130.009 166.355 129.862 166.893 129.617C167.48 129.373 167.97 129.079 168.41 128.639C168.899 128.15 169.193 127.661 169.437 127.074C169.682 126.536 169.828 125.9 169.828 125.313C169.828 124.726 169.682 124.09 169.437 123.551C169.29 122.964 168.948 122.426 168.459 121.986Z" fill="white"/>
<path d="M187.244 121.986C186.804 121.546 186.315 121.252 185.728 121.008C184.554 120.518 183.282 120.518 182.108 121.008C181.57 121.252 181.031 121.595 180.591 121.986C180.151 122.475 179.808 122.964 179.564 123.551C179.319 124.138 179.172 124.726 179.172 125.313C179.172 125.9 179.319 126.536 179.564 127.074C179.808 127.661 180.151 128.15 180.591 128.639C181.472 129.52 182.646 130.009 183.918 130.009C184.505 130.009 185.141 129.862 185.679 129.617C186.266 129.373 186.755 129.079 187.195 128.639C187.684 128.15 187.978 127.661 188.223 127.074C188.467 126.536 188.614 125.9 188.614 125.313C188.614 124.726 188.467 124.09 188.223 123.551C188.076 122.964 187.733 122.426 187.244 121.986Z" fill="white"/>
<path d="M346.867 120.617H270.259C267.667 120.617 265.563 122.72 265.563 125.313C265.563 127.906 267.667 130.009 270.259 130.009H346.818C349.41 130.009 351.514 127.906 351.514 125.313C351.514 122.72 349.459 120.617 346.867 120.617Z" fill="white"/>
<path d="M186.853 209.551C188.467 209.551 190.032 208.72 190.913 207.252C192.234 205.002 191.451 202.115 189.25 200.844L174.476 192.185L189.25 183.526C191.5 182.205 192.234 179.319 190.913 177.118C189.592 174.868 186.706 174.134 184.504 175.455L162.784 188.174C161.366 189.005 160.485 190.571 160.485 192.234C160.485 193.897 161.366 195.462 162.784 196.294L184.504 209.013C185.238 209.355 186.07 209.551 186.853 209.551Z" fill="white"/>
<path d="M232.298 207.203C233.179 208.671 234.744 209.502 236.358 209.502C237.141 209.502 237.973 209.307 238.707 208.866L260.427 196.147C261.845 195.316 262.726 193.75 262.726 192.087C262.726 190.424 261.845 188.858 260.427 188.027L238.707 175.308C236.456 173.987 233.57 174.77 232.298 176.971C230.977 179.221 231.76 182.108 233.961 183.379L248.735 192.038L233.961 200.697C231.711 202.115 230.977 205.002 232.298 207.203Z" fill="white"/>
<path d="M196.343 224.472C196.979 224.765 197.664 224.912 198.349 224.912C200.11 224.912 201.774 223.933 202.605 222.221L229.119 166.062C230.244 163.714 229.217 160.926 226.869 159.801C224.521 158.675 221.732 159.703 220.607 162.051L194.093 218.21C193.017 220.558 193.995 223.346 196.343 224.472Z" fill="white"/>
<path d="M165.083 242.767C165.083 245.36 167.187 247.463 169.779 247.463H342.219C344.812 247.463 346.915 245.36 346.915 242.767C346.915 240.174 344.812 238.071 342.219 238.071H169.779C167.187 238.071 165.083 240.174 165.083 242.767Z" fill="white"/>
<path d="M342.22 260.672H298.731C296.138 260.672 294.034 262.775 294.034 265.368C294.034 267.96 296.138 270.064 298.731 270.064H342.22C344.812 270.064 346.916 267.96 346.916 265.368C346.916 262.775 344.812 260.672 342.22 260.672Z" fill="white"/>
<path d="M276.815 265.368C276.815 262.775 274.712 260.672 272.119 260.672H214.639C212.046 260.672 209.943 262.775 209.943 265.368C209.943 267.96 212.046 270.064 214.639 270.064H272.119C274.712 270.064 276.815 267.96 276.815 265.368Z" fill="white"/>
<path d="M169.779 270.064H189.738C192.331 270.064 194.435 267.96 194.435 265.368C194.435 262.775 192.331 260.672 189.738 260.672H169.779C167.187 260.672 165.083 262.775 165.083 265.368C165.083 267.96 167.187 270.064 169.779 270.064Z" fill="white"/>
<path d="M342.22 283.223H268.303C265.71 283.223 263.607 285.327 263.607 287.92C263.607 290.512 265.71 292.616 268.303 292.616H342.22C344.813 292.616 346.916 290.512 346.916 287.92C346.916 285.327 344.813 283.223 342.22 283.223Z" fill="white"/>
<path d="M169.779 292.616H247.61C250.202 292.616 252.306 290.512 252.306 287.92C252.306 285.327 250.202 283.223 247.61 283.223H169.779C167.187 283.223 165.083 285.327 165.083 287.92C165.083 290.512 167.187 292.616 169.779 292.616Z" fill="white"/>
<path d="M342.22 305.824H247.61C245.018 305.824 242.914 307.928 242.914 310.52C242.914 313.113 245.018 315.216 247.61 315.216H342.22C344.812 315.216 346.916 313.113 346.916 310.52C346.916 307.928 344.812 305.824 342.22 305.824Z" fill="white"/>
<path d="M216.888 305.824H169.779C167.187 305.824 165.083 307.928 165.083 310.52C165.083 313.113 167.187 315.216 169.779 315.216H216.888C219.481 315.216 221.585 313.113 221.585 310.52C221.585 307.928 219.481 305.824 216.888 305.824Z" fill="white"/>
</svg>
