<svg width="512" height="512" viewBox="0 0 512 512" fill="none" xmlns="http://www.w3.org/2000/svg">
<circle cx="256" cy="256" r="232" stroke="white" stroke-width="6"/>
<g clip-path="url(#clip0_41_58)">
<path d="M348.886 312.728L379.863 192.706C380.274 191.107 379.954 189.462 378.903 188.183C377.898 186.903 376.391 186.127 374.746 186.127H335.226C335.226 185.807 335.226 185.487 335.226 185.167L348.247 179.365C350.851 178.223 352.085 175.116 350.942 172.512L338.241 142.997C337.419 141.078 335.5 139.799 333.398 139.799C332.667 139.799 331.936 139.936 331.251 140.256L319.463 145.556C317.316 143.088 315.032 140.804 312.564 138.702L317.225 126.686C317.727 125.361 317.681 123.945 317.133 122.666C316.585 121.387 315.534 120.381 314.209 119.879L284.558 108.366C283.964 108.137 283.324 108 282.684 108C280.537 108 278.572 109.325 277.75 111.335L273.09 123.351C272.313 123.351 271.491 123.306 270.714 123.306C268.293 123.306 265.825 123.443 263.313 123.762L258.241 111.929C257.419 110.01 255.5 108.731 253.398 108.731C252.667 108.731 251.936 108.868 251.251 109.188L221.874 122.392C219.269 123.58 218.081 126.641 219.224 129.291L224.889 142.312C222.833 144.368 220.868 146.561 219.041 148.937L205.654 143.728C205.06 143.5 204.421 143.363 203.735 143.363C201.542 143.363 199.623 144.688 198.847 146.698L187.151 176.852C186.1 179.548 187.47 182.609 190.166 183.659L196.517 186.127H163.85L156.859 155.698C156.311 153.277 154.21 151.632 151.742 151.632H136.254C133.376 151.632 131 154.008 131 156.886C131 159.765 133.376 162.14 136.254 162.14H147.585C151.605 180.507 186.328 330.821 189.618 344.025H189.389C191.902 354.99 201.451 362.574 212.599 362.574H221.965C218.63 367.051 216.802 372.397 216.802 378.062C216.802 392.408 228.453 404.059 242.799 404.059C257.145 404.059 268.795 392.408 268.795 378.062C268.795 372.397 266.968 367.051 263.632 362.574H313.021C309.686 367.051 307.859 372.397 307.859 378.062C307.859 392.408 319.509 404.059 333.855 404.059C348.201 404.059 359.852 392.408 359.852 378.062C359.852 371.118 357.156 364.63 352.222 359.696C347.287 354.761 340.8 352.066 333.855 352.066H212.599C206.34 352.066 200.994 347.817 199.623 341.74L193.867 316.657H343.769C346.145 316.657 348.247 315.058 348.841 312.728H348.886ZM220.96 160.541C222.696 160.541 224.341 159.673 225.346 158.211C228.041 154.145 231.103 150.673 234.621 147.612C236.357 146.104 236.951 143.682 236.037 141.535L230.965 129.839L250.748 120.975L255.317 131.621C256.14 133.54 258.059 134.819 260.114 134.819C260.434 134.819 260.8 134.819 261.12 134.728C264.318 134.134 267.607 133.814 270.805 133.814C272.587 133.814 274.323 133.905 276.105 134.088H276.654C278.801 134.088 280.766 132.763 281.542 130.753L285.7 120.016L305.574 127.737L301.417 138.474C300.548 140.667 301.279 143.18 303.198 144.596C307.173 147.52 310.737 151.084 313.798 155.15C314.803 156.475 316.357 157.252 318.001 157.252C318.732 157.252 319.463 157.115 320.149 156.795L330.794 152.043L339.338 171.872L327.687 177.08C325.585 178.04 324.352 180.187 324.626 182.472C324.763 183.705 324.854 184.939 324.9 186.127H309.686C307.219 166.024 290.04 150.536 269.8 150.536C249.561 150.536 232.108 166.024 229.321 186.127H215.934C216.026 183.888 214.701 181.878 212.599 181.055L199.03 175.801L206.934 155.424L219.224 160.176C219.818 160.404 220.457 160.541 221.143 160.541H220.96ZM269.663 161.044C284.283 161.044 296.528 171.689 298.858 186.127H239.829C242.479 171.689 254.952 161.044 269.663 161.044ZM367.938 196.635L364.466 210.113H263.77C260.891 210.113 258.515 212.489 258.515 215.367C258.515 218.245 260.891 220.621 263.77 220.621H361.77L358.298 234.099H268.338C265.46 234.099 263.084 236.475 263.084 239.353C263.084 242.232 265.46 244.607 268.338 244.607H355.603L352.13 258.085H272.953C270.074 258.085 267.699 260.461 267.699 263.339C267.699 266.218 270.074 268.594 272.953 268.594H349.435L345.962 282.072H277.522C274.643 282.072 272.268 284.447 272.268 287.326C272.268 290.204 274.643 292.58 277.522 292.58H343.267L339.794 306.058H191.445L166.271 196.543H367.938V196.635ZM242.799 393.55C234.255 393.55 227.31 386.606 227.31 378.062C227.31 369.519 234.255 362.574 242.799 362.574C251.342 362.574 258.287 369.519 258.287 378.062C258.287 386.606 251.342 393.55 242.799 393.55ZM333.855 362.574C342.399 362.574 349.343 369.519 349.343 378.062C349.343 386.606 342.399 393.55 333.855 393.55C325.311 393.55 318.367 386.606 318.367 378.062C318.367 369.519 325.311 362.574 333.855 362.574Z" fill="white"/>
</g>
<defs>
<clipPath id="clip0_41_58">
<rect width="249" height="296.059" fill="white" transform="translate(131 108)"/>
</clipPath>
</defs>
</svg>
