<svg width="512" height="512" viewBox="0 0 512 512" fill="none" xmlns="http://www.w3.org/2000/svg">
<circle cx="256" cy="256" r="232" stroke="white" stroke-width="6"/>
<g clip-path="url(#clip0_41_30)">
<path d="M138.118 226.424C138.292 238.973 148.26 248.768 160.819 248.811C173.733 248.855 184.075 238.791 184.127 226.015C184.179 214.465 184.145 202.915 184.127 191.365C184.127 186.333 181.763 183.465 177.67 183.396C173.49 183.326 171.1 186.099 171.082 191.165C171.056 202.281 171.1 213.405 171.056 224.521C171.03 231.378 167.189 235.601 161.088 235.645C155.022 235.688 151.189 231.43 151.172 224.573C151.146 213.162 151.215 201.759 151.12 190.348C151.085 186.047 148.347 183.37 144.497 183.405C140.456 183.448 138.162 185.89 138.11 190.461C138.04 196.667 138.092 202.881 138.092 209.086C138.092 214.865 138.023 220.636 138.101 226.415L138.118 226.424Z" fill="white"/>
<path d="M349.104 190.166C349.026 185.795 346.819 183.552 342.864 183.422C338.649 183.283 336.025 186.099 335.999 191.035C335.955 202.298 336.077 213.57 335.92 224.833C335.886 227.024 335.355 229.483 334.252 231.334C332.001 235.115 327.299 236.618 323.267 235.445C319.182 234.254 316.184 230.135 316.14 225.12C316.053 213.562 316.166 202.012 316.097 190.453C316.071 185.942 313.663 183.457 309.666 183.387C305.85 183.326 303.052 186.055 303.017 190.322C302.93 202.455 302.782 214.596 303.061 226.719C303.33 238.617 313.663 248.412 324.892 248.837C339.883 249.402 349.426 236.87 349.139 226.554C348.983 220.784 349.113 214.996 349.113 209.225C349.113 202.872 349.2 196.51 349.087 190.157L349.104 190.166Z" fill="white"/>
<path d="M196.92 238.739C194.956 242.658 195.929 246.3 199.31 247.977C203.186 249.906 206.402 248.759 208.566 244.622C210.895 240.173 213.181 235.706 215.71 230.804C218.273 235.793 220.507 240.312 222.897 244.735C225.113 248.837 228.398 249.872 232.213 247.864C235.551 246.109 236.428 242.484 234.447 238.548C231.144 231.986 227.685 225.485 224.609 218.811C223.905 217.29 223.879 214.909 224.574 213.396C227.581 206.844 230.997 200.491 234.195 194.033C236.402 189.584 235.446 185.777 231.788 184.013C228.051 182.214 224.678 183.691 222.349 188.219C220.238 192.321 218.186 196.449 215.718 201.342C213.294 196.519 211.269 192.4 209.165 188.332C206.689 183.535 203.264 182.101 199.388 184.135C195.834 186.003 195.043 189.636 197.337 194.259C200.414 200.456 203.438 206.687 206.775 212.736C208.14 215.204 207.957 217.125 206.715 219.471C203.343 225.833 200.144 232.29 196.92 238.73V238.739Z" fill="white"/>
<path d="M374.116 190.557C374.09 186.186 371.622 183.5 367.755 183.422C363.644 183.344 361.124 186.029 361.115 190.714C361.089 207.617 361.08 224.512 361.115 241.416C361.124 246.187 363.557 248.803 367.685 248.751C371.831 248.707 374.09 246.135 374.116 241.259C374.16 232.881 374.125 224.503 374.125 216.125C374.125 207.6 374.16 199.083 374.108 190.557H374.116Z" fill="white"/>
<path d="M381.703 114H130.297C114.14 114 101 127.01 101 142.992V341.968C101 357.959 114.14 370.969 130.297 370.969H225.382V388.776H195.382C192.983 388.776 191.036 390.723 191.036 393.122C191.036 395.52 192.983 397.467 195.382 397.467H316.557C318.956 397.467 320.903 395.52 320.903 393.122C320.903 390.723 318.956 388.776 316.557 388.776H286.791V370.969H374.116C376.515 370.969 378.462 369.022 378.462 366.623C378.462 364.225 376.515 362.278 374.116 362.278H130.297C118.929 362.278 109.691 353.161 109.691 341.968V318.998H402.309V341.759C402.309 344.158 404.256 346.105 406.655 346.105C409.053 346.105 411 344.158 411 341.759V142.992C411 127.001 397.86 114 381.712 114H381.703ZM278.092 388.776H234.073V370.969H278.092V388.776ZM109.691 310.307V142.992C109.691 131.799 118.938 122.691 130.297 122.691H381.703C393.062 122.691 402.301 131.799 402.301 142.992V310.307H109.691Z" fill="white"/>
<path d="M369.788 283.887H142.151C139.752 283.887 137.805 285.834 137.805 288.233C137.805 290.631 139.752 292.578 142.151 292.578H369.788C372.187 292.578 374.134 290.631 374.134 288.233C374.134 285.834 372.187 283.887 369.788 283.887Z" fill="white"/>
<path d="M285.14 163.842L248.387 264.62C247.996 265.68 249.934 267.366 252.706 268.374C255.479 269.382 258.034 269.339 258.425 268.279L295.178 167.5C295.569 166.44 293.631 164.754 290.859 163.746C288.086 162.738 285.531 162.781 285.14 163.842Z" fill="white"/>
<path d="M142.151 148.459H369.788C372.187 148.459 374.134 146.512 374.134 144.114C374.134 141.715 372.187 139.768 369.788 139.768H142.151C139.752 139.768 137.805 141.715 137.805 144.114C137.805 146.512 139.752 148.459 142.151 148.459Z" fill="white"/>
<path d="M247.692 336.527C245.293 336.527 243.346 338.474 243.346 340.873C243.346 343.271 245.293 345.218 247.692 345.218H264.248C266.646 345.218 268.593 343.271 268.593 340.873C268.593 338.474 266.646 336.527 264.248 336.527H247.692Z" fill="white"/>
<path d="M400.84 359.462C400.562 359.271 400.258 359.106 399.945 358.984C399.632 358.854 399.311 358.758 398.981 358.68C398.311 358.55 397.625 358.55 396.947 358.68C396.617 358.75 396.295 358.845 395.982 358.984C395.661 359.106 395.365 359.271 395.078 359.462C394.8 359.645 394.531 359.862 394.288 360.105C393.323 361.07 392.775 362.409 392.775 363.764C392.775 364.103 392.81 364.451 392.88 364.781C392.941 365.111 393.045 365.433 393.166 365.754C393.306 366.067 393.453 366.363 393.644 366.65C393.827 366.928 394.053 367.197 394.288 367.44C395.252 368.405 396.591 368.953 397.955 368.953C398.285 368.953 398.624 368.927 398.972 368.857C399.302 368.788 399.624 368.692 399.937 368.553C400.249 368.431 400.545 368.266 400.832 368.075C401.119 367.892 401.379 367.675 401.623 367.432C401.857 367.197 402.075 366.928 402.274 366.641C402.457 366.363 402.613 366.059 402.752 365.746C402.874 365.424 402.978 365.103 403.039 364.772C403.109 364.442 403.143 364.095 403.143 363.756C403.143 362.4 402.596 361.061 401.623 360.097C401.388 359.862 401.127 359.636 400.832 359.454L400.84 359.462Z" fill="white"/>
</g>
<defs>
<clipPath id="clip0_41_30">
<rect width="310" height="283.467" fill="white" transform="translate(101 114)"/>
</clipPath>
</defs>
</svg>
