<svg xmlns="http://www.w3.org/2000/svg" viewBox="0 0 842.64 346.01"><defs><style>.cls-1{fill:#e97a24;fill-rule:evenodd;}.cls-2{font-size:218.44px;fill:#fff;}.cls-2,.cls-3{font-family:CheltenhamItcTEE-Book, CheltenhamItcTEE;}.cls-3{font-size:243.27px;}.cls-3,.cls-4{fill:#231f20;}.cls-4{font-size:54px;font-family:Montserrat-SemiBold, Montserrat;font-weight:600;letter-spacing:0.02em;}.cls-5{letter-spacing:-0.02em;}.cls-6{letter-spacing:0.02em;}.cls-7{letter-spacing:-0.05em;}.cls-8{letter-spacing:0.01em;}.cls-9{letter-spacing:0.02em;}.cls-10{fill:none;stroke:#231f20;stroke-miterlimit:10;stroke-width:2px;}</style></defs><g id="Layer_2" data-name="Layer 2"><g id="Layer_1-2" data-name="Layer 1"><path class="cls-1" d="M69.4,0H276.61A69.6,69.6,0,0,1,346,69.4V276.61a69.6,69.6,0,0,1-69.4,69.4H69.4A69.6,69.6,0,0,1,0,276.61V69.4A69.6,69.6,0,0,1,69.4,0"/><text class="cls-2" transform="translate(68.68 245.86)">D</text><text class="cls-2" transform="translate(213.82 245.86)">I</text><text class="cls-3" transform="translate(376.51 237.89)">w</text><text class="cls-3" transform="translate(554.7 237.89)">is</text><text class="cls-3" transform="translate(720.89 237.89)">e</text><text class="cls-4" transform="translate(376.04 332.02)">DIGI<tspan class="cls-5" x="125.06" y="0">T</tspan><tspan class="cls-6" x="156.76" y="0">AL</tspan><tspan class="cls-7" x="231.71" y="0">L</tspan><tspan x="261.2" y="0">Y </tspan><tspan class="cls-8" x="313.95" y="0">W</tspan><tspan class="cls-9" x="376" y="0">ISE</tspan></text><line class="cls-10" x1="381.67" y1="260.65" x2="841.67" y2="260.65"/></g></g></svg>