<svg width="512" height="512" viewBox="0 0 512 512" fill="none" xmlns="http://www.w3.org/2000/svg">
<circle cx="256" cy="256" r="232" stroke="white" stroke-width="6"/>
<g clip-path="url(#clip0_50_202)">
<path d="M290.303 245.536C290.574 245.536 290.964 245.465 291.291 245.138L298.819 237.61C299.082 237.347 299.234 236.996 299.234 236.63C299.234 236.263 299.09 235.921 298.819 235.65C298.556 235.387 298.206 235.244 297.839 235.244C297.473 235.244 297.123 235.387 296.86 235.658L289.331 243.186C289.068 243.449 288.925 243.8 288.925 244.166C288.925 244.532 289.068 244.883 289.339 245.154C289.586 245.417 289.913 245.544 290.303 245.544V245.536Z" fill="white"/>
<path d="M291.275 265.349C291.012 265.078 290.67 264.934 290.303 264.934C289.937 264.934 289.594 265.078 289.323 265.357C288.782 265.898 288.782 266.767 289.323 267.316L296.852 274.845C297.107 275.099 297.457 275.243 297.839 275.243C298.222 275.243 298.564 275.099 298.819 274.845C299.337 274.319 299.369 273.546 298.931 272.988L291.275 265.349Z" fill="white"/>
<path d="M275.964 244.501C275.964 236.709 275.964 228.91 275.964 221.119C275.964 218.514 275.199 218.514 274.745 218.514C274.291 218.514 273.638 218.673 272.841 218.976C269.814 220.139 266.778 221.302 263.751 222.465C255.554 225.612 247.07 228.863 238.769 232.153C231.623 234.989 225.122 237.331 217.881 237.331C217.068 237.331 216.24 237.299 215.435 237.243C215.212 237.227 214.981 237.219 214.758 237.219C209.739 237.219 205.342 241.426 204.736 246.795C204.29 250.794 204.346 254.825 204.481 258.593C204.601 261.955 206.122 264.863 209.014 267.245C209.811 267.898 210.241 269.125 210.257 269.993C210.305 272.941 210.305 275.944 210.297 278.836C210.297 280.867 210.297 282.899 210.305 284.938C210.328 287.862 211.563 290.204 213.985 291.893C215.515 292.96 217.14 293.502 218.797 293.502C220.048 293.502 221.338 293.191 222.621 292.578C225.712 291.104 227.385 288.571 227.464 285.249C227.536 282.134 227.52 279.059 227.504 275.801C227.504 274.383 227.488 272.949 227.488 271.491V270.391L228.532 270.734C228.834 270.838 229.113 270.925 229.376 271.005C229.902 271.172 230.356 271.316 230.818 271.491C244.775 276.876 258.732 282.261 272.682 287.655C273.502 287.973 274.163 288.133 274.649 288.133C275.135 288.133 275.964 288.133 275.964 285.456C275.964 278.955 275.964 272.447 275.964 265.946C278.64 265.651 280.911 264.52 282.584 262.6C284.313 260.625 285.268 257.988 285.268 255.168C285.268 250.228 282.074 245.17 275.964 244.509V244.501ZM207.484 258.338C207.405 254.952 207.405 251.591 207.484 248.356C207.588 243.951 210.814 240.525 215.156 240.223C216.12 240.159 217.148 240.127 218.398 240.127C219.259 240.127 220.119 240.143 220.996 240.159C221.888 240.175 222.796 240.191 223.72 240.191H224.517V266.273H223.72C222.724 266.273 221.705 266.313 220.717 266.344C219.721 266.376 218.693 266.416 217.681 266.416C216.168 266.416 214.925 266.336 213.778 266.161C210.217 265.62 207.572 262.329 207.477 258.346L207.484 258.338ZM224.58 284.492C224.541 287.949 222.159 290.459 218.916 290.467C215.706 290.467 213.332 288.053 213.268 284.723C213.204 281.369 213.22 277.944 213.236 274.637C213.236 273.204 213.244 271.77 213.244 270.328V269.531H224.596V273.323C224.596 274.446 224.596 275.562 224.596 276.685C224.596 279.242 224.612 281.887 224.58 284.484V284.492ZM259.497 279.346L255.179 277.681C252.726 276.733 250.328 275.809 247.93 274.884C246.456 274.319 244.982 273.745 243.509 273.18C238.896 271.395 234.124 269.555 229.416 267.778C228.038 267.261 227.488 266.464 227.496 265.03C227.52 261.485 227.52 257.876 227.528 254.387C227.528 250.181 227.528 245.831 227.576 241.553C227.576 240.693 228.277 239.426 229.153 239.075C237.781 235.674 246.584 232.296 255.092 229.022L257.649 228.042C257.848 227.97 258.023 227.954 258.143 227.954C258.215 227.954 258.302 227.954 258.398 227.962C258.485 227.962 258.589 227.978 258.716 227.978H259.513V279.354L259.497 279.346ZM272.833 284.5L262.477 280.509V267.786C262.477 254.929 262.485 241.625 262.445 228.552C262.445 226.735 263.114 225.772 264.779 225.222C266.372 224.696 267.934 224.091 269.583 223.445C270.292 223.167 271.017 222.888 271.757 222.601L272.841 222.187V284.5H272.833ZM280.497 260.8C279.349 262.106 277.796 262.911 275.972 263.182C275.972 257.892 275.972 252.602 275.972 247.321C280.465 247.958 282.496 251.623 282.496 255.191C282.496 257.303 281.771 259.35 280.497 260.8Z" fill="white"/>
<path d="M305.543 253.845H294.884C294.119 253.845 293.49 254.467 293.49 255.231C293.49 255.996 294.111 256.625 294.884 256.625H305.543C306.308 256.625 306.929 256.004 306.929 255.231C306.929 254.459 306.308 253.845 305.543 253.845Z" fill="white"/>
<path d="M154.755 228.416C154.078 228.281 153.568 227.819 153.385 227.165L153.369 227.118L143.331 197.61C143.132 197.013 143.259 196.359 143.689 195.873C144.12 195.379 144.749 195.156 145.37 195.284L153.297 196.853L154.508 190.727C156.125 182.562 161.327 178.363 165.406 176.276C170.664 173.591 177.348 172.771 183.737 174.038C186.963 174.675 189.942 175.798 192.587 177.375C195.328 179.017 197.542 181.048 199.168 183.422C199.574 184.035 199.582 184.776 199.168 185.39C198.849 185.868 198.212 186.314 197.375 186.154C197.375 186.154 197.303 186.138 197.272 186.131C195.384 185.645 193.814 185.278 192.348 184.991C178.566 182.259 170.911 185.756 168.943 195.674L168.138 199.745L176.105 201.322C176.75 201.45 177.276 201.92 177.475 202.541C177.595 202.916 177.69 203.649 176.997 204.39L156.468 227.827C156.037 228.329 155.392 228.544 154.747 228.416H154.755ZM151.744 211.28L155.822 223.19L172.377 204.27L165.741 202.956C164.777 202.764 164.147 201.824 164.338 200.86L165.502 194.997C167.605 184.386 175.037 179.598 187.608 180.761L188.031 179.048C186.397 178.379 184.756 177.885 183.147 177.567C177.738 176.499 172.098 177.089 167.668 179.192C162.514 181.637 159.208 185.876 158.109 191.444L156.547 199.323C156.356 200.287 155.416 200.916 154.452 200.725L147.728 199.395L151.752 211.288L151.744 211.28Z" fill="white"/>
<path d="M356.162 227.827L335.632 204.39C334.939 203.649 335.035 202.916 335.154 202.541C335.353 201.92 335.879 201.45 336.524 201.322L344.491 199.745L343.686 195.674C341.726 185.756 334.071 182.267 320.281 184.991C318.807 185.286 317.246 185.645 315.358 186.131C315.326 186.138 315.254 186.154 315.254 186.154C314.418 186.322 313.78 185.868 313.462 185.39C313.047 184.768 313.055 184.035 313.462 183.422C315.087 181.048 317.301 179.009 320.042 177.375C322.687 175.798 325.666 174.675 328.893 174.038C335.282 172.771 341.965 173.591 347.223 176.276C351.302 178.363 356.512 182.562 358.121 190.727L359.332 196.853L367.259 195.284C367.88 195.164 368.509 195.38 368.94 195.873C369.37 196.359 369.497 197.013 369.298 197.61L359.26 227.118L359.245 227.165C359.069 227.811 358.559 228.281 357.874 228.416C357.189 228.552 356.584 228.321 356.154 227.827H356.162ZM364.917 199.387L358.193 200.717C357.229 200.908 356.289 200.279 356.098 199.315L354.536 191.436C353.437 185.868 350.123 181.629 344.977 179.184C340.547 177.081 334.907 176.491 329.498 177.559C327.889 177.877 326.248 178.379 324.615 179.04L325.037 180.753C337.608 179.59 345.048 184.378 347.144 194.989L348.307 200.852C348.498 201.816 347.869 202.756 346.905 202.948L340.269 204.262L356.823 223.182L360.902 211.272L364.925 199.379L364.917 199.387Z" fill="white"/>
<path d="M318.066 389.186L337.178 364.578C337.775 363.757 338.508 363.718 338.898 363.757C339.552 363.837 340.109 364.267 340.356 364.873L343.415 372.393L347.263 370.832C356.624 367.024 358.599 358.842 353.302 345.825C352.736 344.439 352.083 342.965 351.246 341.205C351.23 341.173 351.206 341.109 351.206 341.109C350.888 340.32 351.206 339.611 351.613 339.205C352.138 338.687 352.863 338.544 353.549 338.831C356.193 339.978 358.607 341.762 360.734 344.144C362.79 346.438 364.455 349.155 365.697 352.198C368.151 358.237 368.621 364.952 366.98 370.625C365.705 375.03 362.575 380.933 354.863 384.072L349.079 386.43L352.123 393.91C352.362 394.492 352.266 395.153 351.86 395.671C351.461 396.181 350.848 396.436 350.227 396.348L319.349 392.102H319.293C318.624 392.046 318.066 391.632 317.811 390.995C317.556 390.357 317.66 389.712 318.066 389.186ZM347.653 392.389L345.072 386.039C344.698 385.131 345.144 384.088 346.052 383.713L353.493 380.686C358.751 378.543 362.288 374.496 363.706 368.967C364.933 364.22 364.439 358.571 362.359 353.465C361.738 351.943 360.941 350.43 359.977 348.948L358.376 349.689C361.905 361.814 358.615 370.027 348.601 374.098L343.065 376.352C342.157 376.727 341.113 376.281 340.739 375.372L338.189 369.103L322.758 388.955L335.226 390.692L347.669 392.381L347.653 392.389Z" fill="white"/>
<path d="M198.028 390.995C197.765 391.632 197.216 392.046 196.547 392.102H196.491L165.613 396.356C164.984 396.444 164.378 396.189 163.98 395.679C163.582 395.161 163.478 394.5 163.717 393.918L166.76 386.438L160.977 384.08C153.265 380.941 150.134 375.038 148.86 370.632C147.219 364.96 147.689 358.245 150.142 352.206C151.385 349.163 153.05 346.446 155.105 344.152C157.232 341.778 159.654 339.986 162.291 338.839C162.968 338.552 163.693 338.687 164.227 339.213C164.633 339.619 164.96 340.328 164.633 341.117C164.633 341.117 164.601 341.181 164.593 341.213C163.757 342.973 163.104 344.439 162.538 345.833C157.24 358.85 159.216 367.024 168.577 370.84L172.424 372.401L175.483 364.881C175.73 364.275 176.288 363.845 176.941 363.765C177.332 363.718 178.065 363.765 178.662 364.586L197.773 389.194C198.18 389.712 198.275 390.389 198.028 391.003V390.995ZM180.63 390.692L193.097 388.955L177.666 369.103L175.117 375.372C174.743 376.281 173.699 376.727 172.791 376.352L167.254 374.098C157.232 370.019 153.95 361.806 157.479 349.689L155.878 348.948C154.914 350.422 154.11 351.943 153.496 353.465C151.417 358.571 150.931 364.22 152.15 368.967C153.568 374.488 157.105 378.543 162.363 380.686L169.803 383.713C170.712 384.088 171.158 385.131 170.783 386.039L168.202 392.389L180.646 390.7L180.63 390.692Z" fill="white"/>
<path d="M256.159 139.83C269.686 140.013 281.07 128.805 281.174 115.182C281.285 101.544 270.252 90.2155 256.653 90.0004C243.15 89.7932 231.782 101.034 231.694 114.68C231.607 128.47 242.473 139.639 256.159 139.83ZM256.693 95.314C267.328 95.4653 275.972 104.388 275.876 115.134C275.78 125.921 267.097 134.501 256.303 134.469C245.644 134.437 236.761 125.546 236.785 114.935C236.809 104.189 245.97 95.1626 256.693 95.306V95.314Z" fill="white"/>
<path d="M293.697 161.18C288.662 147.876 274.697 142.1 261.6 146.912C257.657 148.362 253.889 148.011 250.009 146.458C247.739 145.55 245.189 144.825 242.776 144.857C227.783 145.056 216.662 157.364 216.63 173.552C216.63 175.408 216.367 177.32 216.733 179.104C216.949 180.156 218.159 180.992 218.924 181.932C219.864 181.016 221.41 180.228 221.625 179.168C222.055 177.001 221.744 174.683 221.792 172.428C221.967 164.295 225.234 157.754 232.188 153.413C237.446 150.13 242.911 148.744 249.101 151.636C254.096 153.978 259.394 153.484 264.564 151.397C266.46 150.632 268.643 150.035 270.642 150.154C281.883 150.855 290.534 160.017 290.893 171.329C290.972 173.982 290.733 176.667 291.1 179.272C291.243 180.267 292.677 181.08 293.53 181.972C294.422 181 296.159 179.965 296.079 179.072C295.569 173.058 295.768 166.669 293.689 161.172L293.697 161.18Z" fill="white"/>
<path d="M281.038 167.784C280.791 166.701 279.334 165.888 278.425 164.956C277.597 165.848 276.131 166.693 276.059 167.633C275.788 171.441 275.765 175.304 276.083 179.104C276.163 180.116 277.788 180.992 278.696 181.932C279.517 180.905 280.767 179.981 281.062 178.818C281.469 177.2 281.166 175.408 281.158 173.687C281.158 171.704 281.469 169.648 281.03 167.768L281.038 167.784Z" fill="white"/>
<path d="M234.172 164.996C233.351 166.008 232.093 166.916 231.806 168.071C231.4 169.696 231.702 171.496 231.702 173.217C231.702 175.073 231.408 177.001 231.806 178.77C232.069 179.933 233.32 180.881 234.124 181.924C234.993 180.968 236.53 180.06 236.618 179.033C236.92 175.344 236.92 171.6 236.618 167.904C236.538 166.876 235.024 165.96 234.172 164.996Z" fill="white"/>
<path d="M256.159 379.858C269.686 380.041 281.07 368.832 281.174 355.21C281.285 341.571 270.252 330.235 256.653 330.028C243.15 329.821 231.782 341.061 231.694 354.708C231.607 368.498 242.473 379.666 256.159 379.858ZM256.693 335.333C267.328 335.485 275.972 344.407 275.876 355.154C275.78 365.94 267.097 374.52 256.303 374.488C245.644 374.456 236.761 365.566 236.785 354.955C236.809 344.208 245.97 335.182 256.693 335.325V335.333Z" fill="white"/>
<path d="M293.697 401.2C288.662 387.896 274.697 382.12 261.6 386.932C257.657 388.382 253.889 388.031 250.009 386.478C247.739 385.57 245.189 384.845 242.776 384.876C227.783 385.076 216.662 397.384 216.63 413.572C216.63 415.428 216.367 417.34 216.733 419.124C216.949 420.176 218.159 421.012 218.924 421.952C219.864 421.036 221.41 420.247 221.625 419.188C222.055 417.021 221.744 414.703 221.792 412.448C221.967 404.315 225.234 397.774 232.188 393.432C237.446 390.15 242.911 388.764 249.101 391.656C254.096 393.998 259.394 393.504 264.564 391.417C266.46 390.652 268.643 390.055 270.642 390.174C281.883 390.875 290.534 400.037 290.893 411.349C290.972 414.002 290.733 416.686 291.1 419.291C291.243 420.287 292.677 421.1 293.53 421.992C294.422 421.02 296.159 419.984 296.079 419.092C295.569 413.078 295.768 406.689 293.689 401.192L293.697 401.2Z" fill="white"/>
<path d="M281.038 407.812C280.791 406.729 279.334 405.916 278.425 404.984C277.597 405.876 276.131 406.721 276.059 407.661C275.788 411.469 275.765 415.332 276.083 419.132C276.163 420.144 277.788 421.02 278.696 421.96C279.517 420.933 280.767 420.009 281.062 418.845C281.469 417.228 281.166 415.436 281.158 413.715C281.158 411.731 281.469 409.676 281.03 407.796L281.038 407.812Z" fill="white"/>
<path d="M234.172 405.015C233.351 406.027 232.093 406.935 231.806 408.09C231.4 409.716 231.702 411.516 231.702 413.237C231.702 415.093 231.408 417.021 231.806 418.789C232.069 419.952 233.32 420.9 234.124 421.944C234.993 420.988 236.53 420.08 236.618 419.052C236.92 415.364 236.92 411.62 236.618 407.923C236.538 406.895 235.024 405.979 234.172 405.015Z" fill="white"/>
<path d="M147.609 283.074C161.136 283.257 172.52 272.048 172.624 258.426C172.735 244.787 161.702 233.451 148.103 233.244C134.6 233.037 123.232 244.277 123.144 257.924C123.057 271.714 133.923 282.883 147.609 283.074ZM148.151 238.55C158.786 238.701 167.429 247.623 167.334 258.37C167.238 269.157 158.555 277.736 147.76 277.705C137.101 277.673 128.219 268.782 128.243 258.171C128.267 247.424 137.428 238.398 148.151 238.542V238.55Z" fill="white"/>
<path d="M185.155 304.424C180.12 291.12 166.155 285.344 153.058 290.156C149.115 291.606 145.347 291.255 141.467 289.702C139.196 288.794 136.647 288.069 134.233 288.101C119.241 288.3 108.119 300.608 108.088 316.796C108.088 318.652 107.825 320.564 108.191 322.348C108.406 323.4 109.617 324.236 110.382 325.176C111.322 324.26 112.867 323.471 113.083 322.412C113.513 320.245 113.202 317.927 113.25 315.672C113.425 307.539 116.691 300.998 123.646 296.657C128.904 293.374 134.369 291.988 140.559 294.88C145.554 297.222 150.851 296.728 156.021 294.641C157.918 293.876 160.1 293.279 162.1 293.398C173.34 294.099 181.992 303.261 182.35 314.573C182.43 317.226 182.191 319.91 182.558 322.515C182.701 323.511 184.135 324.324 184.987 325.216C185.88 324.244 187.616 323.209 187.537 322.316C187.027 316.302 187.226 309.913 185.147 304.416L185.155 304.424Z" fill="white"/>
<path d="M172.496 311.028C172.249 309.944 170.791 309.132 169.883 308.2C169.055 309.092 167.589 309.936 167.517 310.876C167.246 314.684 167.222 318.548 167.541 322.348C167.621 323.36 169.246 324.236 170.154 325.176C170.974 324.148 172.225 323.224 172.52 322.061C172.926 320.444 172.623 318.652 172.616 316.931C172.616 314.947 172.926 312.892 172.488 311.012L172.496 311.028Z" fill="white"/>
<path d="M125.622 308.24C124.801 309.251 123.542 310.16 123.256 311.315C122.849 312.94 123.152 314.74 123.152 316.461C123.152 318.317 122.857 320.245 123.256 322.014C123.519 323.177 124.769 324.125 125.574 325.168C126.442 324.212 127.98 323.304 128.067 322.277C128.37 318.588 128.37 314.844 128.067 311.147C127.988 310.12 126.474 309.204 125.622 308.24Z" fill="white"/>
<path d="M364.757 283.074C378.284 283.257 389.668 272.048 389.772 258.426C389.883 244.787 378.85 233.451 365.251 233.244C351.748 233.037 340.38 244.277 340.292 257.924C340.205 271.714 351.071 282.883 364.757 283.074ZM365.291 238.55C375.926 238.701 384.57 247.623 384.474 258.37C384.379 269.157 375.695 277.736 364.901 277.705C354.242 277.673 345.359 268.782 345.383 258.171C345.407 247.424 354.568 238.398 365.291 238.542V238.55Z" fill="white"/>
<path d="M402.295 304.424C397.26 291.12 383.295 285.344 370.198 290.156C366.255 291.606 362.487 291.255 358.607 289.702C356.337 288.794 353.788 288.069 351.374 288.101C336.381 288.3 325.26 300.608 325.228 316.796C325.228 318.652 324.965 320.564 325.332 322.348C325.547 323.4 326.758 324.236 327.522 325.176C328.462 324.26 330.008 323.471 330.223 322.412C330.653 320.245 330.342 317.927 330.39 315.672C330.565 307.539 333.832 300.998 340.786 296.657C346.044 293.374 351.509 291.988 357.699 294.88C362.694 297.222 367.992 296.728 373.162 294.641C375.058 293.876 377.241 293.279 379.24 293.398C390.481 294.099 399.132 303.261 399.491 314.573C399.57 317.226 399.331 319.91 399.698 322.515C399.841 323.511 401.275 324.324 402.128 325.216C403.02 324.244 404.757 323.209 404.677 322.316C404.167 316.302 404.366 309.913 402.287 304.416L402.295 304.424Z" fill="white"/>
<path d="M389.636 311.028C389.389 309.944 387.932 309.132 387.023 308.2C386.195 309.092 384.729 309.936 384.657 310.876C384.387 314.684 384.363 318.548 384.681 322.348C384.761 323.36 386.386 324.236 387.294 325.176C388.115 324.148 389.366 323.224 389.66 322.061C390.067 320.444 389.764 318.652 389.756 316.931C389.756 314.947 390.067 312.892 389.628 311.012L389.636 311.028Z" fill="white"/>
<path d="M342.77 308.24C341.949 309.251 340.691 310.16 340.404 311.315C339.998 312.94 340.3 314.74 340.3 316.461C340.3 318.317 340.006 320.245 340.404 322.014C340.667 323.177 341.918 324.125 342.722 325.168C343.591 324.212 345.128 323.304 345.216 322.277C345.518 318.588 345.518 314.844 345.216 311.147C345.136 310.12 343.622 309.204 342.77 308.24Z" fill="white"/>
<path d="M255.657 318.469C290.156 318.469 318.122 290.502 318.122 256.004C318.122 221.506 290.156 193.54 255.657 193.54C221.159 193.54 193.193 221.506 193.193 256.004C193.193 290.502 221.159 318.469 255.657 318.469Z" stroke="white" stroke-width="0.973607" stroke-miterlimit="10"/>
</g>
<defs>
<clipPath id="clip0_50_202">
<rect width="296.693" height="332" fill="white" transform="translate(108 90)"/>
</clipPath>
</defs>
</svg>
