<svg width="512" height="512" viewBox="0 0 512 512" fill="none" xmlns="http://www.w3.org/2000/svg">
<circle cx="256" cy="256" r="232" stroke="white" stroke-width="6"/>
<g clip-path="url(#clip0_48_181)">
<path d="M315.966 315.265C314.372 306.085 308.652 299.488 298.475 295.097C291.553 292.114 284.113 289.929 276.918 287.816L275.742 287.471C272.521 286.521 271.378 285.013 271.391 281.704C271.484 255.863 271.551 225.358 271.378 194.992C271.345 189.193 270.78 183.639 269.704 178.484C263.805 150.271 236.973 129 207.292 129C201.772 129 196.324 129.757 191.096 131.259C161.754 139.662 143.525 163.843 143.519 194.355V208.318C143.505 232.386 143.492 257.271 143.585 281.744C143.598 285.358 142.07 286.541 139.247 287.471C137.699 287.975 136.145 288.474 134.59 288.972C127.363 291.29 119.883 293.682 113.053 297.01C103.228 301.793 98.3125 310.19 98.4321 321.968C98.5981 337.732 98.5649 353.755 98.5317 369.254C98.5184 375.983 98.5051 382.706 98.5051 389.435C98.5051 394.026 98.7775 394.298 103.301 394.298H261.413H311.588C316.192 394.298 316.325 394.158 316.325 389.449V381.59C316.325 361.282 316.325 340.974 316.312 320.666C316.312 318.999 316.285 317.072 315.973 315.272L315.966 315.265ZM148.355 193.823C148.395 166.6 166.012 143.396 192.199 136.095C197.188 134.7 202.336 133.996 207.505 133.996C236.827 133.996 262.49 156.582 265.924 185.42C266.342 188.927 266.555 192.315 266.562 195.491C266.602 217.054 266.595 238.976 266.588 260.181V285.797L264.848 285.232C262.264 284.395 259.719 283.591 257.208 282.807C251.223 280.927 245.57 279.153 239.956 277.021C234.795 275.055 233.632 269.734 232.695 265.449C232.562 264.838 232.483 264.233 232.41 263.649C232.343 263.124 232.283 262.632 232.184 262.16C231.553 259.125 232.337 256.873 234.728 254.84C242.487 248.27 247.582 239.388 249.874 228.454C252.724 214.862 252.505 201.33 249.223 188.25C248.566 185.626 247.343 183.028 246.161 180.517L245.736 179.607C244.839 177.694 243.769 177.448 242.939 177.448C242.341 177.448 241.637 177.601 240.84 177.9C234.064 180.457 225.029 183.4 215.237 183.413H215.138C201.998 183.413 193.289 179.122 187.722 169.915C187.509 169.563 186.333 168.971 185.463 168.971C185.35 168.971 185.29 168.985 185.257 168.991C184.646 169.124 183.556 170.32 183.51 170.785C183.277 176.538 179.896 180.065 176.276 183.022C168.629 189.266 164.345 198.247 163.548 209.713C162.498 224.846 166.172 237.993 174.462 248.795C176.362 251.266 178.362 253.372 180.414 255.032C182.513 256.74 183.277 258.706 182.879 261.403C181.285 272.192 179.584 276.589 167.912 280.03C164.956 280.901 161.966 281.671 158.911 282.448C157.011 282.933 155.078 283.385 153.025 283.87C152.055 284.096 151.039 284.335 149.969 284.594L148.335 284.986C148.335 284.986 148.335 262.346 148.335 253.744C148.335 234.107 148.322 213.806 148.348 193.836L148.355 193.823ZM187.788 262.851C187.821 262.732 187.861 262.619 187.888 262.499L188.24 261.211L189.529 261.563C198.663 264.08 203.824 265.276 208.461 265.276C213.098 265.276 217.396 264.107 225.189 261.496L226.524 261.044L226.896 262.406C227.175 263.429 227.427 264.452 227.68 265.482C228.251 267.794 228.849 270.185 229.693 272.397C230.663 274.935 231.865 276.835 233.18 277.905C235.924 280.143 237.04 282.88 236.794 286.773C236.515 291.164 236.263 295.555 236.01 299.946C235.578 307.353 235.14 315.006 234.589 322.533C234.456 324.333 233.067 326.539 231.486 327.442C223.628 331.953 215.569 334.245 207.531 334.245C199.493 334.245 191.548 332.026 183.517 327.655C179.85 325.662 179.803 322.26 179.763 319.783C179.763 319.311 179.75 318.846 179.723 318.407C179.079 308.954 178.767 299.329 178.461 290.028C178.395 287.982 178.328 285.929 178.262 283.883C178.229 282.92 178.475 281.04 179.61 280.143C184.971 275.892 186.592 269.807 187.549 263.861C187.609 263.489 187.708 263.15 187.801 262.851H187.788ZM182.487 250.342C175.319 243.653 170.908 234.725 168.995 223.033C167.493 213.845 168.158 205.94 171.041 198.852C173.406 193.033 176.169 189.16 180.002 186.29C181.809 184.941 183.543 183.54 185.383 182.052C186.214 181.381 187.051 180.703 187.908 180.019L188.751 179.348L189.582 180.032C196.491 185.719 204.416 188.489 213.802 188.489C223.189 188.489 232.782 185.825 241.152 183.221L242.467 182.809L242.826 184.144C243.112 185.2 243.444 186.283 243.763 187.326C244.48 189.671 245.224 192.103 245.556 194.6C247.224 207.143 248.154 221.844 242.374 235.794C236.203 250.721 222.445 260.36 207.332 260.36C198.244 260.36 189.422 256.8 182.487 250.329V250.342ZM177.863 389.475C175.817 389.475 167.646 389.488 165.607 389.488C161.867 389.488 156.938 389.482 151.949 389.415C150.7 389.402 148.401 388.837 147.538 387.396C142.662 379.251 137.135 368.264 137.653 355.482C137.912 349.065 139.759 343.89 143.286 339.652C143.851 338.974 144.502 337.985 144.415 337.101C144.362 336.536 144.01 336.005 143.339 335.46C142.834 335.048 142.349 334.842 141.911 334.842C141.008 334.842 140.097 335.733 139.486 336.483C134.703 342.376 132.484 349.59 132.71 358.538C132.916 366.683 135.208 374.694 140.151 384.513C140.443 385.097 140.715 385.689 141.021 386.353C141.174 386.685 141.333 387.037 141.512 387.416L142.403 389.309H103.806L103.747 388.04C103.727 387.622 103.707 387.216 103.68 386.818C103.634 385.961 103.587 385.144 103.58 384.313C103.58 378.049 103.594 371.778 103.607 365.513C103.64 351.105 103.673 336.198 103.487 321.55C103.368 312.037 107.427 305.081 115.226 301.434C123.895 297.375 133.129 294.446 140.204 292.34C147.279 290.241 154.3 288.534 161.734 286.733C164.869 285.969 168.118 285.185 171.34 284.368L172.981 283.956L172.994 285.65C173.24 319.643 176.681 355.489 200.018 387.356L201.566 389.468H177.85L177.863 389.475ZM207.452 388.332L206.435 387.13C194.876 373.439 187.283 357.004 182.54 335.407L181.982 332.863L184.374 333.906C192.246 337.347 199.799 339.021 207.465 339.021C215.104 339.021 222.658 337.36 230.563 333.939L232.954 332.903L232.39 335.447C227.593 357.077 219.994 373.498 208.475 387.137L207.458 388.339L207.452 388.332ZM311.402 379.637V386.273C311.402 386.765 311.309 387.216 311.216 387.648C311.177 387.828 311.137 388.014 311.104 388.22L310.918 389.329H273.045L273.756 387.515C274.454 385.735 275.191 383.948 275.902 382.227C277.456 378.467 279.057 374.581 280.246 370.688C283.561 359.807 283.076 350.301 278.758 341.645C277.516 339.147 276.021 337.088 274.44 335.679C274.341 335.593 273.882 335.414 273.085 335.414C272.388 335.414 271.684 335.553 271.278 335.772C270.8 336.032 270.494 336.404 270.401 336.862C270.282 337.42 270.488 338.078 270.953 338.675C280.539 350.852 277.549 364.072 273.869 374.229C272.501 378.002 270.574 381.59 268.707 385.057C268.382 385.669 268.05 386.28 267.724 386.891C267.08 388.093 265.379 389.395 263.865 389.402C257.328 389.442 250.426 389.462 242.155 389.462C235.505 389.462 228.856 389.449 222.206 389.435H217.044C216.539 389.422 216.194 389.196 215.935 389.03C215.862 388.983 215.769 388.924 215.656 388.857L214.334 388.127L215.231 386.911C238.322 355.443 241.69 318.075 241.942 285.67L241.956 283.976L243.597 284.395C244.819 284.707 246.021 285.006 247.21 285.312C249.834 285.969 252.306 286.594 254.817 287.265C257.939 288.102 261.068 288.919 264.197 289.736C272.474 291.895 281.024 294.12 289.328 296.731C293.659 298.093 298.083 300.385 303.677 304.171C308.632 307.526 311.376 312.86 311.383 319.198C311.416 339.346 311.409 359.834 311.402 379.643V379.637Z" fill="white"/>
<path d="M94.3596 230.32C102.65 234.233 108.177 241.009 111.266 251.033C111.904 253.113 112.575 253.817 113.917 253.817H113.957C115.319 253.804 115.916 253.166 116.601 250.98C119.743 240.982 125.283 234.213 133.554 230.287C134.351 229.908 135.341 228.507 135.381 227.71C135.381 227.271 134.444 226.009 133.567 225.59C125.409 221.711 119.902 215.048 116.727 205.223C115.95 202.818 115.465 202.067 113.937 202.054C112.416 202.054 111.891 202.871 111.167 205.163C108.084 214.961 102.584 221.631 94.353 225.551C93.7817 225.823 93.217 226.534 92.566 227.351C92.3999 227.557 92.2206 227.783 92.0345 228.008C92.2338 228.234 92.4198 228.447 92.5992 228.653C93.2768 229.443 93.8149 230.068 94.3663 230.327L94.3596 230.32ZM113.963 213.932L125.967 227.962L113.943 241.932L101.906 227.935L113.963 213.938V213.932Z" fill="white"/>
<path d="M108.729 290.865C109.606 290.44 110.569 289.032 110.562 288.394C110.556 287.77 109.559 286.401 108.636 285.949C100.704 282.096 95.3097 275.586 92.1543 266.04L92.0745 265.788C91.2907 263.403 90.8721 262.566 89.2047 262.539C87.6237 262.539 87.1852 263.436 86.4346 265.808L86.3814 265.98C83.3788 275.453 78.0045 281.977 69.9597 285.923C68.9965 286.401 67.9934 287.763 68 288.221C68.0133 288.474 68.2259 289.424 70.3185 291.204C71.4013 292.127 72.6369 292.998 73.826 293.835C75.985 295.356 78.2171 296.924 79.8845 299.023C81.7578 301.375 83.0665 304.145 84.3221 306.822C84.9864 308.23 85.6706 309.685 86.4213 311.034C86.9926 312.063 87.7499 313.013 88.5537 314.016C88.7862 314.309 89.0187 314.601 89.2446 314.893H89.4638C89.6963 314.574 89.9355 314.275 90.1746 313.983C90.912 313.066 91.6029 312.203 91.9085 311.306C95.3297 301.242 100.671 294.745 108.729 290.859V290.865ZM89.2645 302.398L77.2406 288.407L89.2911 274.477L101.328 288.441L89.2645 302.398Z" fill="white"/>
<path d="M423.278 204.844C423.737 204.844 424.388 204.731 424.926 204.173L437.481 191.618C437.926 191.173 438.166 190.595 438.166 189.977C438.166 189.366 437.92 188.788 437.481 188.349C437.043 187.911 436.465 187.665 435.854 187.665C435.243 187.665 434.658 187.911 434.22 188.349L421.664 200.905C421.226 201.343 420.987 201.921 420.987 202.539C420.987 203.157 421.226 203.735 421.684 204.186C422.103 204.618 422.641 204.838 423.292 204.838L423.278 204.844Z" fill="white"/>
<path d="M424.893 237.887C424.454 237.442 423.876 237.196 423.265 237.196C422.654 237.196 422.076 237.442 421.631 237.893C420.721 238.803 420.728 240.238 421.631 241.162L434.193 253.717C434.625 254.149 435.209 254.381 435.841 254.381C436.472 254.381 437.056 254.142 437.481 253.717C438.345 252.84 438.405 251.551 437.661 250.615L424.899 237.873L424.893 237.887Z" fill="white"/>
<path d="M399.363 203.117C399.363 190.116 399.363 177.116 399.363 164.115C399.363 159.771 398.088 159.771 397.324 159.771C396.56 159.771 395.477 160.03 394.149 160.541C389.093 162.488 384.038 164.428 378.982 166.361C365.304 171.602 351.161 177.023 337.324 182.51C325.406 187.233 314.558 191.146 302.487 191.146C301.126 191.146 299.75 191.093 298.402 190.993C298.03 190.967 297.645 190.953 297.273 190.953C288.902 190.953 281.562 197.968 280.559 206.923C279.815 213.586 279.914 220.322 280.133 226.6C280.326 232.2 282.877 237.056 287.7 241.029C289.029 242.125 289.746 244.164 289.773 245.613C289.852 250.535 289.852 255.531 289.846 260.367C289.846 263.755 289.846 267.149 289.866 270.537C289.899 275.42 291.971 279.32 296.004 282.13C298.561 283.91 301.265 284.813 304.029 284.813C306.121 284.813 308.26 284.295 310.399 283.279C315.554 280.821 318.344 276.596 318.471 271.056C318.59 265.861 318.564 260.732 318.537 255.298C318.524 252.933 318.511 250.548 318.511 248.11V246.27L320.258 246.848C320.769 247.014 321.234 247.16 321.666 247.3C322.543 247.579 323.307 247.818 324.071 248.11C347.348 257.092 370.619 266.073 393.889 275.068C395.251 275.593 396.354 275.865 397.165 275.865C397.975 275.865 399.357 275.865 399.357 271.401C399.357 260.553 399.357 249.711 399.357 238.863C403.814 238.378 407.614 236.478 410.398 233.283C413.281 229.988 414.868 225.584 414.868 220.887C414.868 212.656 409.547 204.213 399.35 203.104L399.363 203.117ZM285.149 226.188C285.023 220.542 285.016 214.942 285.149 209.534C285.322 202.18 290.703 196.474 297.944 195.969C299.551 195.856 301.272 195.803 303.358 195.803C304.786 195.803 306.234 195.829 307.696 195.849C309.184 195.876 310.698 195.902 312.239 195.902H313.568V239.401H312.239C310.579 239.401 308.878 239.461 307.231 239.521C305.57 239.581 303.856 239.64 302.162 239.64C299.638 239.64 297.572 239.501 295.652 239.209C289.713 238.305 285.302 232.825 285.149 226.175V226.188ZM313.668 269.82C313.595 275.58 309.635 279.771 304.215 279.791C298.86 279.791 294.901 275.766 294.795 270.212C294.688 264.618 294.715 258.912 294.735 253.392C294.742 251.007 294.755 248.609 294.755 246.197V244.869H313.688V251.199C313.688 253.066 313.688 254.939 313.694 256.806C313.708 261.071 313.721 265.475 313.668 269.82ZM371.888 261.237L364.687 258.454C360.588 256.873 356.589 255.325 352.589 253.784C350.132 252.834 347.674 251.884 345.216 250.934C337.523 247.958 329.565 244.882 321.712 241.932C319.421 241.069 318.491 239.74 318.504 237.349C318.544 231.43 318.55 225.411 318.55 219.592C318.55 212.577 318.564 205.322 318.623 198.181C318.637 196.746 319.786 194.627 321.247 194.056C335.636 188.389 350.318 182.749 364.507 177.295L368.772 175.654C369.098 175.528 369.396 175.515 369.596 175.515C369.722 175.515 369.861 175.521 370.014 175.535C370.16 175.541 370.333 175.555 370.546 175.555H371.874V261.23L371.888 261.237ZM394.135 269.82L376.87 263.157V241.932C376.877 220.482 376.883 198.307 376.81 176.491C376.803 173.462 377.926 171.855 380.703 170.944C383.36 170.074 385.958 169.058 388.715 167.982C389.897 167.517 391.099 167.052 392.335 166.58L394.135 165.896V269.827V269.82ZM406.91 230.3C404.997 232.473 402.406 233.821 399.363 234.273C399.363 225.451 399.363 216.635 399.363 207.813C406.857 208.876 410.245 214.988 410.245 220.947C410.245 224.474 409.029 227.882 406.91 230.3Z" fill="white"/>
<path d="M448.688 218.708H430.911C429.629 218.708 428.593 219.745 428.593 221.02C428.593 222.296 429.636 223.338 430.911 223.338H448.688C449.964 223.338 451 222.296 451 221.02C451 219.745 449.964 218.708 448.688 218.708Z" fill="white"/>
</g>
<defs>
<clipPath id="clip0_48_181">
<rect width="383" height="265.291" fill="white" transform="translate(68 129)"/>
</clipPath>
</defs>
</svg>
