<svg width="512" height="512" viewBox="0 0 512 512" fill="none" xmlns="http://www.w3.org/2000/svg">
<circle cx="256" cy="256" r="232" stroke="white" stroke-width="6"/>
<g clip-path="url(#clip0_48_166)">
<path d="M274.645 349.659C273.409 349.086 271.717 349.462 270.221 349.462C232.9 349.462 195.589 349.462 158.268 349.462H151.999C158.976 341.787 159.486 333.467 159.477 324.797C159.37 260.912 159.406 197.028 159.424 133.143C159.424 120.622 164.932 115.159 177.408 115.159C228.306 115.159 279.204 115.159 330.102 115.159C343.106 115.159 348.632 120.649 348.632 133.6C348.632 173.455 348.632 213.31 348.632 253.165C348.632 254.356 348.211 255.807 348.74 256.694C349.68 258.27 351.212 260.608 352.475 260.59C353.899 260.572 355.591 258.503 356.586 256.954C357.204 255.995 356.774 254.338 356.774 252.995C356.774 223.735 356.774 194.484 356.774 165.224C356.774 153.581 356.908 141.938 356.729 130.295C356.523 116.619 346.725 107.054 333.12 107.054C280.288 107.027 227.455 107.072 174.613 107C167.045 106.991 161.045 109.884 156.253 115.553C151.945 120.658 151.085 126.829 151.077 133.179C151.041 166.917 151.059 200.646 151.059 234.384V239.856C143.491 239.856 136.648 239.785 129.806 239.874C115.726 240.044 106.018 249.914 106 264.011C105.982 285.658 106 307.297 106 328.944C106 346.498 117.204 357.792 134.785 357.801C180.157 357.836 225.538 357.818 270.911 357.801C272.388 357.801 274.242 358.096 275.254 357.353C276.589 356.368 277.986 354.487 277.995 352.991C277.995 351.845 276.051 350.322 274.636 349.668L274.645 349.659ZM151.023 330.645C150.987 341.276 143.088 349.256 132.886 349.382C122.667 349.507 114.222 341.196 114.177 330.61C114.078 308.246 114.105 285.882 114.177 263.519C114.204 255.279 119.452 249.108 127.656 248.508C135.188 247.962 142.792 248.392 150.79 248.392C150.906 249.726 151.05 250.604 151.05 251.481C151.059 277.875 151.13 304.26 151.032 330.654L151.023 330.645Z" fill="white"/>
<path d="M402.549 325.943C398.814 322.11 395.052 318.286 391.157 314.3C395.285 308.094 396.441 301.135 394.766 293.889C391.183 278.413 373.996 270.334 359.568 277.517C356.156 279.219 354.391 278.717 352.107 276.129C349.349 273.012 346.313 270.11 343.178 267.361C338.019 262.838 331.777 262.623 326.887 266.537C322.597 269.967 321.594 276.335 324.003 282.067C324.693 283.706 324.782 286.07 324.146 287.718C321.262 295.214 317.626 302.433 314.993 310.001C310.273 323.588 303.529 335.589 292.379 345.092C286.691 349.946 287.085 357.532 292.37 362.932C296.848 367.509 301.514 371.915 306.046 376.456C313.417 383.827 317.053 384.409 327.541 378.722C335.368 387.007 343.232 395.372 351.149 403.692C354.588 407.31 358.798 408.869 363.724 407.516C373.325 404.883 376.164 393.598 369.062 386.12C361.476 378.14 353.755 370.285 346.08 362.35C346.026 362.404 346.295 361.983 346.671 361.813C359.219 356.35 371.748 350.868 384.359 345.557C385.478 345.083 387.234 345.405 388.425 345.942C394.999 348.916 401.161 347.707 404.779 342.53C408.379 337.398 407.537 331.048 402.558 325.943H402.549ZM382.003 287.7C387.735 293.208 388.935 300.848 384.842 308.174C377.579 300.481 370.387 292.841 363.07 285.085C369.16 280.714 377.839 283.706 382.003 287.7ZM320.823 372.542C318.414 374.728 316.068 374.817 313.766 372.542C308.589 367.419 303.457 362.243 298.299 357.102C296.221 355.033 296.283 352.875 298.182 350.806C301.792 346.865 305.473 342.996 309.288 338.921C316.99 346.829 324.101 354.137 332.198 362.458C328.597 365.637 324.675 369.049 320.823 372.542ZM363.231 392.38C364.261 393.5 363.545 396.214 363.634 398.193C361.619 398.273 358.726 399.268 357.714 398.3C349.161 390.061 340.939 381.472 332.475 372.829C334.204 371.226 336.022 369.542 338.825 366.945C347.002 375.381 355.287 383.729 363.231 392.38ZM340.429 355.32C339.56 355.678 337.84 355.176 337.097 354.46C330.12 347.734 323.251 340.909 316.426 334.022C315.709 333.305 314.903 331.81 315.19 331.102C320.617 317.793 326.197 304.556 332.09 290.477C347.952 306.902 363.249 322.746 378.842 338.885C366.348 344.259 353.424 349.865 340.429 355.311V355.32ZM396.665 338.706C395.088 338.983 392.957 338.822 391.748 337.918C389.025 335.876 386.687 333.305 384.242 330.896C367.476 314.327 350.719 297.749 333.971 281.171C333.228 280.437 332.063 279.693 331.956 278.852C331.723 276.998 332.046 275.072 332.144 273.173C334.007 273.308 336.461 272.734 337.643 273.702C341.548 276.908 345.023 280.643 348.623 284.216C364.413 299.863 380.203 315.518 395.948 331.201C397.166 332.41 398.08 333.923 399.342 335.553C398.295 336.852 397.614 338.527 396.665 338.697V338.706Z" fill="white"/>
<path d="M320.071 133.242C276.383 133.161 232.703 133.161 189.015 133.242C180.757 133.26 175.437 138.786 175.178 147.061C175.088 150.044 175.151 153.026 175.16 156.008C175.205 166.442 180.345 171.529 190.869 171.538C212.041 171.547 233.214 171.538 254.386 171.538C275.407 171.538 296.436 171.538 317.456 171.538C329.35 171.538 333.774 167.06 333.783 155.041C333.783 152.354 333.828 149.676 333.783 146.989C333.631 138.58 328.535 133.251 320.08 133.233L320.071 133.242ZM312.226 163.496C292.988 163.29 273.75 163.451 254.512 163.451C233.483 163.451 212.453 163.451 191.424 163.451C185.146 163.451 183.382 161.705 183.328 155.578C183.31 153.339 183.292 151.1 183.328 148.87C183.426 143.264 185.262 141.338 190.887 141.32C204.16 141.258 217.433 141.302 230.706 141.302C259.491 141.302 288.277 141.302 317.053 141.302C324.191 141.302 325.615 142.753 325.615 149.936C325.624 162.34 327.344 163.675 312.208 163.514L312.226 163.496Z" fill="white"/>
<path d="M212.409 264.817C234.656 264.943 252.685 247.102 252.747 225.016C252.81 203.27 234.692 185.071 212.937 185.026C190.869 184.982 173.118 202.661 173.1 224.711C172.204 245.409 189.606 264.692 212.409 264.817ZM189.472 246.332C187.403 243.887 188.854 242.678 190.332 241.155C203.596 227.488 225.27 228.724 237.558 244.048C226.801 259.676 201.616 260.688 189.472 246.332ZM206.211 216.758C206.247 213.256 209.283 210.167 212.731 210.122C216.287 210.077 219.574 213.516 219.403 217.09C219.242 220.484 215.946 223.601 212.606 223.529C209.292 223.458 206.175 220.162 206.211 216.758ZM192.141 201.112C203.614 191.421 219.403 190.705 231.718 199.724C242.913 207.927 247.49 223.583 242.206 235.316C236.662 231.778 231.315 228.366 226.595 225.356C226.595 220.609 227.231 215.773 226.344 211.232C225.852 208.707 223.183 206.226 220.899 204.506C215.946 200.78 208.647 201.21 203.784 204.963C197.738 209.62 196.619 215.406 199.816 224.828C194.317 228.33 188.863 231.796 183.408 235.262C178.545 227.103 181.214 210.328 192.132 201.103L192.141 201.112Z" fill="white"/>
<path d="M296.194 310.834C297.6 309.912 299.409 308.237 299.409 306.893C299.409 305.532 297.618 303.857 296.212 302.926C295.253 302.29 293.614 302.63 292.271 302.63C255.013 302.621 217.755 302.621 180.498 302.63C179.02 302.63 177.264 302.388 176.136 303.078C174.846 303.866 173.324 305.568 173.333 306.858C173.333 308.192 174.828 309.858 176.109 310.736C177.05 311.38 178.697 311.067 180.032 311.067C198.661 311.085 217.29 311.076 235.919 311.076C254.7 311.076 273.472 311.076 292.253 311.076C293.588 311.076 295.236 311.461 296.194 310.834Z" fill="white"/>
<path d="M293.946 281.019C255.604 281.019 217.263 281.019 178.921 281.037C176.154 281.037 173.27 281.207 173.145 285.014C173.01 289.268 176.091 289.115 179.038 289.115C198.132 289.106 217.227 289.115 236.331 289.115C255.578 289.115 274.824 289.115 294.071 289.115C296.919 289.115 299.749 289.053 299.642 285.139C299.543 281.458 296.848 281.019 293.955 281.019H293.946Z" fill="white"/>
<path d="M265.868 324.385C251.843 324.385 237.817 324.385 223.783 324.385C210.797 324.385 197.819 324.385 184.833 324.385C182.441 324.385 180.05 324.322 177.668 324.439C175.008 324.564 172.992 325.549 173.109 328.711C173.225 331.854 175.33 332.616 177.954 332.723C178.993 332.768 180.041 332.732 181.089 332.732C205.262 332.732 229.434 332.732 253.607 332.732C258.829 332.732 264.086 333.037 269.254 332.535C270.821 332.383 273.006 330.224 273.436 328.594C274.117 326.024 272.066 324.591 269.433 324.439C268.242 324.367 267.05 324.385 265.85 324.385H265.868Z" fill="white"/>
<path d="M335.216 250.702C337.948 250.702 340.554 250.219 340.635 246.833C340.715 243.349 338.315 242.436 335.234 242.445C314.966 242.472 294.698 242.472 274.43 242.445C271.457 242.445 268.868 243 268.833 246.609C268.797 250.326 271.493 250.729 274.412 250.72C284.551 250.693 294.68 250.711 304.819 250.711C314.957 250.711 325.087 250.711 335.225 250.711L335.216 250.702Z" fill="white"/>
<path d="M274.394 199.276C271.448 199.276 268.788 199.634 268.824 203.36C268.86 207.032 271.502 207.435 274.448 207.426C284.434 207.372 294.421 207.408 304.407 207.408C314.545 207.408 324.675 207.372 334.813 207.426C337.733 207.444 340.491 207.13 340.635 203.521C340.787 199.518 337.813 199.276 334.759 199.276C314.635 199.303 294.519 199.303 274.394 199.276Z" fill="white"/>
<path d="M334.813 220.914C314.697 220.941 294.582 220.941 274.466 220.914C271.555 220.914 268.851 221.183 268.815 224.926C268.779 228.688 271.466 228.983 274.394 228.975C284.381 228.93 294.358 228.957 304.344 228.957C314.473 228.957 324.612 228.939 334.741 228.966C337.76 228.966 340.778 228.84 340.634 224.774C340.5 221.102 337.688 220.905 334.813 220.914Z" fill="white"/>
</g>
<defs>
<clipPath id="clip0_48_166">
<rect width="300.973" height="301" fill="white" transform="translate(106 107)"/>
</clipPath>
</defs>
</svg>
